STARTFONT 2.1
COMMENT
COMMENT Converted from OpenType font "c:\Users\martin\Dropbox\Code\EEZ\eez-studio\font_tools\fonts\ttf\FontAwesome.otf" by "otf2bdf.exe 3.0".
COMMENT
FONT -FreeType-FontAwesome-Medium-R-Normal--19-140-100-100-P-170-ISO10646-1
SIZE 14 100 100
FONTBOUNDINGBOX 25 23 0 -5
STARTPROPERTIES 19
FOUNDRY "FreeType"
FAMILY_NAME "FontAwesome"
WEIGHT_NAME "Medium"
SLANT "R"
SETWIDTH_NAME "Normal"
ADD_STYLE_NAME ""
PIXEL_SIZE 19
POINT_SIZE 140
RESOLUTION_X 100
RESOLUTION_Y 100
SPACING "P"
AVERAGE_WIDTH 170
CHARSET_REGISTRY "ISO10646"
CHARSET_ENCODING "1"
FONT_ASCENT 16
FONT_DESCENT 2
COPYRIGHT "Copyright Dave Gandy 2015. All rights reserved."
_OTF_FONTFILE "c:\Users\martin\Dropbox\Code\EEZ\eez-studio\font_tools\fonts\ttf\FontAwesome.otf"
_OTF_PSNAME "FontAwesome"
ENDPROPERTIES
CHARS 629
STARTCHAR 0020
ENCODING 32
SWIDTH 257 0
DWIDTH 5 0
BBX 0 0 0 0
BITMAP
ENDCHAR
STARTCHAR 00A8
ENCODING 168
SWIDTH 977 0
DWIDTH 19 0
BBX 0 0 0 0
BITMAP
ENDCHAR
STARTCHAR 00A9
ENCODING 169
SWIDTH 977 0
DWIDTH 19 0
BBX 0 0 0 0
BITMAP
ENDCHAR
STARTCHAR 00AE
ENCODING 174
SWIDTH 977 0
DWIDTH 19 0
BBX 0 0 0 0
BITMAP
ENDCHAR
STARTCHAR 00B4
ENCODING 180
SWIDTH 977 0
DWIDTH 19 0
BBX 0 0 0 0
BITMAP
ENDCHAR
STARTCHAR 00C6
ENCODING 198
SWIDTH 977 0
DWIDTH 19 0
BBX 0 0 0 0
BITMAP
ENDCHAR
STARTCHAR 00D8
ENCODING 216
SWIDTH 977 0
DWIDTH 19 0
BBX 0 0 0 0
BITMAP
ENDCHAR
STARTCHAR 2122
ENCODING 8482
SWIDTH 977 0
DWIDTH 19 0
BBX 0 0 0 0
BITMAP
ENDCHAR
STARTCHAR 221E
ENCODING 8734
SWIDTH 977 0
DWIDTH 19 0
BBX 0 0 0 0
BITMAP
ENDCHAR
STARTCHAR 2260
ENCODING 8800
SWIDTH 977 0
DWIDTH 19 0
BBX 0 0 0 0
BITMAP
ENDCHAR
STARTCHAR F000
ENCODING 61440
SWIDTH 977 0
DWIDTH 19 0
BBX 17 18 1 -2
BITMAP
FFFF80
7FFF80
3FFF00
1FFE00
0FFC00
07F800
03F000
01E000
01C000
01C000
01C000
01C000
01C000
01C000
01C000
01C000
1FFC00
1FFC00
ENDCHAR
STARTCHAR F001
ENCODING 61441
SWIDTH 874 0
DWIDTH 17 0
BBX 16 18 0 -2
BITMAP
0007
003F
01FF
03FF
03FF
03FF
03F1
0381
0201
0201
0201
021F
023F
023F
7E1E
FE00
7E00
3800
ENDCHAR
STARTCHAR F002
ENCODING 61442
SWIDTH 925 0
DWIDTH 18 0
BBX 18 18 0 -2
BITMAP
0FE000
1FF000
3EF800
783C00
701C00
E00E00
E00E00
E00E00
E00E00
E00E00
701C00
783C00
3FFC00
1FFE00
07C700
000380
0001C0
000080
ENDCHAR
STARTCHAR F003
ENCODING 61443
SWIDTH 977 0
DWIDTH 19 0
BBX 19 15 0 -2
BITMAP
7FFFE0
800020
800020
C00020
C00060
F000E0
9803A0
8C0620
860C20
83B820
80F020
800020
800020
800020
FFFFE0
ENDCHAR
STARTCHAR F004
ENCODING 61444
SWIDTH 977 0
DWIDTH 19 0
BBX 19 16 0 -1
BITMAP
3F1F80
7FBFC0
FFFFE0
FFFFE0
FFFFE0
FFFFE0
FFFFE0
7FFFC0
7FFFC0
3FFF80
1FFF00
0FFE00
07FC00
03F800
01F000
00E000
ENDCHAR
STARTCHAR F005
ENCODING 61445
SWIDTH 925 0
DWIDTH 18 0
BBX 18 17 0 0
BITMAP
00C000
00C000
01E000
01E000
03F000
1FFE00
FFFFC0
7FFF80
3FFF00
1FFE00
0FFC00
0FFC00
0FFC00
0FFC00
0F3C00
1E1E00
180600
ENDCHAR
STARTCHAR F006
ENCODING 61446
SWIDTH 925 0
DWIDTH 18 0
BBX 18 17 0 0
BITMAP
00C000
00C000
01E000
012000
033000
1E1E00
FC0FC0
600180
300300
180600
0C0C00
080400
080400
09E400
0F3C00
1E1E00
180600
ENDCHAR
STARTCHAR F007
ENCODING 61447
SWIDTH 771 0
DWIDTH 15 0
BBX 15 16 0 -1
BITMAP
07C0
0FE0
0FE0
1FF0
1FF0
0FE0
0FE0
17D0
7C7C
7FFC
FFFE
FFFE
FFFE
FFFE
FFFE
7FFC
ENDCHAR
STARTCHAR F008
ENCODING 61448
SWIDTH 1080 0
DWIDTH 21 0
BBX 21 18 0 -2
BITMAP
FFFFF8
880108
880108
880108
F801F8
880108
880108
880108
FFFFF8
CC0198
880108
880108
F801F8
F801F8
880108
880108
FFFFF8
7FFFF0
ENDCHAR
STARTCHAR F009
ENCODING 61449
SWIDTH 925 0
DWIDTH 18 0
BBX 18 15 0 1
BITMAP
FF3FC0
FF3FC0
FF3FC0
FF3FC0
FF3FC0
FF3FC0
7F3F80
000000
FF3FC0
FF3FC0
FF3FC0
FF3FC0
FF3FC0
FF3FC0
FF3FC0
ENDCHAR
STARTCHAR F00A
ENCODING 61450
SWIDTH 977 0
DWIDTH 19 0
BBX 19 15 0 1
BITMAP
F9F3E0
F9F3E0
F9F3E0
F9F3E0
000000
F9F3E0
F9F3E0
F9F3E0
F9F3E0
000000
000000
F9F3E0
F9F3E0
F9F3E0
F9F3E0
ENDCHAR
STARTCHAR F00B
ENCODING 61451
SWIDTH 977 0
DWIDTH 19 0
BBX 19 15 0 1
BITMAP
F9FFE0
F9FFE0
F9FFE0
F9FFE0
000000
F9FFE0
F9FFE0
F9FFE0
F9FFE0
000000
000000
F9FFE0
F9FFE0
F9FFE0
F9FFE0
ENDCHAR
STARTCHAR F00C
ENCODING 61452
SWIDTH 977 0
DWIDTH 19 0
BBX 17 13 1 1
BITMAP
000600
000F00
001F80
003F00
707E00
F8FC00
FDF800
7FF000
3FE000
1FC000
0F8000
070000
020000
ENDCHAR
STARTCHAR F00D
ENCODING 61453
SWIDTH 771 0
DWIDTH 15 0
BBX 13 13 1 0
BITMAP
2020
7070
F8F8
FDF8
7FF0
3FE0
1FC0
1FC0
3FE0
7DF0
F8F8
7070
2020
ENDCHAR
STARTCHAR F00E
ENCODING 61454
SWIDTH 925 0
DWIDTH 18 0
BBX 18 18 0 -2
BITMAP
0FE000
1FF000
3EF800
783C00
711C00
E10E00
E10E00
EFEE00
E10E00
E10E00
711C00
783C00
3FFC00
1FFE00
07C700
000380
0001C0
000080
ENDCHAR
STARTCHAR F010
ENCODING 61456
SWIDTH 925 0
DWIDTH 18 0
BBX 18 18 0 -2
BITMAP
0FE000
1FF000
3EF800
783C00
701C00
E00E00
E00E00
EFEE00
E00E00
E00E00
701C00
783C00
3FFC00
1FFE00
07C700
000380
0001C0
000080
ENDCHAR
STARTCHAR F011
ENCODING 61457
SWIDTH 874 0
DWIDTH 17 0
BBX 17 18 0 -2
BITMAP
008000
01C000
01C000
19CC00
3DDE00
79CE00
71C700
E1C700
E1C380
E1C380
E00380
E00380
E00700
700700
780F00
3E3E00
1FFC00
07F000
ENDCHAR
STARTCHAR F012
ENCODING 61458
SWIDTH 977 0
DWIDTH 19 0
BBX 20 16 0 -1
BITMAP
000070
000070
000070
000070
000070
000E70
000E70
000E70
000E70
00EE70
00EE70
00EE70
0EEE70
0EEE70
EEEE70
EEEE70
ENDCHAR
STARTCHAR F013
ENCODING 61459
SWIDTH 874 0
DWIDTH 17 0
BBX 17 16 0 -1
BITMAP
01C000
11C400
3FFE00
3FFE00
3FFE00
1E3C00
FC1F80
FC1F80
FC1F80
FC1F80
1E3C00
3FFE00
3FFE00
3FFE00
11C400
01C000
ENDCHAR
STARTCHAR F014
ENCODING 61460
SWIDTH 771 0
DWIDTH 15 0
BBX 15 16 0 -1
BITMAP
0FE0
0820
FFFE
FFFE
4004
4004
4924
4924
4924
4924
4924
4924
4924
4004
4004
7FFC
ENDCHAR
STARTCHAR F015
ENCODING 61461
SWIDTH 925 0
DWIDTH 18 0
BBX 17 14 0 1
BITMAP
00CE00
03EE00
077E00
0E9E00
1DEE00
33F700
EFFB80
DFFD80
3FFE00
3FFE00
3E3E00
3E3E00
3E3E00
3E3E00
ENDCHAR
STARTCHAR F016
ENCODING 61462
SWIDTH 874 0
DWIDTH 17 0
BBX 16 20 0 -3
BITMAP
FFE0
FFF8
802C
8026
8023
8021
803F
8001
8001
8001
8001
8001
8001
8001
8001
8001
8001
8001
FFFF
FFFF
ENDCHAR
STARTCHAR F017
ENCODING 61463
SWIDTH 874 0
DWIDTH 17 0
BBX 16 16 0 -1
BITMAP
07E0
1FF8
3C3C
700E
6086
E087
C083
C083
C783
C003
E007
6006
700E
3C3C
1FF8
0FF0
ENDCHAR
STARTCHAR F018
ENCODING 61464
SWIDTH 1080 0
DWIDTH 21 0
BBX 20 14 1 0
BITMAP
079E00
0F9F00
0F9F00
0FFF00
1F9F80
1F9F80
3F0FC0
3F0FC0
3FFFC0
7FFFE0
7FFFE0
FF0FF0
FF0FF0
FF0FF0
ENDCHAR
STARTCHAR F019
ENCODING 61465
SWIDTH 925 0
DWIDTH 18 0
BBX 18 17 0 0
BITMAP
01E000
01E000
01E000
01E000
01E000
01E000
1FFE00
0FFC00
07F800
03F000
01E000
7CCF80
FE1FC0
FFFFC0
FFFA40
FFFEC0
FFFFC0
ENDCHAR
STARTCHAR F01A
ENCODING 61466
SWIDTH 874 0
DWIDTH 17 0
BBX 16 16 0 -1
BITMAP
07F0
1FF8
3C3C
700E
61C6
E1C7
C1C3
C1C3
CFF3
C7E3
E3C3
6086
700E
3C1C
1FF8
07F0
ENDCHAR
STARTCHAR F01B
ENCODING 61467
SWIDTH 874 0
DWIDTH 17 0
BBX 16 16 0 -1
BITMAP
07F0
1FF8
3C3C
700E
6086
E1C7
C3E3
CFF3
C1C3
C1C3
E1C3
61C6
700E
3C1C
1FF8
07F0
ENDCHAR
STARTCHAR F01C
ENCODING 61468
SWIDTH 874 0
DWIDTH 17 0
BBX 17 14 0 0
BITMAP
1FFC00
1FFC00
300600
300600
700700
600300
E00380
C00180
FC1F80
FE3F80
FFFF80
FFFF80
FFFF80
FFFF80
ENDCHAR
STARTCHAR F01D
ENCODING 61469
SWIDTH 874 0
DWIDTH 17 0
BBX 16 16 0 -1
BITMAP
07E0
1FF8
3C3C
700E
6606
E787
C7E3
C7F3
C7F3
C7E3
E787
6606
700E
3C3C
1FF8
0FF0
ENDCHAR
STARTCHAR F01E
ENCODING 61470
SWIDTH 874 0
DWIDTH 17 0
BBX 17 16 0 -1
BITMAP
07F000
1FFD80
3FFF80
780F80
700F80
E01F80
E01F00
E00000
E00000
E00000
E00000
700000
780C00
3E3E00
1FFC00
07F000
ENDCHAR
STARTCHAR F021
ENCODING 61473
SWIDTH 874 0
DWIDTH 17 0
BBX 17 16 0 -1
BITMAP
07F080
1FFD80
3FFF80
780F80
700F80
E01F80
E01F80
000000
000000
FC0380
FC0380
F80700
F80F00
FE3E00
DFFC00
87F000
ENDCHAR
STARTCHAR F022
ENCODING 61474
SWIDTH 977 0
DWIDTH 19 0
BBX 19 15 0 1
BITMAP
FFFFE0
FFFFE0
FFFFE0
FFFFE0
800020
97FFA0
97FFA0
800020
97FFA0
800020
800020
97FFA0
800020
800020
FFFFE0
ENDCHAR
STARTCHAR F023
ENCODING 61475
SWIDTH 668 0
DWIDTH 13 0
BBX 12 15 0 1
BITMAP
1F80
3FC0
70E0
6060
6060
6060
6060
FFF0
FFF0
FFF0
FFF0
FFF0
FFF0
FFF0
FFF0
ENDCHAR
STARTCHAR F024
ENCODING 61476
SWIDTH 977 0
DWIDTH 19 0
BBX 19 16 0 -1
BITMAP
E00000
E3E060
4FF9E0
5FFFE0
5FFFE0
5FFFE0
5FFFE0
5FFFE0
5FFFE0
5FFFE0
5FFFE0
580F80
400000
400000
400000
400000
ENDCHAR
STARTCHAR F025
ENCODING 61477
SWIDTH 925 0
DWIDTH 18 0
BBX 18 15 0 1
BITMAP
07F800
1FFE00
3C0F00
700380
600180
E001C0
C000C0
C000C0
C210C0
CE1CC0
FE1FC0
7E1F80
1E1E00
0E1C00
021000
ENDCHAR
STARTCHAR F026
ENCODING 61478
SWIDTH 411 0
DWIDTH 8 0
BBX 8 13 0 1
BITMAP
03
07
0F
FF
FF
FF
FF
FF
FF
0F
07
03
01
ENDCHAR
STARTCHAR F027
ENCODING 61479
SWIDTH 668 0
DWIDTH 13 0
BBX 12 14 0 0
BITMAP
0100
0300
0700
0F00
FF20
FF30
FF10
FF10
FF30
FF20
0F00
0700
0300
0100
ENDCHAR
STARTCHAR F028
ENCODING 61480
SWIDTH 925 0
DWIDTH 18 0
BBX 18 16 0 -1
BITMAP
000800
000E00
030300
071980
0F0C80
FF04C0
FF3240
FF1240
FF1240
FF3240
FF24C0
0F0C80
071980
030300
010E00
000800
ENDCHAR
STARTCHAR F029
ENCODING 61481
SWIDTH 771 0
DWIDTH 15 0
BBX 15 15 0 1
BITMAP
FEFE
8282
9292
9292
8282
FEFE
FEFE
0000
FEF2
82FE
82FE
929E
8280
8280
FE92
ENDCHAR
STARTCHAR F02A
ENCODING 61482
SWIDTH 977 0
DWIDTH 19 0
BBX 20 15 0 1
BITMAP
845B50
D75B50
D75B50
D75B50
D75B50
D75B50
D75B50
D75B50
D75B50
D75B50
D75B50
D75B50
D75B50
D75B50
845B50
ENDCHAR
STARTCHAR F02B
ENCODING 61483
SWIDTH 874 0
DWIDTH 17 0
BBX 16 16 0 -1
BITMAP
FF00
FF80
C7C0
C7E0
EFF0
FFF8
FFFC
7FFE
7FFF
3FFF
1FFF
0FFE
07FC
03F8
01F0
00E0
ENDCHAR
STARTCHAR F02C
ENCODING 61484
SWIDTH 1080 0
DWIDTH 21 0
BBX 21 16 0 -1
BITMAP
FF7000
FF9800
C7CC00
C7E600
EFF300
FFF980
FFFCC0
7FFE60
7FFF30
3FFF38
1FFF30
0FFE60
07FCC0
03F980
01F300
00E600
ENDCHAR
STARTCHAR F02D
ENCODING 61485
SWIDTH 925 0
DWIDTH 18 0
BBX 18 16 0 -1
BITMAP
07FF00
0FFF00
0E0700
1C0740
1FFE40
3C06C0
380E80
3FFC80
7FFD80
7FFD00
7FF900
FFF900
FFFB00
FFF200
800200
7FFC00
ENDCHAR
STARTCHAR F02E
ENCODING 61486
SWIDTH 720 0
DWIDTH 14 0
BBX 14 16 0 -1
BITMAP
FFFC
FFFC
FFFC
FFFC
FFFC
FFFC
FFFC
FFFC
FFFC
FFFC
FFFC
FFFC
FCFC
F87C
F03C
C00C
ENDCHAR
STARTCHAR F02F
ENCODING 61487
SWIDTH 925 0
DWIDTH 18 0
BBX 18 16 0 -1
BITMAP
1FF800
101C00
101E00
101E00
100200
100200
100200
F003C0
FFFE40
FFFFC0
FFFFC0
FFFFC0
F003C0
F003C0
100200
1FFE00
ENDCHAR
STARTCHAR F030
ENCODING 61488
SWIDTH 1080 0
DWIDTH 21 0
BBX 21 18 0 -2
BITMAP
01FC00
03FE00
07FF00
7FFFF0
FFFFF8
FFFFF8
FF07F8
FE03F8
FCF9F8
FCF9F8
FDFDF8
FDFDF8
FCF9F8
FC71F8
FE03F8
FF8FF8
FFFFF8
7FFFF0
ENDCHAR
STARTCHAR F031
ENCODING 61489
SWIDTH 925 0
DWIDTH 18 0
BBX 18 17 0 -2
BITMAP
00C000
00C000
01C000
01E000
01E000
03F000
02F000
067800
067800
043800
0FFC00
083C00
081E00
181E00
100E00
300F00
FC3FC0
ENDCHAR
STARTCHAR F032
ENCODING 61490
SWIDTH 771 0
DWIDTH 15 0
BBX 16 16 0 -1
BITMAP
FFF8
383C
381E
381E
381E
383C
38F8
3FF8
381E
380F
380F
380F
380F
381E
383C
FFF0
ENDCHAR
STARTCHAR F033
ENCODING 61491
SWIDTH 565 0
DWIDTH 11 0
BBX 11 16 0 -1
BITMAP
1FE0
0700
0700
0700
0700
0F00
0E00
0E00
0E00
0E00
1E00
1C00
1C00
1C00
3C00
FF00
ENDCHAR
STARTCHAR F034
ENCODING 61492
SWIDTH 977 0
DWIDTH 19 0
BBX 19 16 0 -1
BITMAP
FFFC40
C70CE0
870C40
870440
070440
070040
070040
070040
070040
070040
070040
070040
070040
070040
0700E0
1FE040
ENDCHAR
STARTCHAR F035
ENCODING 61493
SWIDTH 874 0
DWIDTH 17 0
BBX 17 18 0 -2
BITMAP
FFFF80
F1C180
81C180
81C180
01C080
01C000
01C000
01C000
01C000
01C000
01C000
01C000
07F000
0C3800
600300
FFFF80
600300
200200
ENDCHAR
STARTCHAR F036
ENCODING 61494
SWIDTH 977 0
DWIDTH 19 0
BBX 19 15 0 1
BITMAP
FFFC00
FFFC00
000000
000000
FFFFC0
FFFFC0
FFFF80
000000
FFFE00
FFFE00
FFFE00
000000
FFFFE0
FFFFE0
FFFFE0
ENDCHAR
STARTCHAR F037
ENCODING 61495
SWIDTH 977 0
DWIDTH 19 0
BBX 19 15 0 1
BITMAP
07FC00
07FC00
000000
000000
7FFFC0
7FFFC0
3FFF80
000000
0FFE00
0FFE00
0FFE00
000000
FFFFE0
FFFFE0
FFFFE0
ENDCHAR
STARTCHAR F038
ENCODING 61496
SWIDTH 977 0
DWIDTH 19 0
BBX 19 15 0 1
BITMAP
07FFE0
07FFE0
000000
000000
7FFFE0
7FFFE0
3FFFE0
000000
0FFFE0
0FFFE0
0FFFE0
000000
FFFFE0
FFFFE0
FFFFE0
ENDCHAR
STARTCHAR F039
ENCODING 61497
SWIDTH 977 0
DWIDTH 19 0
BBX 19 15 0 1
BITMAP
FFFFE0
FFFFE0
000000
000000
FFFFE0
FFFFE0
FFFFE0
000000
FFFFE0
FFFFE0
FFFFE0
000000
FFFFE0
FFFFE0
FFFFE0
ENDCHAR
STARTCHAR F03A
ENCODING 61498
SWIDTH 977 0
DWIDTH 19 0
BBX 20 15 0 1
BITMAP
EFFFF0
EFFFF0
000000
000000
EFFFF0
EFFFF0
EFFFE0
000000
EFFFF0
EFFFF0
EFFFE0
000000
EFFFE0
EFFFF0
EFFFF0
ENDCHAR
STARTCHAR F03B
ENCODING 61499
SWIDTH 977 0
DWIDTH 19 0
BBX 19 15 0 1
BITMAP
FFFFE0
FFFFE0
000000
000000
11FFE0
31FFE0
71FFE0
F00000
71FFE0
31FFE0
11FFE0
000000
FFFFE0
FFFFE0
FFFFE0
ENDCHAR
STARTCHAR F03C
ENCODING 61500
SWIDTH 977 0
DWIDTH 19 0
BBX 19 15 0 1
BITMAP
FFFFE0
FFFFE0
000000
000000
81FFE0
C1FFE0
E1FFE0
F00000
E1FFE0
C1FFE0
81FFE0
000000
FFFFE0
FFFFE0
FFFFE0
ENDCHAR
STARTCHAR F03D
ENCODING 61501
SWIDTH 977 0
DWIDTH 19 0
BBX 19 14 0 0
BITMAP
3FF020
7FF860
FFF8E0
FFFDE0
FFFFE0
FFFFE0
FFFFE0
FFFFE0
FFFFE0
FFFFE0
FFFDE0
FFFCE0
FFF860
7FF020
ENDCHAR
STARTCHAR F03E
ENCODING 61502
SWIDTH 1080 0
DWIDTH 21 0
BBX 21 16 0 -1
BITMAP
FFFFF8
800008
800008
9E0008
9E0408
9E0E08
8C1F08
803F88
827FC8
87FFC8
8FFFC8
9FFFC8
9FFFC8
9FFFC8
800008
FFFFF8
ENDCHAR
STARTCHAR F040
ENCODING 61504
SWIDTH 874 0
DWIDTH 17 0
BBX 16 16 0 -1
BITMAP
0018
003C
003E
009F
01CF
0366
06F0
0DF8
1BF0
37E0
6FC0
FF80
9F00
8E00
EC00
F800
ENDCHAR
STARTCHAR F041
ENCODING 61505
SWIDTH 565 0
DWIDTH 11 0
BBX 11 16 0 -1
BITMAP
1F00
7FC0
7FC0
E0E0
E0E0
E0E0
E0E0
F1E0
7FC0
7FC0
3F80
3F80
1F00
1F00
0E00
0E00
ENDCHAR
STARTCHAR F042
ENCODING 61506
SWIDTH 874 0
DWIDTH 17 0
BBX 16 16 0 -1
BITMAP
07F0
1FF8
3CFC
70FE
60FF
E0FF
C0FF
C0FF
C0FF
C0FF
E0FF
60FF
70FE
3CFC
1FF8
0FF0
ENDCHAR
STARTCHAR F043
ENCODING 61507
SWIDTH 565 0
DWIDTH 11 0
BBX 11 16 0 0
BITMAP
0400
0E00
0E00
1F00
1F00
3F80
3F80
7FC0
FFE0
FFE0
E7E0
E3E0
E7E0
7FC0
3F80
1F00
ENDCHAR
STARTCHAR F044
ENCODING 61508
SWIDTH 977 0
DWIDTH 19 0
BBX 19 15 0 1
BITMAP
7FFDC0
C001E0
8006E0
800F60
801B80
801780
802F00
805E00
80BC00
811800
81B200
81E200
800200
C00600
7FFC00
ENDCHAR
STARTCHAR F045
ENCODING 61509
SWIDTH 925 0
DWIDTH 18 0
BBX 18 17 0 0
BITMAP
000400
000E00
7C0F00
C1FF80
87FFC0
8FFFC0
9FFF80
9F0F00
9C0E00
9C0C00
980000
980200
880200
880200
800200
E00600
7FFC00
ENDCHAR
STARTCHAR F046
ENCODING 61510
SWIDTH 925 0
DWIDTH 18 0
BBX 18 15 0 1
BITMAP
7FFC00
C00380
8007C0
800F80
801F00
8C3E00
9E7C00
9FF800
8FF200
87E200
83C200
818200
800200
C00600
7FFC00
ENDCHAR
STARTCHAR F047
ENCODING 61511
SWIDTH 977 0
DWIDTH 19 0
BBX 19 20 0 -3
BITMAP
004000
00E000
01F000
03F800
00F000
00E000
00E000
30E180
70E1C0
FFFFE0
FFFFE0
70E1C0
30E180
00E000
00E000
00E000
03F800
01F000
00E000
004000
ENDCHAR
STARTCHAR F048
ENCODING 61512
SWIDTH 565 0
DWIDTH 11 0
BBX 11 16 0 -1
BITMAP
E020
E060
E0E0
E1E0
E3E0
E7E0
EFE0
FFE0
FFE0
EFE0
E7E0
E3E0
E1E0
E0E0
E060
E020
ENDCHAR
STARTCHAR F049
ENCODING 61513
SWIDTH 977 0
DWIDTH 19 0
BBX 20 16 0 -1
BITMAP
E02030
E06070
E0E0F0
E1E1F0
E3E3F0
E7E7F0
EFEFF0
FFFFF0
FFFFF0
EFEFF0
E7E7F0
E3E3F0
E1E1F0
E0E0F0
E06070
E02030
ENDCHAR
STARTCHAR F04A
ENCODING 61514
SWIDTH 925 0
DWIDTH 18 0
BBX 17 16 1 -1
BITMAP
018080
038180
078380
0F8780
1F8F80
3F9F80
7FBF80
FFFF80
FFFF80
7FBF80
3F9F80
1F8F80
0F8780
078380
038180
018080
ENDCHAR
STARTCHAR F04B
ENCODING 61515
SWIDTH 771 0
DWIDTH 15 0
BBX 14 16 0 -1
BITMAP
C000
F000
F800
FE00
FF80
FFE0
FFF8
FFFC
FFFC
FFF8
FFE0
FF80
FE00
FC00
F000
C000
ENDCHAR
STARTCHAR F04C
ENCODING 61516
SWIDTH 874 0
DWIDTH 17 0
BBX 17 16 0 -1
BITMAP
FE3F80
FE3F80
FE3F80
FE3F80
FE3F80
FE3F80
FE3F80
FE3F80
FE3F80
FE3F80
FE3F80
FE3F80
FE3F80
FE3F80
FE3F80
FE3F80
ENDCHAR
STARTCHAR F04D
ENCODING 61517
SWIDTH 874 0
DWIDTH 17 0
BBX 17 16 0 -1
BITMAP
FFFF80
FFFF80
FFFF80
FFFF80
FFFF80
FFFF80
FFFF80
FFFF80
FFFF80
FFFF80
FFFF80
FFFF80
FFFF80
FFFF80
FFFF80
FFFF80
ENDCHAR
STARTCHAR F04E
ENCODING 61518
SWIDTH 925 0
DWIDTH 18 0
BBX 17 16 0 -1
BITMAP
80C000
C0E000
E0F000
F0F800
F8FC00
FCFE00
FEFF00
FFFF80
FFFF80
FEFF00
FCFE00
F8FC00
F0F800
E0F000
C0E000
80C000
ENDCHAR
STARTCHAR F050
ENCODING 61520
SWIDTH 977 0
DWIDTH 19 0
BBX 20 16 0 -1
BITMAP
804070
C06070
E07070
F07870
F87C70
FC7E70
FE7F70
FF7FF0
FFFFF0
FF7F70
FE7E70
FC7C70
F87870
F07070
E06070
C04070
ENDCHAR
STARTCHAR F051
ENCODING 61521
SWIDTH 565 0
DWIDTH 11 0
BBX 11 16 0 -1
BITMAP
80E0
C0E0
E0E0
F0E0
F8E0
FCE0
FEE0
FFE0
FFE0
FEE0
FCE0
F8E0
F0E0
E0E0
C0E0
80E0
ENDCHAR
STARTCHAR F052
ENCODING 61522
SWIDTH 874 0
DWIDTH 17 0
BBX 17 14 0 1
BITMAP
008000
01C000
03E000
07F000
0FF800
1FFC00
3FFE00
7FFF00
000000
000000
FFFF80
FFFF80
FFFF80
FFFF80
ENDCHAR
STARTCHAR F053
ENCODING 61523
SWIDTH 720 0
DWIDTH 14 0
BBX 11 17 2 -1
BITMAP
01C0
03E0
07E0
0FC0
0F80
1F00
3E00
7C00
F800
7C00
3E00
1F00
0F80
07C0
03E0
01C0
0080
ENDCHAR
STARTCHAR F054
ENCODING 61524
SWIDTH 720 0
DWIDTH 14 0
BBX 11 17 1 -1
BITMAP
7000
F800
FC00
7E00
3E00
1F00
0F80
07C0
03E0
07C0
0F80
1F00
3E00
7C00
F800
7000
2000
ENDCHAR
STARTCHAR F055
ENCODING 61525
SWIDTH 874 0
DWIDTH 17 0
BBX 16 16 0 -1
BITMAP
07E0
1FF8
3FFC
7E7E
7E7E
FE7F
FE7F
E007
E007
FE7F
FE7F
7E7E
7E7E
3FFC
1FF8
0FF0
ENDCHAR
STARTCHAR F056
ENCODING 61526
SWIDTH 874 0
DWIDTH 17 0
BBX 16 16 0 -1
BITMAP
07E0
1FF8
3FFC
7FFE
7FFE
FFFF
FFFF
E007
E007
FFFF
FFFF
7FFE
7FFE
3FFC
1FF8
0FF0
ENDCHAR
STARTCHAR F057
ENCODING 61527
SWIDTH 874 0
DWIDTH 17 0
BBX 17 16 0 -1
BITMAP
07F000
1FFC00
3FFE00
7FFF00
79CF00
F08780
F80F80
FC1F80
FC1F80
F80F80
F08780
79CF00
7FFF00
3FFE00
1FFC00
07F000
ENDCHAR
STARTCHAR F058
ENCODING 61528
SWIDTH 874 0
DWIDTH 17 0
BBX 17 16 0 -1
BITMAP
07F000
1FFC00
3FFE00
7FFF00
7FFF00
FFE380
FFC380
E38780
E10F80
F01F80
F83F80
7C7F00
7EFF00
3FFE00
1FFC00
07F000
ENDCHAR
STARTCHAR F059
ENCODING 61529
SWIDTH 874 0
DWIDTH 17 0
BBX 17 16 0 -1
BITMAP
07F000
1FFC00
3FFE00
7C1F00
780F00
F9C780
FFC780
FF0F80
FE1F80
FE3F80
FFFF80
7E3F00
7E3F00
3E3E00
1FFC00
07F000
ENDCHAR
STARTCHAR F05A
ENCODING 61530
SWIDTH 874 0
DWIDTH 17 0
BBX 17 16 0 -1
BITMAP
07F000
1E3C00
3E3E00
7E3F00
7FFF00
FC3F80
FC3F80
FC3F80
FE3F80
FE3F80
FE3F80
7C1F00
7C1F00
3C1E00
1FFC00
07F000
ENDCHAR
STARTCHAR F05B
ENCODING 61531
SWIDTH 874 0
DWIDTH 17 0
BBX 17 16 0 -1
BITMAP
01C000
01C000
03E000
0FF800
19CC00
100400
300600
FC1F80
FC1F80
300600
100400
19CC00
0DF800
07F000
01C000
01C000
ENDCHAR
STARTCHAR F05C
ENCODING 61532
SWIDTH 874 0
DWIDTH 17 0
BBX 16 16 0 -1
BITMAP
07E0
1FF8
3C3C
700E
6206
E767
CFF3
C7E3
C3E3
C7F3
E7E7
6246
700E
3C3C
1FF8
0FF0
ENDCHAR
STARTCHAR F05D
ENCODING 61533
SWIDTH 874 0
DWIDTH 17 0
BBX 16 16 0 -1
BITMAP
07E0
1FF8
3C3C
700E
6006
E037
C47B
CEF3
CFE3
C7C3
E387
6106
700E
3C3C
1FF8
0FF0
ENDCHAR
STARTCHAR F05E
ENCODING 61534
SWIDTH 874 0
DWIDTH 17 0
BBX 16 16 0 -1
BITMAP
07F0
1FF8
3C3C
701E
603E
E077
C0E3
C1C3
C383
C703
EE07
7C06
780E
3C3C
1FF8
0FF0
ENDCHAR
STARTCHAR F060
ENCODING 61536
SWIDTH 874 0
DWIDTH 17 0
BBX 16 17 1 -3
BITMAP
0080
01C0
03E0
07C0
0F80
1F00
3E00
7FFF
FFFF
FFFF
7FFF
3F00
1F80
0FC0
07E0
03E0
01C0
ENDCHAR
STARTCHAR F061
ENCODING 61537
SWIDTH 874 0
DWIDTH 17 0
BBX 16 17 0 -3
BITMAP
0100
0380
07C0
03E0
01F0
00F8
007C
FFFE
FFFF
FFFF
FFFE
00FC
01F8
03F0
07E0
07C0
0380
ENDCHAR
STARTCHAR F062
ENCODING 61538
SWIDTH 925 0
DWIDTH 18 0
BBX 17 16 1 -2
BITMAP
008000
01C000
03E000
07F000
0FF800
1FFC00
3FFE00
7FFF00
FBEF80
F3E780
63E300
03E000
03E000
03E000
03E000
03E000
ENDCHAR
STARTCHAR F063
ENCODING 61539
SWIDTH 925 0
DWIDTH 18 0
BBX 17 16 1 0
BITMAP
01C000
03E000
03E000
03E000
03E000
63E300
F3E780
FBEF80
7FFF00
3FFE00
1FFC00
0FF800
07F000
03E000
01C000
008000
ENDCHAR
STARTCHAR F064
ENCODING 61540
SWIDTH 977 0
DWIDTH 19 0
BBX 19 17 0 -2
BITMAP
000C00
000E00
000F00
003F80
0FFFC0
3FFFE0
7FFFE0
7FFFC0
FFFF80
FC0F00
F00E00
E00C00
E00000
C00000
400000
400000
400000
ENDCHAR
STARTCHAR F065
ENCODING 61541
SWIDTH 874 0
DWIDTH 17 0
BBX 17 16 0 -1
BITMAP
001F80
001F80
000F80
001F80
003D80
007880
007000
002000
020000
070000
8F0000
DE0000
FC0000
F80000
F80000
FC0000
ENDCHAR
STARTCHAR F066
ENCODING 61542
SWIDTH 874 0
DWIDTH 17 0
BBX 16 16 0 -1
BITMAP
0002
0007
00CE
00FC
00F8
00F8
00FC
00FC
3F00
3F00
1F00
1F00
3F00
7300
E000
4000
ENDCHAR
STARTCHAR F067
ENCODING 61543
SWIDTH 771 0
DWIDTH 15 0
BBX 15 15 0 1
BITMAP
07C0
07C0
07C0
07C0
07C0
FFFE
FFFE
FFFE
FFFE
07C0
07C0
07C0
07C0
07C0
0380
ENDCHAR
STARTCHAR F068
ENCODING 61544
SWIDTH 771 0
DWIDTH 15 0
BBX 15 4 0 5
BITMAP
FFFE
FFFE
FFFE
FFFE
ENDCHAR
STARTCHAR F069
ENCODING 61545
SWIDTH 925 0
DWIDTH 18 0
BBX 15 16 1 -1
BITMAP
0380
07C0
07C0
77DC
FFFE
FFFE
7FFC
1FF0
1FF0
7FFC
FFFE
FFFE
77DC
07C0
07C0
0380
ENDCHAR
STARTCHAR F06A
ENCODING 61546
SWIDTH 874 0
DWIDTH 17 0
BBX 17 16 0 -1
BITMAP
07F000
1FFC00
3E3E00
7E3F00
7E3F00
FE3F80
FE3F80
FE3F80
FE3F80
FE3F80
FFFF80
7E3F00
7E3F00
3E3E00
1FFC00
07F000
ENDCHAR
STARTCHAR F06B
ENCODING 61547
SWIDTH 874 0
DWIDTH 17 0
BBX 17 15 0 0
BITMAP
041000
1E7C00
13C400
11CC00
1FF800
FC3F80
FC3F80
FC3F80
FC3F80
3C3E00
3C3E00
3C3E00
3C3E00
3C3E00
3FFE00
ENDCHAR
STARTCHAR F06C
ENCODING 61548
SWIDTH 977 0
DWIDTH 19 0
BBX 19 15 0 1
BITMAP
0000C0
0003E0
03FFE0
07FFE0
0FFFE0
1FE7E0
3F07E0
3C7FC0
39FFC0
33FF80
37FF00
3FFE00
7FFC00
E7F000
C00000
ENDCHAR
STARTCHAR F06D
ENCODING 61549
SWIDTH 771 0
DWIDTH 15 0
BBX 15 19 0 -2
BITMAP
0180
01C0
01E0
01F0
03F0
0FF0
0FF0
1FF0
1FF0
1FE0
1FC0
1F80
0F00
0F00
0300
0100
0000
FFFE
FFFE
ENDCHAR
STARTCHAR F06E
ENCODING 61550
SWIDTH 977 0
DWIDTH 19 0
BBX 19 13 0 0
BITMAP
004000
07FC00
1F3F00
36FF80
65FCC0
C5FC40
C7FC60
C7FC60
63F8C0
31F180
180300
0F1E00
03F000
ENDCHAR
STARTCHAR F070
ENCODING 61552
SWIDTH 977 0
DWIDTH 19 0
BBX 19 14 0 -1
BITMAP
005C00
07F800
1F3800
36F180
65F0C0
45E440
C7C460
C7CC60
6388C0
339180
1B0300
0F1E00
063000
060000
ENDCHAR
STARTCHAR F071
ENCODING 61553
SWIDTH 977 0
DWIDTH 19 0
BBX 19 18 0 -2
BITMAP
004000
00E000
00E000
01F000
01F000
03F800
071C00
071C00
0F1E00
0F1E00
1F1F00
1FFF00
3FFF80
3F1F80
7F1FC0
7F1FC0
FFFFE0
FFFFE0
ENDCHAR
STARTCHAR F072
ENCODING 61554
SWIDTH 771 0
DWIDTH 15 0
BBX 15 15 0 1
BITMAP
000E
301E
7F3E
3FFC
1FF8
07F0
03F0
07F0
4FF8
FF78
7E38
3C38
1C1C
0C18
0400
ENDCHAR
STARTCHAR F073
ENCODING 61555
SWIDTH 925 0
DWIDTH 18 0
BBX 18 20 0 -3
BITMAP
0C0C00
1E1E00
121200
F3F3C0
F3F3C0
F7FBC0
FFFFC0
884440
884440
884440
FFFFC0
884440
884440
884440
884440
FFFFC0
884440
884440
FFFFC0
FFFFC0
ENDCHAR
STARTCHAR F074
ENCODING 61556
SWIDTH 977 0
DWIDTH 19 0
BBX 19 17 0 -1
BITMAP
000100
000180
F83FC0
FC7FE0
FEFFC0
0FE180
05C100
038000
038000
070000
074100
0EE180
FEFFC0
FC7FE0
F01FC0
000180
000100
ENDCHAR
STARTCHAR F075
ENCODING 61557
SWIDTH 977 0
DWIDTH 19 0
BBX 19 17 0 -3
BITMAP
03F800
0FFE00
3FFF80
7FFFC0
7FFFC0
FFFFE0
FFFFE0
FFFFE0
FFFFE0
7FFFC0
7FFFC0
3FFF80
0FFE00
1FF800
1E0000
3C0000
600000
ENDCHAR
STARTCHAR F076
ENCODING 61558
SWIDTH 874 0
DWIDTH 17 0
BBX 17 16 0 -1
BITMAP
FC1F80
FC1F80
FC1F80
FC1F80
FC1F80
000000
000000
FC1F80
FC1F80
FC1F80
FE3F80
7FFF00
7FFF00
3FFE00
1FFC00
0FF800
ENDCHAR
STARTCHAR F077
ENCODING 61559
SWIDTH 977 0
DWIDTH 19 0
BBX 17 11 1 1
BITMAP
01C000
03E000
07F000
0FF800
1FFC00
3F7E00
3E3E00
7C1F00
F80F80
700700
200200
ENDCHAR
STARTCHAR F078
ENCODING 61560
SWIDTH 977 0
DWIDTH 19 0
BBX 17 11 1 -1
BITMAP
200200
700700
F80F80
7C1F00
3E3E00
1F7C00
0FF800
07F000
07F000
03E000
01C000
ENDCHAR
STARTCHAR F079
ENCODING 61561
SWIDTH 1080 0
DWIDTH 21 0
BBX 21 13 0 0
BITMAP
01FFC0
1CFFC0
3CFFC0
3E01C0
7F01C0
FF01C0
1C01C0
1C07F0
1C07F8
1C07F0
1FF3E0
1FF9C0
1FFC80
ENDCHAR
STARTCHAR F07A
ENCODING 61562
SWIDTH 925 0
DWIDTH 18 0
BBX 18 15 0 -2
BITMAP
F00000
100000
1FFFC0
1FFFC0
0FFFC0
0FFFC0
0FFFC0
0FFFC0
0FFF80
070000
040000
0FFF00
0FFF00
0E0380
0E0380
ENDCHAR
STARTCHAR F07B
ENCODING 61563
SWIDTH 925 0
DWIDTH 18 0
BBX 18 15 0 1
BITMAP
7F0000
FF0000
FFFF00
FFFFC0
FFFFC0
FFFFC0
FFFFC0
FFFFC0
FFFFC0
FFFFC0
FFFFC0
FFFFC0
FFFFC0
FFFFC0
7FFF80
ENDCHAR
STARTCHAR F07C
ENCODING 61564
SWIDTH 1080 0
DWIDTH 21 0
BBX 20 15 0 1
BITMAP
7F0000
FF0000
FFFC00
FFFF00
FFFF00
FFFF00
FFFF00
F80000
F3FFF0
E7FFF0
CFFFE0
9FFFC0
3FFF80
7FFF00
7FFE00
ENDCHAR
STARTCHAR F07D
ENCODING 61565
SWIDTH 411 0
DWIDTH 8 0
BBX 7 20 1 -3
BITMAP
10
38
7C
FE
3C
38
38
38
38
38
38
38
38
38
38
38
FE
7C
38
10
ENDCHAR
STARTCHAR F07E
ENCODING 61566
SWIDTH 977 0
DWIDTH 19 0
BBX 19 7 0 4
BITMAP
300180
7001C0
FFFFE0
FFFFE0
7001C0
300180
100100
ENDCHAR
STARTCHAR F080
ENCODING 61568
SWIDTH 1131 0
DWIDTH 22 0
BBX 23 16 0 -1
BITMAP
800000
800070
80E070
80E070
80E070
80EE70
80EE70
80EE70
8EEE70
8EEE70
8EEE70
8EEE70
8EEE70
8EEE70
800000
FFFFFE
ENDCHAR
STARTCHAR F081
ENCODING 61569
SWIDTH 874 0
DWIDTH 17 0
BBX 16 16 0 -1
BITMAP
7FFE
FFFF
FFFF
FFFF
FF87
E707
E107
E00F
E00F
F00F
F81F
F83F
F0FF
FFFF
FFFF
7FFE
ENDCHAR
STARTCHAR F082
ENCODING 61570
SWIDTH 874 0
DWIDTH 17 0
BBX 17 16 0 -1
BITMAP
7FFF00
FFFF80
FFE380
FF8380
FF8380
FF8F80
FF8F80
FE0380
FE0380
FE0380
FF8F80
FF8F80
FF8F80
FF8F80
FF8F80
7F8F00
ENDCHAR
STARTCHAR F083
ENCODING 61571
SWIDTH 977 0
DWIDTH 19 0
BBX 19 16 0 -1
BITMAP
FFFFE0
E18020
FF8020
800020
FFFFE0
FE0FE0
FCE7E0
FDB3E0
FD7BE0
FDF3E0
FCF3E0
FE47E0
FF0FE0
FFFFE0
800020
FFFFE0
ENDCHAR
STARTCHAR F084
ENCODING 61572
SWIDTH 977 0
DWIDTH 19 0
BBX 18 17 0 -1
BITMAP
0FC000
1FC000
38E000
786000
F86000
C0E000
C3C000
C3C000
E7C200
7FE300
3C7180
003BC0
001E00
000E00
000700
000380
000180
ENDCHAR
STARTCHAR F085
ENCODING 61573
SWIDTH 1080 0
DWIDTH 21 0
BBX 21 18 0 -2
BITMAP
000360
0003E0
070670
272E38
7FF670
7FF3E0
38E360
707000
F07C00
F07C00
707800
38E360
7FF3E0
7FF360
272E38
070E70
0003E0
000360
ENDCHAR
STARTCHAR F086
ENCODING 61574
SWIDTH 977 0
DWIDTH 19 0
BBX 19 15 0 -2
BITMAP
07C000
1FF000
7FFC00
7FFC00
FFFE80
FFFEC0
FFFEE0
FFFEE0
7FFCE0
3FF9E0
1FE3C0
380FC0
407F80
01FF80
000180
ENDCHAR
STARTCHAR F087
ENCODING 61575
SWIDTH 874 0
DWIDTH 17 0
BBX 17 18 0 -2
BITMAP
004000
00F000
009000
009000
011000
031000
063F00
7C0180
F80080
F00080
F00100
F00100
F00100
F00100
900300
F00300
FF0200
03FE00
ENDCHAR
STARTCHAR F088
ENCODING 61576
SWIDTH 874 0
DWIDTH 17 0
BBX 16 18 0 -2
BITMAP
01FC
FF06
F002
9002
F002
F002
F001
F001
F003
F801
FC03
063E
0330
0110
0090
0090
00F0
0060
ENDCHAR
STARTCHAR F089
ENCODING 61577
SWIDTH 514 0
DWIDTH 10 0
BBX 9 17 0 0
BITMAP
0080
0080
0180
0180
0380
1F80
FF80
7F80
3F80
1F80
0F80
0F80
0F80
0F80
0F00
1E00
1800
ENDCHAR
STARTCHAR F08A
ENCODING 61578
SWIDTH 977 0
DWIDTH 19 0
BBX 19 16 0 -1
BITMAP
3F0F80
63B8C0
C0E060
804020
800020
800020
C00020
400040
6000C0
300180
180300
0C0600
060C00
031800
01B000
00E000
ENDCHAR
STARTCHAR F08B
ENCODING 61579
SWIDTH 925 0
DWIDTH 18 0
BBX 17 14 0 0
BITMAP
7E0000
E07000
807800
807C00
8FFE00
8FFF00
8FFF80
8FFF80
8FFF00
8FFE00
807C00
807800
C07000
7E2000
ENDCHAR
STARTCHAR F08C
ENCODING 61580
SWIDTH 874 0
DWIDTH 17 0
BBX 17 16 0 -1
BITMAP
7FFF00
FFFF80
FFFF80
E7FF80
E7FF80
FFFF80
E44780
E40380
E47380
E47380
E47380
E47380
E47380
E47380
FFFF80
7FFF00
ENDCHAR
STARTCHAR F08D
ENCODING 61581
SWIDTH 668 0
DWIDTH 13 0
BBX 12 18 0 -2
BITMAP
3FC0
3FE0
1F80
1780
1780
1780
1780
1780
3FC0
7FE0
FFF0
FFF0
0600
0600
0400
0400
0400
0400
ENDCHAR
STARTCHAR F08E
ENCODING 61582
SWIDTH 977 0
DWIDTH 19 0
BBX 19 17 0 0
BITMAP
0007E0
0007E0
7FE3E0
C003E0
8007E0
800FE0
801E60
803C00
807800
80F000
81E200
80C200
800200
800200
800200
C00600
7FFC00
ENDCHAR
STARTCHAR F090
ENCODING 61584
SWIDTH 874 0
DWIDTH 17 0
BBX 16 14 0 0
BITMAP
007E
0607
0701
0781
FFC1
FFE1
FFF1
FFF1
FFE1
FFC1
0781
0701
0603
007E
ENDCHAR
STARTCHAR F091
ENCODING 61585
SWIDTH 925 0
DWIDTH 18 0
BBX 18 16 0 -1
BITMAP
07FC00
0FFC00
7FFC00
FFFFC0
8FFC40
8FFC40
C7FCC0
77FD80
1FFF00
03F000
01F000
00E000
00E000
01F000
0FFC00
0FFC00
ENDCHAR
STARTCHAR F092
ENCODING 61586
SWIDTH 874 0
DWIDTH 17 0
BBX 17 16 0 -1
BITMAP
7FFF00
FFFF80
FFFF80
F3F780
F00780
F00780
F00380
E00380
E00380
F00380
F00780
DC1F80
EE1F80
F01F80
FC1F80
7C1F00
ENDCHAR
STARTCHAR F093
ENCODING 61587
SWIDTH 925 0
DWIDTH 18 0
BBX 18 17 0 -2
BITMAP
00C000
01E000
03F000
07F800
0FFC00
1FFC00
01E000
01E000
01E000
01E000
01E000
01E000
FC0FC0
FFFFC0
FFFFC0
FFF240
FFFFC0
ENDCHAR
STARTCHAR F094
ENCODING 61588
SWIDTH 874 0
DWIDTH 17 0
BBX 16 16 0 -2
BITMAP
01FE
0F1F
1801
3001
6001
4001
4001
8001
8001
8001
8003
8002
8006
800C
8038
FFE0
ENDCHAR
STARTCHAR F095
ENCODING 61589
SWIDTH 771 0
DWIDTH 15 0
BBX 15 15 0 1
BITMAP
7000
F000
F800
F800
F800
F000
7000
7800
3800
1C10
1F38
0FFE
03FE
01FE
0078
ENDCHAR
STARTCHAR F096
ENCODING 61590
SWIDTH 771 0
DWIDTH 15 0
BBX 15 15 0 1
BITMAP
7FFC
C006
8002
8002
8002
8002
8002
8002
8002
8002
8002
8002
8002
C006
7FFC
ENDCHAR
STARTCHAR F097
ENCODING 61591
SWIDTH 720 0
DWIDTH 14 0
BBX 14 16 0 -1
BITMAP
FFFC
8004
8004
8004
8004
8004
8004
8004
8004
8004
8304
8784
9CE4
B034
E01C
C00C
ENDCHAR
STARTCHAR F098
ENCODING 61592
SWIDTH 874 0
DWIDTH 17 0
BBX 17 16 0 -1
BITMAP
7FFF00
FFFF80
FFFF80
E3FF80
E1FF80
E1FF80
E3FF80
E3FF80
F3FF80
F9FF80
FC4780
FE0380
FF0380
FFEF80
FFFF80
7FFF00
ENDCHAR
STARTCHAR F099
ENCODING 61593
SWIDTH 925 0
DWIDTH 18 0
BBX 16 14 0 0
BITMAP
0038
407F
60FF
78FE
7FFE
7FFE
7FFE
3FFE
1FFC
3FFC
0FF8
0FF0
FFE0
3F80
ENDCHAR
STARTCHAR F09A
ENCODING 61594
SWIDTH 565 0
DWIDTH 11 0
BBX 9 18 1 -2
BITMAP
0380
0F80
1F80
1E00
1C00
1C00
1C00
FF80
FF80
FF80
1C00
1C00
1C00
1C00
1C00
1C00
1C00
1C00
ENDCHAR
STARTCHAR F09B
ENCODING 61595
SWIDTH 874 0
DWIDTH 17 0
BBX 17 16 0 -1
BITMAP
07F000
1FFC00
3FFE00
77F700
700700
F00780
E00380
E00380
E00380
E00380
F00780
5C1F00
6C1F00
301E00
1C1C00
041000
ENDCHAR
STARTCHAR F09C
ENCODING 61596
SWIDTH 925 0
DWIDTH 18 0
BBX 18 15 0 1
BITMAP
003F00
007F80
00E1C0
00C0C0
00C0C0
00C0C0
00C0C0
FFF0C0
FFF000
FFF000
FFF000
FFF000
FFF000
FFF000
FFF000
ENDCHAR
STARTCHAR F09D
ENCODING 61597
SWIDTH 1080 0
DWIDTH 21 0
BBX 21 16 0 -1
BITMAP
FFFFF8
800008
800008
800008
FFFFF8
FFFFF8
FFFFF8
FFFFF8
800008
800008
800008
800008
9DE008
9DE008
800008
FFFFF8
ENDCHAR
STARTCHAR F09E
ENCODING 61598
SWIDTH 771 0
DWIDTH 15 0
BBX 15 15 0 1
BITMAP
F800
FE00
FF80
0FC0
03E0
C0F0
F878
FC38
3E3C
0F1C
079C
738E
F38E
F1CE
61CE
ENDCHAR
STARTCHAR F0A0
ENCODING 61600
SWIDTH 874 0
DWIDTH 17 0
BBX 16 14 0 0
BITMAP
1FF8
300C
2004
2006
6006
4002
4003
FFFF
8001
8001
8029
8001
8001
FFFF
ENDCHAR
STARTCHAR F0A1
ENCODING 61601
SWIDTH 977 0
DWIDTH 19 0
BBX 19 16 0 -1
BITMAP
0000C0
0003C0
000640
003C40
7FF040
FF8060
FF8060
FF8060
FFC040
1FF840
1E0E40
1E0340
1E01C0
1E0000
0F0000
0F0000
ENDCHAR
STARTCHAR F0A2
ENCODING 61602
SWIDTH 977 0
DWIDTH 19 0
BBX 17 20 1 -3
BITMAP
00C000
00C000
03F000
0E1800
080C00
100400
100400
100400
100400
100400
100400
300600
200200
600300
400100
C00180
FFFF80
03F000
036000
00C000
ENDCHAR
STARTCHAR F0A3
ENCODING 61603
SWIDTH 874 0
DWIDTH 17 0
BBX 17 16 0 -1
BITMAP
036000
07F000
3FFE00
3FFE00
1FFC00
FFFF80
FFFF80
7FFF00
7FFF00
FFFF80
FFFF80
1FFC00
3FFE00
3FFE00
07F000
036000
ENDCHAR
STARTCHAR F0A4
ENCODING 61604
SWIDTH 977 0
DWIDTH 19 0
BBX 19 16 0 -1
BITMAP
007000
00D800
018800
010800
031FC0
7E0060
F80020
F00020
F007C0
F00400
F00400
F00400
900400
F00800
FF0800
01F800
ENDCHAR
STARTCHAR F0A5
ENCODING 61605
SWIDTH 977 0
DWIDTH 19 0
BBX 19 16 0 -1
BITMAP
00E000
013000
011000
011800
7F8C00
C007E0
8003E0
8001E0
7C01E0
0401E0
0401E0
0401E0
060120
0201A0
021FE0
01F800
ENDCHAR
STARTCHAR F0A6
ENCODING 61606
SWIDTH 874 0
DWIDTH 17 0
BBX 16 20 0 -3
BITMAP
0600
0F80
0880
0880
0880
08F0
083E
7803
C801
8001
C001
6001
3003
0802
0402
0402
07FE
07F2
07FE
07FE
ENDCHAR
STARTCHAR F0A7
ENCODING 61607
SWIDTH 874 0
DWIDTH 17 0
BBX 16 20 0 -3
BITMAP
03FC
07FE
07F2
07FE
0402
0402
0802
1803
6001
C001
8001
C801
7803
083E
08F8
0880
0880
0880
0F80
0600
ENDCHAR
STARTCHAR F0A8
ENCODING 61608
SWIDTH 874 0
DWIDTH 17 0
BBX 17 16 0 -1
BITMAP
07F000
1FFC00
3F7E00
7E3E00
7C3F00
F87F00
F0FF80
E00380
E00380
F0FF80
F87F00
7C3F00
7E3F00
3F7E00
1FFC00
07F000
ENDCHAR
STARTCHAR F0A9
ENCODING 61609
SWIDTH 874 0
DWIDTH 17 0
BBX 17 16 0 -1
BITMAP
07F000
1FFC00
3F7E00
7E3E00
7E1F00
FF0F00
FF8780
E00380
E00380
FF8780
FF0F00
7E1F00
7E3F00
3F7E00
1FFC00
07F000
ENDCHAR
STARTCHAR F0AA
ENCODING 61610
SWIDTH 874 0
DWIDTH 17 0
BBX 17 16 0 -1
BITMAP
07F000
1FFC00
3F7E00
7E3F00
7C1F00
F80F80
F00780
E00380
E22380
F63780
FE3F80
7E3F00
7E3F00
3E3E00
1FFC00
07F000
ENDCHAR
STARTCHAR F0AB
ENCODING 61611
SWIDTH 874 0
DWIDTH 17 0
BBX 17 16 0 -1
BITMAP
07F000
1FFC00
3F7E00
7E3F00
7E3F00
FE3F80
F63780
E22380
E00380
F00780
F80F80
7C1F00
7E3F00
3F7E00
1FFC00
07F000
ENDCHAR
STARTCHAR F0AC
ENCODING 61612
SWIDTH 874 0
DWIDTH 17 0
BBX 16 16 0 -1
BITMAP
07E0
1EF8
307C
60CE
4046
E01F
E01F
E03F
F97F
F9FF
FDFF
7F7E
7FCE
3FCC
1FD8
0FF0
ENDCHAR
STARTCHAR F0AD
ENCODING 61613
SWIDTH 925 0
DWIDTH 18 0
BBX 18 18 0 -2
BITMAP
003F00
007E00
007800
00F000
00F000
00F8C0
007FC0
017F80
03BF00
07E000
0FC000
1F8000
3F0000
7E0000
EC0000
F80000
700000
200000
ENDCHAR
STARTCHAR F0AE
ENCODING 61614
SWIDTH 977 0
DWIDTH 19 0
BBX 19 15 0 1
BITMAP
FFFFE0
FFFC20
FFFFE0
FFFFE0
000000
FFFFE0
FFFFE0
FE0020
FFFFE0
000000
000000
FFFFE0
FFE020
FFE020
FFFFE0
ENDCHAR
STARTCHAR F0B0
ENCODING 61616
SWIDTH 771 0
DWIDTH 15 0
BBX 15 15 0 -2
BITMAP
FFFE
FFFE
7FFC
3FF8
1FF0
0FE0
07C0
03C0
03C0
03C0
03C0
03C0
03C0
01C0
00C0
ENDCHAR
STARTCHAR F0B1
ENCODING 61617
SWIDTH 977 0
DWIDTH 19 0
BBX 20 17 0 0
BITMAP
03FC00
03FC00
020400
7FFFE0
FFFFF0
FFFFF0
FFFFF0
FFFFF0
FFFFF0
000000
FEEFF0
FE0FF0
FFFFF0
FFFFF0
FFFFF0
FFFFF0
7FFFE0
ENDCHAR
STARTCHAR F0B2
ENCODING 61618
SWIDTH 874 0
DWIDTH 17 0
BBX 17 16 0 -1
BITMAP
FC1F80
FC1F80
F80F80
FC1F80
DE3D80
8F7880
07F000
03E000
03E000
07F000
8F7880
DE3D80
FC1F80
F80F80
F80F80
FC1F80
ENDCHAR
STARTCHAR F0C0
ENCODING 61632
SWIDTH 1080 0
DWIDTH 21 0
BBX 21 20 0 -3
BITMAP
1800C0
3C01E0
7E03F0
7E73F0
3FFFE0
1DFDC0
E3FE38
FFFFF8
FFFFF8
FDFDF8
F8F8F8
0F0780
0FFF80
1FFFC0
1FFFC0
1FFFC0
1FFFC0
1FFFC0
1FFFC0
0FFF80
ENDCHAR
STARTCHAR F0C1
ENCODING 61633
SWIDTH 925 0
DWIDTH 18 0
BBX 18 17 0 -1
BITMAP
3E0000
7F0000
638000
C1C000
C0C000
E3C000
73C000
3FDC00
1FFE00
047700
00F380
00D1C0
00C0C0
00E1C0
007380
003F00
001E00
ENDCHAR
STARTCHAR F0C2
ENCODING 61634
SWIDTH 1080 0
DWIDTH 21 0
BBX 21 15 0 1
BITMAP
03E000
0FF800
0FF900
1FFFC0
1FFFC0
1FFFC0
3FFFC0
7FFFE0
FFFFF0
FFFFF8
FFFFF8
FFFFF8
7FFFF8
7FFFF0
1FFFE0
ENDCHAR
STARTCHAR F0C3
ENCODING 61635
SWIDTH 925 0
DWIDTH 18 0
BBX 16 16 1 -1
BITMAP
07E0
0240
0240
0240
0240
0240
0660
0420
0C30
1818
1008
3FFC
3FFC
7FFE
FFFF
FFFF
ENDCHAR
STARTCHAR F0C4
ENCODING 61636
SWIDTH 977 0
DWIDTH 19 0
BBX 19 15 0 -2
BITMAP
780000
FE0000
8601E0
830220
C30C40
7FB180
1EC200
01A400
0D0E00
3FF100
631080
C10C40
830320
CE00C0
7C0000
ENDCHAR
STARTCHAR F0C5
ENCODING 61637
SWIDTH 977 0
DWIDTH 19 0
BBX 19 20 0 -3
BITMAP
03F000
07F000
0E1000
1A1000
3217C0
621FE0
FE1820
802820
804820
80C820
81F820
810020
810020
810020
FF0020
7F0020
010020
010020
01FFE0
01FFE0
ENDCHAR
STARTCHAR F0C6
ENCODING 61638
SWIDTH 771 0
DWIDTH 15 0
BBX 15 16 0 -1
BITMAP
3C00
6700
C180
80C0
8760
C9B0
68D8
346C
1A30
0D18
068C
0344
0182
00C2
0066
003C
ENDCHAR
STARTCHAR F0C7
ENCODING 61639
SWIDTH 874 0
DWIDTH 17 0
BBX 16 16 0 -1
BITMAP
FFF8
9E2C
9E26
9E22
9E21
9FE1
9FE1
8001
8001
9FF9
9FFD
9005
9005
9005
9005
FFFF
ENDCHAR
STARTCHAR F0C8
ENCODING 61640
SWIDTH 874 0
DWIDTH 17 0
BBX 17 16 0 -1
BITMAP
7FFF00
FFFF80
FFFF80
FFFF80
FFFF80
FFFF80
FFFF80
FFFF80
FFFF80
FFFF80
FFFF80
FFFF80
FFFF80
FFFF80
FFFF80
7FFF00
ENDCHAR
STARTCHAR F0C9
ENCODING 61641
SWIDTH 874 0
DWIDTH 17 0
BBX 17 14 0 0
BITMAP
FFFF80
FFFF80
FFFF80
000000
000000
000000
FFFF80
FFFF80
000000
000000
000000
FFFF80
FFFF80
FFFF80
ENDCHAR
STARTCHAR F0CA
ENCODING 61642
SWIDTH 977 0
DWIDTH 19 0
BBX 19 16 0 -1
BITMAP
200000
F7FFE0
F7FFE0
F7FFE0
600000
000000
600000
F7FFE0
F7FFE0
700000
000000
000000
F7FFE0
F7FFE0
F7FFE0
600000
ENDCHAR
STARTCHAR F0CB
ENCODING 61643
SWIDTH 977 0
DWIDTH 19 0
BBX 19 20 0 -3
BITMAP
200000
E00000
200000
27FFE0
27FFE0
F7FFE0
000000
600000
D00000
17FFE0
67FFE0
900000
F00000
000000
F7FFE0
B7FFE0
67FFE0
100000
900000
600000
ENDCHAR
STARTCHAR F0CC
ENCODING 61644
SWIDTH 977 0
DWIDTH 19 0
BBX 19 17 0 -2
BITMAP
004000
03F800
061C00
0E0C00
0E0C00
0E0000
0F8000
07F000
000000
FFFFE0
000000
001E00
0C0600
0C0600
0C0C00
0F1C00
07F000
ENDCHAR
STARTCHAR F0CD
ENCODING 61645
SWIDTH 874 0
DWIDTH 17 0
BBX 17 16 0 -1
BITMAP
FE1F80
380200
380200
380200
380200
380200
380200
380200
380200
380200
380600
1C0C00
0FF800
01C000
000000
FFFF80
ENDCHAR
STARTCHAR F0CE
ENCODING 61646
SWIDTH 925 0
DWIDTH 18 0
BBX 18 15 0 1
BITMAP
FFFFC0
FFFFC0
821040
821040
821040
FFFFC0
FFFFC0
821040
821040
FFFFC0
FFFFC0
821040
821040
821040
FFFFC0
ENDCHAR
STARTCHAR F0D0
ENCODING 61648
SWIDTH 925 0
DWIDTH 18 0
BBX 18 18 0 -2
BITMAP
204000
204300
244780
0F0CC0
061980
043300
007E00
00FC00
01F8C0
03F000
07E000
0FC000
1F8000
3F0000
FE0000
FC0000
780000
300000
ENDCHAR
STARTCHAR F0D1
ENCODING 61649
SWIDTH 977 0
DWIDTH 19 0
BBX 18 15 1 -2
BITMAP
03FFC0
03FFC0
03FFC0
3FFFC0
63FFC0
43FFC0
83FFC0
FFFFC0
FFFFC0
FFFFC0
FFFFC0
E7FDC0
C3F8C0
620980
3C0700
ENDCHAR
STARTCHAR F0D2
ENCODING 61650
SWIDTH 874 0
DWIDTH 17 0
BBX 17 16 0 -1
BITMAP
07F000
1FFC00
3FFE00
780E00
73E700
E7F300
EC7380
E87380
E87380
E8F380
F8E700
784700
790F00
39FE00
13FC00
03F000
ENDCHAR
STARTCHAR F0D3
ENCODING 61651
SWIDTH 874 0
DWIDTH 17 0
BBX 17 17 0 -1
BITMAP
7FFF00
FFFF80
FFFF80
F80F80
F3E780
E7F380
EC7380
E87380
E87380
E8F380
F8E780
F80780
F91F80
F9FF80
F3FF80
73FF00
040000
ENDCHAR
STARTCHAR F0D4
ENCODING 61652
SWIDTH 874 0
DWIDTH 17 0
BBX 16 16 0 -1
BITMAP
7FFE
FFFF
FFFF
FFFF
E0FF
C6FF
CFF3
9C21
9C21
8F33
C67F
E0FF
FFFF
FFFF
FFFF
7FFE
ENDCHAR
STARTCHAR F0D5
ENCODING 61653
SWIDTH 1285 0
DWIDTH 25 0
BBX 25 16 0 -2
BITMAP
01800000
0FF00000
1FF80000
3E700000
78000000
70000600
E0000600
E0FF1F80
E0FF1F80
E0FF1F80
E0070600
700E0600
781E0000
3FFC0000
1FF80000
0FF00000
ENDCHAR
STARTCHAR F0D6
ENCODING 61654
SWIDTH 1080 0
DWIDTH 21 0
BBX 21 14 0 0
BITMAP
FFFFF8
F00078
F00078
E0F838
809808
811C08
81DC08
81DC08
81DC08
810808
E0F838
F02078
F00078
FFFFF8
ENDCHAR
STARTCHAR F0D7
ENCODING 61655
SWIDTH 565 0
DWIDTH 11 0
BBX 11 7 0 3
BITMAP
FFE0
FFE0
7FC0
3F80
1F00
0E00
0400
ENDCHAR
STARTCHAR F0D8
ENCODING 61656
SWIDTH 565 0
DWIDTH 11 0
BBX 11 6 0 3
BITMAP
0400
0E00
1F00
3F80
7FC0
FFE0
ENDCHAR
STARTCHAR F0D9
ENCODING 61657
SWIDTH 360 0
DWIDTH 7 0
BBX 6 11 1 2
BITMAP
0C
1C
3C
7C
FC
FC
7C
3C
1C
0C
04
ENDCHAR
STARTCHAR F0DA
ENCODING 61658
SWIDTH 360 0
DWIDTH 7 0
BBX 6 11 0 2
BITMAP
C0
E0
F0
F8
FC
FC
F8
F0
E0
C0
80
ENDCHAR
STARTCHAR F0DB
ENCODING 61659
SWIDTH 925 0
DWIDTH 18 0
BBX 18 16 0 -1
BITMAP
FFFFC0
FFFFC0
808040
808040
808040
808040
808040
808040
808040
808040
808040
808040
808040
808040
808040
FFFFC0
ENDCHAR
STARTCHAR F0DC
ENCODING 61660
SWIDTH 565 0
DWIDTH 11 0
BBX 11 16 0 -1
BITMAP
0400
0E00
1F00
3F80
7FC0
FFE0
FFE0
0000
0000
7FC0
FFE0
7FC0
3F80
1F00
0E00
0400
ENDCHAR
STARTCHAR F0DD
ENCODING 61661
SWIDTH 565 0
DWIDTH 11 0
BBX 11 7 0 -1
BITMAP
FFE0
FFE0
7FC0
3F80
1F00
0E00
0400
ENDCHAR
STARTCHAR F0DE
ENCODING 61662
SWIDTH 565 0
DWIDTH 11 0
BBX 11 7 0 8
BITMAP
0400
0E00
1F00
3F80
7FC0
FFE0
FFE0
ENDCHAR
STARTCHAR F0E0
ENCODING 61664
SWIDTH 977 0
DWIDTH 19 0
BBX 19 15 0 -2
BITMAP
7FFFC0
FFFFE0
FFFFE0
7FFFC0
7FFFC0
1FFF00
CFFE60
E3F8E0
F9F3E0
FCE7E0
FE0FE0
FFFFE0
FFFFE0
FFFFE0
FFFFE0
ENDCHAR
STARTCHAR F0E1
ENCODING 61665
SWIDTH 874 0
DWIDTH 17 0
BBX 17 16 0 0
BITMAP
600000
F00000
F00000
600000
000000
F3BE00
F3FF00
F3FF80
F3C780
F38780
F38780
F38780
F38780
F38780
F38780
F38780
ENDCHAR
STARTCHAR F0E2
ENCODING 61666
SWIDTH 874 0
DWIDTH 17 0
BBX 17 16 0 -1
BITMAP
87F000
DFFC00
FFFE00
F80E00
F80700
FC0700
FC0380
000380
000380
000380
000700
100700
380F00
3E3E00
1FFC00
07F000
ENDCHAR
STARTCHAR F0E3
ENCODING 61667
SWIDTH 977 0
DWIDTH 19 0
BBX 19 19 0 -2
BITMAP
01C000
01E000
01F000
03F800
07FC00
0FFC00
5FF800
FFE000
FFC000
7FE000
3F3000
1E1E00
0E1F00
001F80
000FC0
0007E0
0003E0
0001C0
000080
ENDCHAR
STARTCHAR F0E4
ENCODING 61668
SWIDTH 977 0
DWIDTH 19 0
BBX 19 15 0 -2
BITMAP
01F000
07FE00
1F1F00
3F1F80
23F8C0
63E8C0
7FCFE0
FFDFE0
DFDF60
8F9E20
8F1E20
FF0FE0
FF0FE0
7F1FE0
7FFFC0
ENDCHAR
STARTCHAR F0E5
ENCODING 61669
SWIDTH 977 0
DWIDTH 19 0
BBX 19 17 0 -3
BITMAP
03F800
0FBE00
380380
6000C0
400040
C00020
800020
800020
800020
400060
6000C0
380180
191E00
1BF800
160000
3C0000
600000
ENDCHAR
STARTCHAR F0E6
ENCODING 61670
SWIDTH 977 0
DWIDTH 19 0
BBX 19 15 0 -2
BITMAP
07C000
1EF000
600C00
400400
800280
8002C0
8002E0
C006E0
600CE0
3039E0
3FE3E0
380FC0
407F80
00FF80
000180
ENDCHAR
STARTCHAR F0E7
ENCODING 61671
SWIDTH 514 0
DWIDTH 10 0
BBX 10 18 0 -2
BITMAP
3E00
3C00
3C00
7C00
7840
7FC0
7F80
FF80
FF00
8700
0600
0E00
0C00
0C00
0800
1800
1000
1000
ENDCHAR
STARTCHAR F0E8
ENCODING 61672
SWIDTH 977 0
DWIDTH 19 0
BBX 19 16 0 -1
BITMAP
01F000
01F000
01F000
01F000
01F000
004000
004000
1FFF00
3FFF80
204080
204080
F9F3E0
F9F3E0
F9F3E0
F9F3E0
F9F3E0
ENDCHAR
STARTCHAR F0E9
ENCODING 61673
SWIDTH 925 0
DWIDTH 18 0
BBX 17 17 0 -2
BITMAP
008000
008000
03E000
0FFC00
3FFE00
7FFF00
7FFF80
FFFF80
8EB880
049000
008000
008000
008000
008000
088000
0C8000
070000
ENDCHAR
STARTCHAR F0EA
ENCODING 61674
SWIDTH 977 0
DWIDTH 19 0
BBX 19 20 0 -3
BITMAP
FFFC00
FFFC00
E01C00
FFFC00
FFFC00
FFFE00
FF0700
FF0500
FF0480
FF0440
FF07E0
FF0020
FF0020
FF0020
FF0020
FF0020
FF0020
010020
01FFE0
01FFE0
ENDCHAR
STARTCHAR F0EB
ENCODING 61675
SWIDTH 565 0
DWIDTH 11 0
BBX 11 16 0 -1
BITMAP
1F00
61C0
4040
8620
8120
8020
C060
60C0
3180
1100
1F00
1F00
1F00
1F00
1F00
0E00
ENDCHAR
STARTCHAR F0EC
ENCODING 61676
SWIDTH 977 0
DWIDTH 19 0
BBX 19 14 0 -1
BITMAP
000100
000180
FFFFC0
FFFFE0
FFFFC0
000180
100100
100000
300000
7FFFE0
FFFFE0
7FFFE0
300000
100000
ENDCHAR
STARTCHAR F0ED
ENCODING 61677
SWIDTH 1080 0
DWIDTH 21 0
BBX 21 15 0 1
BITMAP
03E000
0FF800
0FF900
1FFFC0
1F1FC0
1F1FC0
3F1FC0
7F1FE0
FC03F0
FE07F8
FF0FF8
FF9FF8
7FFFF8
7FFFF0
1FFFE0
ENDCHAR
STARTCHAR F0EE
ENCODING 61678
SWIDTH 1080 0
DWIDTH 21 0
BBX 21 15 0 1
BITMAP
03E000
0FF800
0FF900
1FFFC0
1F9FC0
1F0FC0
3E07C0
7C03E0
FF1FF0
FF1FF8
FF1FF8
FF1FF8
7FFFF8
7FFFF0
1FFFE0
ENDCHAR
STARTCHAR F0F0
ENCODING 61680
SWIDTH 771 0
DWIDTH 15 0
BBX 15 16 0 -1
BITMAP
07C0
0FE0
0FE0
1FF0
1FF0
0FE0
0FE0
0780
6C64
6FC4
EF86
C73A
973A
9732
C732
7FFC
ENDCHAR
STARTCHAR F0F1
ENCODING 61681
SWIDTH 771 0
DWIDTH 15 0
BBX 14 16 0 -1
BITMAP
E380
E380
8080
8080
809C
8094
8094
809C
C188
7F08
1C08
0808
0808
0C08
0610
03E0
ENDCHAR
STARTCHAR F0F2
ENCODING 61682
SWIDTH 977 0
DWIDTH 19 0
BBX 19 16 0 -1
BITMAP
03FC00
020400
2E0480
EFFEE0
EFFEE0
EFFEE0
EFFEE0
EFFEE0
EFFEE0
EFFEE0
EFFEE0
EFFEE0
EFFEE0
EFFEE0
EFFEE0
6FFEC0
ENDCHAR
STARTCHAR F0F3
ENCODING 61683
SWIDTH 977 0
DWIDTH 19 0
BBX 18 20 1 -3
BITMAP
008000
00C000
03F000
0FF800
0FFC00
1FFC00
1FFC00
1FFC00
1FFC00
1FFC00
1FFE00
3FFE00
3FFE00
3FFF00
7FFF80
FFFFC0
FFFF80
03E000
03E000
00C000
ENDCHAR
STARTCHAR F0F4
ENCODING 61684
SWIDTH 1080 0
DWIDTH 21 0
BBX 20 15 0 -2
BITMAP
1FFFC0
1FFFE0
1FFE70
1FFE30
1FFE30
1FFE30
1FFFE0
1FFFE0
1FFE00
1FFE00
1FFE00
000000
000000
FFFFE0
7FFFE0
ENDCHAR
STARTCHAR F0F5
ENCODING 61685
SWIDTH 771 0
DWIDTH 15 0
BBX 15 20 0 -3
BITMAP
921E
927E
927E
92FE
92FE
92FE
FEFE
FEFE
FEFE
7CFE
7CFE
7CFE
7CFE
7C1E
7C1E
7C1E
7C1E
7C1E
7C1E
380E
ENDCHAR
STARTCHAR F0F6
ENCODING 61686
SWIDTH 874 0
DWIDTH 17 0
BBX 16 20 0 -3
BITMAP
FFE0
FFF8
802C
8026
8023
8021
803F
8001
8001
8FF1
8001
8FF1
8FF1
8001
8FF1
8FF1
8001
8001
FFFF
FFFF
ENDCHAR
STARTCHAR F0F7
ENCODING 61687
SWIDTH 771 0
DWIDTH 15 0
BBX 15 20 0 -3
BITMAP
FFFE
FFFE
8002
9292
9292
8002
9292
8002
8002
9292
8002
9292
9292
8002
9012
9012
8382
8382
FFFE
FFFE
ENDCHAR
STARTCHAR F0F8
ENCODING 61688
SWIDTH 771 0
DWIDTH 15 0
BBX 15 20 0 -3
BITMAP
0F80
0F80
0A80
0880
7A80
FAFE
8F82
8002
8002
9542
8002
9542
9542
8002
9042
9042
8702
8702
FFFE
FFFE
ENDCHAR
STARTCHAR F0F9
ENCODING 61689
SWIDTH 1080 0
DWIDTH 21 0
BBX 21 16 0 -1
BITMAP
01FFF8
01F9F8
01F9F8
01F9F8
1FC038
31C038
61C038
41F9F8
7FF9F8
7FFFF8
7FFFF8
7FFFF8
F3FEF8
61FC78
3104C0
1E0380
ENDCHAR
STARTCHAR F0FA
ENCODING 61690
SWIDTH 977 0
DWIDTH 19 0
BBX 20 16 0 -1
BITMAP
07FC00
040400
2C0400
EFFE60
EFFE70
EF1E70
EF1E70
EF1E70
E80270
E80270
E80270
EF1E70
EF1E70
EF1E70
EFFE70
6FFE60
ENDCHAR
STARTCHAR F0FB
ENCODING 61691
SWIDTH 1080 0
DWIDTH 21 0
BBX 21 13 0 0
BITMAP
078000
030000
038000
C3C000
E3E000
7FFF00
FFFFF8
7FFFE0
F3F800
E3C000
438000
038000
030000
ENDCHAR
STARTCHAR F0FC
ENCODING 61692
SWIDTH 925 0
DWIDTH 18 0
BBX 18 15 0 1
BITMAP
03FF80
7FFF80
FFFF80
7FFF80
71FF80
71FF80
71FF80
71FF80
3FFF80
3FFF80
0FFF80
03FF80
03FFC0
07FFC0
07FFC0
ENDCHAR
STARTCHAR F0FD
ENCODING 61693
SWIDTH 874 0
DWIDTH 17 0
BBX 17 16 0 -1
BITMAP
7FFF00
FFFF80
F7F780
E3E380
E3E380
E3E380
E3E380
E00380
E00380
E3E380
E3E380
E3E380
E3E380
E7F380
FFFF80
7FFF00
ENDCHAR
STARTCHAR F0FE
ENCODING 61694
SWIDTH 874 0
DWIDTH 17 0
BBX 17 16 0 -1
BITMAP
7FFF00
FFFF80
FF7F80
FE3F80
FE3F80
FE3F80
FE3F80
E00380
E00380
FE3F80
FE3F80
FE3F80
FE3F80
FE7F80
FFFF80
7FFF00
ENDCHAR
STARTCHAR F100
ENCODING 61696
SWIDTH 565 0
DWIDTH 11 0
BBX 10 10 0 1
BITMAP
0CC0
1980
3300
6600
CC00
6600
3200
3300
1980
0CC0
ENDCHAR
STARTCHAR F101
ENCODING 61697
SWIDTH 565 0
DWIDTH 11 0
BBX 10 10 0 1
BITMAP
CC00
6600
3300
1980
0CC0
1980
1300
3300
6600
CC00
ENDCHAR
STARTCHAR F102
ENCODING 61698
SWIDTH 668 0
DWIDTH 13 0
BBX 11 10 1 1
BITMAP
0400
0E00
1B00
3180
64C0
CE60
1B00
3180
60C0
C060
ENDCHAR
STARTCHAR F103
ENCODING 61699
SWIDTH 668 0
DWIDTH 13 0
BBX 11 10 1 2
BITMAP
C060
60C0
3180
1B00
CE60
64C0
3180
1B00
0E00
0400
ENDCHAR
STARTCHAR F104
ENCODING 61700
SWIDTH 360 0
DWIDTH 7 0
BBX 6 10 0 1
BITMAP
0C
18
30
60
C0
60
30
30
18
0C
ENDCHAR
STARTCHAR F105
ENCODING 61701
SWIDTH 360 0
DWIDTH 7 0
BBX 6 10 0 1
BITMAP
C0
60
30
18
0C
18
30
30
60
C0
ENDCHAR
STARTCHAR F106
ENCODING 61702
SWIDTH 668 0
DWIDTH 13 0
BBX 11 6 1 3
BITMAP
0400
0E00
1B00
3180
60C0
C060
ENDCHAR
STARTCHAR F107
ENCODING 61703
SWIDTH 668 0
DWIDTH 13 0
BBX 11 6 1 4
BITMAP
C060
60C0
3180
1B00
0E00
0400
ENDCHAR
STARTCHAR F108
ENCODING 61704
SWIDTH 1080 0
DWIDTH 21 0
BBX 21 18 0 -2
BITMAP
7FFFF0
FFFFF8
800008
800008
800008
800008
800008
800008
800008
800008
800008
FFFFF8
FFFFF8
FFFFF8
FFFFF8
7FFFF0
01FC00
01FC00
ENDCHAR
STARTCHAR F109
ENCODING 61705
SWIDTH 1080 0
DWIDTH 21 0
BBX 21 14 0 0
BITMAP
1FFF80
100040
100040
100040
100040
100040
100040
100040
100040
100040
1FFFC0
000000
FFFFF8
FFFFF8
ENDCHAR
STARTCHAR F10A
ENCODING 61706
SWIDTH 668 0
DWIDTH 13 0
BBX 12 15 0 1
BITMAP
FFF0
8010
8010
8010
8010
8010
8010
8010
8010
8010
8010
8010
FFF0
F9F0
FFF0
ENDCHAR
STARTCHAR F10B
ENCODING 61707
SWIDTH 411 0
DWIDTH 8 0
BBX 8 14 0 0
BITMAP
FF
E7
FF
81
81
81
81
81
81
81
81
FF
E7
FF
ENDCHAR
STARTCHAR F10C
ENCODING 61708
SWIDTH 874 0
DWIDTH 17 0
BBX 16 16 0 -1
BITMAP
07E0
1FF8
3C3C
700E
6006
E007
C003
C003
C003
C003
E007
6006
700E
3C3C
1FF8
0FF0
ENDCHAR
STARTCHAR F10D
ENCODING 61709
SWIDTH 925 0
DWIDTH 18 0
BBX 18 15 0 1
BITMAP
1E0780
3E0F80
7C1E00
E03800
E03800
E03800
E03800
FF3FC0
FFBFC0
FFBFC0
FFBFC0
FFBFC0
FFBFC0
FF3FC0
7F1FC0
ENDCHAR
STARTCHAR F10E
ENCODING 61710
SWIDTH 925 0
DWIDTH 18 0
BBX 18 15 0 1
BITMAP
FF3FC0
FF7FC0
FF7FC0
FF7FC0
FF7FC0
FF7FC0
FF3FC0
FF3FC0
0701C0
0701C0
0701C0
0F03C0
7E1F80
7C1F00
781E00
ENDCHAR
STARTCHAR F110
ENCODING 61712
SWIDTH 977 0
DWIDTH 19 0
BBX 18 18 1 -2
BITMAP
00E000
01E200
19E700
38CF80
380F80
100700
000000
000000
E001C0
E001C0
400080
000000
000000
100200
380700
380600
00E000
00E000
ENDCHAR
STARTCHAR F111
ENCODING 61713
SWIDTH 874 0
DWIDTH 17 0
BBX 17 16 0 -1
BITMAP
07F000
1FFC00
3FFE00
7FFF00
7FFF00
FFFF80
FFFF80
FFFF80
FFFF80
FFFF80
FFFF80
7FFF00
7FFF00
3FFE00
1FFC00
07F000
ENDCHAR
STARTCHAR F112
ENCODING 61714
SWIDTH 977 0
DWIDTH 19 0
BBX 19 17 0 -2
BITMAP
060000
0E0000
1E0000
3E0000
7FFE00
FFFF80
FFFFC0
7FFFC0
3FFFE0
1E07E0
0E01E0
0600E0
000060
000060
000060
000040
000040
ENDCHAR
STARTCHAR F113
ENCODING 61715
SWIDTH 925 0
DWIDTH 18 0
BBX 18 15 0 -2
BITMAP
700380
780780
7FFF80
7FFF80
7FFF80
7FFF80
FFFFC0
F3F3C0
E409C0
CE1CC0
CE1CC0
CE1CC0
640980
300300
1FFE00
ENDCHAR
STARTCHAR F114
ENCODING 61716
SWIDTH 925 0
DWIDTH 18 0
BBX 18 15 0 1
BITMAP
7F0000
810000
81FF00
81FFC0
800040
800040
800040
800040
800040
800040
800040
800040
800040
C000C0
7FFF80
ENDCHAR
STARTCHAR F115
ENCODING 61717
SWIDTH 1080 0
DWIDTH 21 0
BBX 20 15 0 1
BITMAP
7F0000
810000
81FC00
81FF00
800100
800100
800100
87FFF0
8C0010
980030
B00060
E00040
C000C0
C00180
7FFF00
ENDCHAR
STARTCHAR F116
ENCODING 61718
SWIDTH 977 0
DWIDTH 19 0
BBX 0 0 0 0
BITMAP
ENDCHAR
STARTCHAR F117
ENCODING 61719
SWIDTH 977 0
DWIDTH 19 0
BBX 0 0 0 0
BITMAP
ENDCHAR
STARTCHAR F118
ENCODING 61720
SWIDTH 874 0
DWIDTH 17 0
BBX 16 16 0 -1
BITMAP
07F0
1C18
300C
6006
4E3A
CE39
8411
8001
8001
8C19
CC19
4772
61C6
3004
1C18
07F0
ENDCHAR
STARTCHAR F119
ENCODING 61721
SWIDTH 874 0
DWIDTH 17 0
BBX 16 16 0 -1
BITMAP
07F0
1C18
300C
6006
4E3A
CE39
8411
8001
8001
83E1
C631
4C12
6006
3004
1C18
07F0
ENDCHAR
STARTCHAR F11A
ENCODING 61722
SWIDTH 874 0
DWIDTH 17 0
BBX 16 16 0 -1
BITMAP
07F0
1C18
300C
6006
4E3A
CE39
8411
8001
8001
87F1
CFF9
4002
6006
3004
1C18
07F0
ENDCHAR
STARTCHAR F11B
ENCODING 61723
SWIDTH 1080 0
DWIDTH 21 0
BBX 21 11 0 1
BITMAP
1FFFC0
3FFFE0
79FFF0
F9FE30
C07E38
C07BF8
F9F9F8
F9F9F0
79FFF0
3FFFE0
1F07C0
ENDCHAR
STARTCHAR F11C
ENCODING 61724
SWIDTH 1080 0
DWIDTH 21 0
BBX 21 13 0 0
BITMAP
7FFFF0
FFFFF8
800008
92A848
92A848
800048
9D57C8
800008
800008
93F848
800008
800008
FFFFF8
ENDCHAR
STARTCHAR F11D
ENCODING 61725
SWIDTH 977 0
DWIDTH 19 0
BBX 19 16 0 -1
BITMAP
F00000
F1F020
47FDE0
4C07A0
480020
480020
480020
480020
480020
49F020
4FFCE0
4C0780
400000
400000
400000
400000
ENDCHAR
STARTCHAR F11E
ENCODING 61726
SWIDTH 977 0
DWIDTH 19 0
BBX 19 16 0 -1
BITMAP
F00000
F1F020
47FDE0
4C7FA0
487C20
4B8460
4F83E0
4E73E0
487F20
49FC20
4FFCE0
4C0780
400000
400000
400000
400000
ENDCHAR
STARTCHAR F120
ENCODING 61728
SWIDTH 925 0
DWIDTH 18 0
BBX 18 11 0 1
BITMAP
C00000
600000
300000
180000
0C0000
0C0000
180000
300000
600000
C00000
01FFC0
ENDCHAR
STARTCHAR F121
ENCODING 61729
SWIDTH 1080 0
DWIDTH 21 0
BBX 20 15 0 -2
BITMAP
001000
001800
041200
0C1300
183180
3020C0
602060
C06030
606060
3040C0
18C180
0CC300
048200
008000
018000
ENDCHAR
STARTCHAR F122
ENCODING 61730
SWIDTH 977 0
DWIDTH 19 0
BBX 19 17 0 -1
BITMAP
062000
0E6000
1CE000
39E000
33FE00
67FF80
CFFFC0
67FFC0
33FFE0
19E7E0
0CE1E0
0660E0
0020E0
000060
000060
000040
000040
ENDCHAR
STARTCHAR F123
ENCODING 61731
SWIDTH 925 0
DWIDTH 18 0
BBX 18 17 0 0
BITMAP
00C000
00C000
01E000
01A000
03B000
1F9E00
FF8FC0
7F8180
3F8300
1F8600
0F8C00
0F8400
0F8400
0FE400
0F3C00
1E1E00
180600
ENDCHAR
STARTCHAR F124
ENCODING 61732
SWIDTH 771 0
DWIDTH 15 0
BBX 15 15 0 -2
BITMAP
0006
001E
007C
00FC
03F8
0FF8
3FF0
FFF0
01E0
01E0
01C0
01C0
0180
0180
0100
ENDCHAR
STARTCHAR F125
ENCODING 61733
SWIDTH 925 0
DWIDTH 18 0
BBX 18 18 0 -2
BITMAP
1C0080
1C0100
FFFE00
FFFE00
FFFE00
1C0E00
1C3E00
1C2E00
1C4E00
1C8E00
1D0E00
1E0E00
1FFFC0
1FFFC0
1FFFC0
000E00
000E00
000E00
ENDCHAR
STARTCHAR F126
ENCODING 61734
SWIDTH 565 0
DWIDTH 11 0
BBX 11 16 0 -1
BITMAP
F000
90C0
9120
6120
60E0
60C0
60C0
6180
6F80
7F00
7800
6000
6000
9000
9000
F000
ENDCHAR
STARTCHAR F127
ENCODING 61735
SWIDTH 925 0
DWIDTH 18 0
BBX 18 18 0 -2
BITMAP
001000
1E1000
7F1100
639200
C1C400
C0E000
E003C0
700000
380C00
1C0E00
080700
000380
F001C0
00C0C0
12E1C0
227380
423F00
021E00
ENDCHAR
STARTCHAR F128
ENCODING 61736
SWIDTH 565 0
DWIDTH 11 0
BBX 9 14 1 0
BITMAP
1E00
7F00
FF80
F780
6380
0380
0F80
1F00
1C00
1C00
0000
1C00
1C00
1C00
ENDCHAR
STARTCHAR F129
ENCODING 61737
SWIDTH 360 0
DWIDTH 7 0
BBX 7 15 0 1
BITMAP
7C
7C
7C
00
00
F8
FC
FC
7C
7C
7C
7C
FE
FE
FE
ENDCHAR
STARTCHAR F12A
ENCODING 61738
SWIDTH 360 0
DWIDTH 7 0
BBX 5 15 1 1
BITMAP
F8
F8
F8
F8
F8
F8
F8
F8
F8
00
00
F8
F8
F8
F8
ENDCHAR
STARTCHAR F12B
ENCODING 61739
SWIDTH 874 0
DWIDTH 17 0
BBX 16 15 0 1
BITMAP
000E
001F
0001
0003
0006
E1CC
F3D9
3B1F
1E00
1E00
1E00
1E00
3300
F3C0
E1C0
ENDCHAR
STARTCHAR F12C
ENCODING 61740
SWIDTH 874 0
DWIDTH 17 0
BBX 16 13 0 -3
BITMAP
E1C0
F3C0
3300
1E00
1E00
1E0F
1E09
3301
F3C3
E1CE
0018
001F
001F
ENDCHAR
STARTCHAR F12D
ENCODING 61741
SWIDTH 1080 0
DWIDTH 21 0
BBX 21 14 0 0
BITMAP
003FF0
007FF8
00FFF0
00FFF0
01FFE0
03FFC0
07FF80
0FFF00
180600
300C00
600800
401800
803000
FFE000
ENDCHAR
STARTCHAR F12E
ENCODING 61742
SWIDTH 925 0
DWIDTH 18 0
BBX 17 17 0 -1
BITMAP
040000
0E0000
0E0000
0E0000
040000
040000
FFE000
FFE000
FFE000
FFE000
FFE300
FBFF80
F1FF80
F1E780
F1E000
FBE000
FBE000
ENDCHAR
STARTCHAR F130
ENCODING 61744
SWIDTH 668 0
DWIDTH 13 0
BBX 12 18 0 -2
BITMAP
0600
0F80
1F80
1FC0
1FC0
1FC0
1FC0
9FD0
9FD0
9FD0
9F90
CF90
4720
3060
1FC0
0600
0200
3FC0
ENDCHAR
STARTCHAR F131
ENCODING 61745
SWIDTH 771 0
DWIDTH 15 0
BBX 15 18 0 -2
BITMAP
0380
07C0
0FE0
0FC6
0F8E
0F1C
0E38
4C74
48E4
41E4
43E4
07CC
1F88
3830
7FE0
E180
C100
1FF0
ENDCHAR
STARTCHAR F132
ENCODING 61746
SWIDTH 720 0
DWIDTH 14 0
BBX 14 16 0 -1
BITMAP
FFFC
FFFC
FE0C
FE0C
FE0C
FE0C
FE0C
FE0C
FE0C
FE0C
FE1C
7E18
3E38
1EF0
0FC0
0780
ENDCHAR
STARTCHAR F133
ENCODING 61747
SWIDTH 925 0
DWIDTH 18 0
BBX 18 20 0 -3
BITMAP
0C0C00
1E1E00
121200
F3F3C0
F3F3C0
F3F3C0
FFFFC0
800040
800040
800040
800040
800040
800040
800040
800040
800040
800040
800040
FFFFC0
FFFFC0
ENDCHAR
STARTCHAR F134
ENCODING 61748
SWIDTH 771 0
DWIDTH 15 0
BBX 14 17 0 -1
BITMAP
1C00
141C
1FFC
7C7C
C40C
8F00
1F80
1F80
1F80
1F80
1F80
1F80
1F80
1F80
1F80
1F80
1F80
ENDCHAR
STARTCHAR F135
ENCODING 61749
SWIDTH 925 0
DWIDTH 18 0
BBX 18 17 0 -2
BITMAP
0007C0
001FC0
003DC0
0079C0
00FF80
07FF80
3FFF00
3FFE00
7FFE00
FFF800
EFF000
07F000
03F000
01F000
01F000
01E000
038000
ENDCHAR
STARTCHAR F136
ENCODING 61750
SWIDTH 977 0
DWIDTH 19 0
BBX 19 14 0 0
BITMAP
7FFF00
7FFFC0
3FFFC0
3FFFE0
3C71E0
3871E0
38F1C0
78F1C0
78E3C0
78E3C0
71E3C0
71E380
F1E380
F1C380
ENDCHAR
STARTCHAR F137
ENCODING 61751
SWIDTH 874 0
DWIDTH 17 0
BBX 17 16 0 -1
BITMAP
07F000
1FFC00
3FBE00
7F1F00
7E1F00
FC3F80
F87F80
F0FF80
F0FF80
F87F80
FC3F80
7E1F00
7F1F00
3FBE00
1FFC00
07F000
ENDCHAR
STARTCHAR F138
ENCODING 61752
SWIDTH 874 0
DWIDTH 17 0
BBX 17 16 0 -1
BITMAP
07F000
1FFC00
3EFE00
7C7F00
7C3F00
FE1F80
FF0F80
FF8780
FF8780
FF0F80
FE1F80
7C3F00
7C7F00
3EFE00
1FFC00
07F000
ENDCHAR
STARTCHAR F139
ENCODING 61753
SWIDTH 874 0
DWIDTH 17 0
BBX 17 16 0 -1
BITMAP
07F000
1FFC00
3FFE00
7FFE00
7E3F00
FC1F00
F80F80
F08780
E1C380
E3E380
F7F700
7FFF00
7FFF00
3FFE00
1FFC00
07F000
ENDCHAR
STARTCHAR F13A
ENCODING 61754
SWIDTH 874 0
DWIDTH 17 0
BBX 17 16 0 -1
BITMAP
07F000
1FFC00
3FFE00
7FFE00
7FFF00
F7F700
E3E380
E1C380
F08780
F80F80
FC1F00
7E3F00
7F7F00
3FFE00
1FFC00
07F000
ENDCHAR
STARTCHAR F13B
ENCODING 61755
SWIDTH 771 0
DWIDTH 15 0
BBX 15 17 0 -2
BITMAP
FFFE
FFFE
FFFE
E00E
E00E
67FE
67FC
600C
600C
7FCC
67CC
711C
701C
7EFC
7FFC
3FF8
07C0
ENDCHAR
STARTCHAR F13C
ENCODING 61756
SWIDTH 977 0
DWIDTH 19 0
BBX 19 17 0 -2
BITMAP
1FFFE0
3FFFE0
3FFFC0
0001C0
0001C0
3FFFC0
7FFFC0
7FFF80
000380
000380
700380
700780
F80F80
FF7F00
7FFE00
1FF000
038000
ENDCHAR
STARTCHAR F13D
ENCODING 61757
SWIDTH 977 0
DWIDTH 19 0
BBX 19 20 0 -3
BITMAP
004000
01F000
01B000
01B000
01F000
00E000
00E000
03F800
03F800
03F800
00E000
00E000
00E000
F0E1E0
E0E0E0
F0E1E0
BCE7A0
1FFF00
0FFE00
00E000
ENDCHAR
STARTCHAR F13E
ENCODING 61758
SWIDTH 668 0
DWIDTH 13 0
BBX 12 17 0 0
BITMAP
0600
1F80
39C0
70E0
6060
6060
6000
6000
6000
FFF0
FFF0
FFF0
FFF0
FFF0
FFF0
FFF0
FFF0
ENDCHAR
STARTCHAR F140
ENCODING 61760
SWIDTH 874 0
DWIDTH 17 0
BBX 16 16 0 -1
BITMAP
07F0
1C18
308C
67F6
4C1A
D9C9
93E5
93E5
93E5
93E5
D9C9
4C1A
67F6
318C
1C18
07F0
ENDCHAR
STARTCHAR F141
ENCODING 61761
SWIDTH 771 0
DWIDTH 15 0
BBX 15 4 0 5
BITMAP
F39E
F7DE
F7DE
F7DE
ENDCHAR
STARTCHAR F142
ENCODING 61762
SWIDTH 205 0
DWIDTH 4 0
BBX 4 15 0 1
BITMAP
F0
F0
F0
F0
00
F0
F0
F0
F0
00
00
F0
F0
F0
F0
ENDCHAR
STARTCHAR F143
ENCODING 61763
SWIDTH 874 0
DWIDTH 17 0
BBX 17 16 0 -1
BITMAP
7FFF00
FFFF80
FFFF80
E1FF80
E07F80
FC3F80
FF1F80
E78F80
E1C780
F8E780
FC6380
E27380
E23380
F73380
FFFF80
7FFF00
ENDCHAR
STARTCHAR F144
ENCODING 61764
SWIDTH 874 0
DWIDTH 17 0
BBX 17 16 0 -1
BITMAP
07F000
1FFC00
3FFE00
7FFF00
7CFF00
FC7F80
FC1F80
FC0780
FC0780
FC1F80
FC3F80
7CFF00
7FFF00
3FFE00
1FFC00
07F000
ENDCHAR
STARTCHAR F145
ENCODING 61765
SWIDTH 977 0
DWIDTH 19 0
BBX 18 18 1 -2
BITMAP
003000
007800
00F800
01D800
03A800
077780
0EFBC0
1DFDC0
3BFB80
77F700
EFEE00
F7DC00
7BB800
057000
06E000
07C000
078000
030000
ENDCHAR
STARTCHAR F146
ENCODING 61766
SWIDTH 874 0
DWIDTH 17 0
BBX 17 16 0 -1
BITMAP
7FFF00
FFFF80
FFFF80
FFFF80
FFFF80
FFFF80
FFFF80
E00380
E00380
FFFF80
FFFF80
FFFF80
FFFF80
FFFF80
FFFF80
7FFF00
ENDCHAR
STARTCHAR F147
ENCODING 61767
SWIDTH 771 0
DWIDTH 15 0
BBX 15 15 0 1
BITMAP
7FFC
C006
8002
8002
8002
8002
8002
9FF2
8002
8002
8002
8002
8002
C006
7FFC
ENDCHAR
STARTCHAR F148
ENCODING 61768
SWIDTH 565 0
DWIDTH 11 0
BBX 11 15 0 1
BITMAP
0300
0700
0F80
1FC0
3FE0
0700
0700
0700
0700
0700
0700
0700
7F00
FF00
FF00
ENDCHAR
STARTCHAR F149
ENCODING 61769
SWIDTH 565 0
DWIDTH 11 0
BBX 11 15 0 -2
BITMAP
FF00
FF00
7F00
0700
0700
0700
0700
0700
0700
0700
3FE0
1FC0
0F80
0780
0300
ENDCHAR
STARTCHAR F14A
ENCODING 61770
SWIDTH 874 0
DWIDTH 17 0
BBX 16 16 0 -1
BITMAP
7FFE
FFFF
FFFF
FFFF
FFE7
FFC3
EF87
C70F
C21F
E03F
F07F
F8FF
FDFF
FFFF
FFFF
7FFE
ENDCHAR
STARTCHAR F14B
ENCODING 61771
SWIDTH 874 0
DWIDTH 17 0
BBX 17 16 0 -1
BITMAP
7FFF00
FFFF80
FFFF80
FFC780
FFC380
FF2380
FE1780
FD8F80
FA1F80
F03F80
E87F80
ECFF80
E5FF80
E3FF80
FFFF80
7FFF00
ENDCHAR
STARTCHAR F14C
ENCODING 61772
SWIDTH 874 0
DWIDTH 17 0
BBX 17 16 0 -1
BITMAP
7FFF00
FFFF80
FF0780
FE0380
FF0380
FF8380
FF0380
FE0380
FC3380
F87F80
F0FF80
E1FF80
F3FF80
FFFF80
FFFF80
7FFF00
ENDCHAR
STARTCHAR F14D
ENCODING 61773
SWIDTH 874 0
DWIDTH 17 0
BBX 16 16 0 -1
BITMAP
7FFE
FFDF
FFCF
FFC7
FC03
F001
F001
E003
E1C7
E3CF
E7FF
E7FF
E7FF
F7FF
FFFF
7FFE
ENDCHAR
STARTCHAR F14E
ENCODING 61774
SWIDTH 874 0
DWIDTH 17 0
BBX 16 16 0 -1
BITMAP
07F0
1FF8
3C3C
700E
6026
E0E7
C3E3
C3E3
C263
C2E3
E387
6206
700E
3C1C
1FF8
07F0
ENDCHAR
STARTCHAR F150
ENCODING 61776
SWIDTH 874 0
DWIDTH 17 0
BBX 17 16 0 -1
BITMAP
7FFF00
FFFF80
E00380
E00380
E00380
EFF380
EFFB80
E7F380
E3E380
E1C380
E1C380
E08380
E00380
E00380
FFFF80
7FFF00
ENDCHAR
STARTCHAR F151
ENCODING 61777
SWIDTH 874 0
DWIDTH 17 0
BBX 17 16 0 -1
BITMAP
7FFF00
FFFF80
E00380
E00380
E00380
E18380
E1C380
E3E380
E7F380
E7F380
EFFB80
E00380
E00380
E00380
FFFF80
7FFF00
ENDCHAR
STARTCHAR F152
ENCODING 61778
SWIDTH 874 0
DWIDTH 17 0
BBX 17 16 0 -1
BITMAP
7FFF00
FFFF80
E00380
E00380
E20380
E38380
E3C380
E3F380
E3F380
E3C380
E38380
E30380
E00380
E00380
FFFF80
7FFF00
ENDCHAR
STARTCHAR F153
ENCODING 61779
SWIDTH 565 0
DWIDTH 11 0
BBX 11 15 0 1
BITMAP
07E0
0FC0
1E00
3800
7000
FFC0
FF80
7000
FF80
FF80
3800
3C00
1F60
0FE0
03E0
ENDCHAR
STARTCHAR F154
ENCODING 61780
SWIDTH 565 0
DWIDTH 11 0
BBX 11 15 0 1
BITMAP
1F80
3FC0
7880
7000
7000
7000
FF00
FF00
FF00
7000
7060
7060
7060
FFE0
FFE0
ENDCHAR
STARTCHAR F155
ENCODING 61781
SWIDTH 565 0
DWIDTH 11 0
BBX 10 20 1 -3
BITMAP
0C00
0C00
0C00
3F80
7F80
E180
E000
E000
F800
7E00
1F80
0780
01C0
01C0
61C0
FF80
7F00
0C00
0C00
0C00
ENDCHAR
STARTCHAR F156
ENCODING 61782
SWIDTH 514 0
DWIDTH 10 0
BBX 10 15 0 1
BITMAP
FFC0
FFC0
0F00
FFC0
FFC0
0700
1E00
FC00
F000
7000
3800
1C00
0E00
0F00
0700
ENDCHAR
STARTCHAR F157
ENCODING 61783
SWIDTH 565 0
DWIDTH 11 0
BBX 11 15 0 1
BITMAP
E0E0
60E0
71C0
3980
3B80
1F00
7F00
7FE0
0E00
7FC0
7FE0
0E00
0E00
0E00
0E00
ENDCHAR
STARTCHAR F158
ENCODING 61784
SWIDTH 720 0
DWIDTH 14 0
BBX 14 15 0 1
BITMAP
1FF0
1FF8
1C3C
1C1C
1C1C
1C1C
1C3C
FFF8
FFF0
1C00
FFE0
FFE0
FFE0
1C00
1C00
ENDCHAR
STARTCHAR F159
ENCODING 61785
SWIDTH 977 0
DWIDTH 19 0
BBX 19 15 0 1
BITMAP
60E0C0
60E0C0
60E0C0
70E1C0
FFFFE0
31B180
31B180
FFFFE0
1B1B00
1B1B00
1B1B00
1E1F00
0E0E00
0E0E00
0E0E00
ENDCHAR
STARTCHAR F15A
ENCODING 61786
SWIDTH 720 0
DWIDTH 14 0
BBX 12 18 1 -2
BITMAP
1200
1200
FF00
FFC0
39E0
38E0
38E0
39E0
3FE0
39F0
3870
3870
38F0
FFE0
FFC0
1200
1200
1200
ENDCHAR
STARTCHAR F15B
ENCODING 61787
SWIDTH 874 0
DWIDTH 17 0
BBX 17 20 0 -3
BITMAP
7FC000
FFD000
FFD800
FFDC00
FFDE00
FFDF00
FFC000
FFFF80
FFFF80
FFFF80
FFFF80
FFFF80
FFFF80
FFFF80
FFFF80
FFFF80
FFFF80
FFFF80
FFFF80
FFFF80
ENDCHAR
STARTCHAR F15C
ENCODING 61788
SWIDTH 874 0
DWIDTH 17 0
BBX 17 20 0 -3
BITMAP
7FC000
FFD000
FFD800
FFDC00
FFDE00
FFDF00
FFC000
FFFF80
FFFF80
F00780
FFFF80
F00780
F00780
FFFF80
F00780
F00780
FFFF80
FFFF80
FFFF80
FFFF80
ENDCHAR
STARTCHAR F15D
ENCODING 61789
SWIDTH 925 0
DWIDTH 18 0
BBX 17 20 1 -3
BITMAP
380C00
380C00
381E00
381200
381200
383F00
383100
387380
380000
380000
380000
383F00
382300
382600
380400
FE0C00
FE1800
7C1900
383F00
103F00
ENDCHAR
STARTCHAR F15E
ENCODING 61790
SWIDTH 925 0
DWIDTH 18 0
BBX 17 20 1 -3
BITMAP
383F00
383F00
382600
380600
380C00
381800
381900
383F00
383F00
380000
380000
380C00
380C00
381E00
381200
381200
FE3F00
7C3300
382100
107380
ENDCHAR
STARTCHAR F160
ENCODING 61792
SWIDTH 977 0
DWIDTH 19 0
BBX 18 20 1 -3
BITMAP
387000
387000
387000
380000
380000
380000
387C00
387C00
387C00
380000
380000
387F00
387F00
387F00
380000
380000
FE0000
7C7FC0
387FC0
107FC0
ENDCHAR
STARTCHAR F161
ENCODING 61793
SWIDTH 977 0
DWIDTH 19 0
BBX 18 20 1 -3
BITMAP
387FC0
387FC0
387FC0
380000
380000
380000
387F00
387F00
387F00
380000
380000
387C00
387C00
387C00
380000
380000
FE0000
7C7000
387000
107000
ENDCHAR
STARTCHAR F162
ENCODING 61794
SWIDTH 874 0
DWIDTH 17 0
BBX 15 19 1 -3
BITMAP
3818
3878
3808
3808
3808
3808
3808
387E
3800
3800
3800
383C
3866
3842
3862
FE3E
7C06
380C
1078
ENDCHAR
STARTCHAR F163
ENCODING 61795
SWIDTH 874 0
DWIDTH 17 0
BBX 15 20 1 -3
BITMAP
3818
383C
3842
3842
387E
381A
3806
383C
3838
3800
3800
3808
3818
3878
3808
3808
FE08
7C08
3808
107E
ENDCHAR
STARTCHAR F164
ENCODING 61796
SWIDTH 925 0
DWIDTH 18 0
BBX 17 16 0 -1
BITMAP
007000
007800
007800
00F800
01F000
01FF00
03FF80
F7FF80
F7FF80
F7FF00
F7FF00
F7FF00
97FF00
F7FE00
F7FE00
01FE00
ENDCHAR
STARTCHAR F165
ENCODING 61797
SWIDTH 925 0
DWIDTH 18 0
BBX 17 17 0 -3
BITMAP
007C00
E7FE00
F7FE00
B7FF00
F7FF00
F7FF00
F7FF00
F7FF00
F7FF80
F7FF80
03FF00
01F000
00F000
007800
007800
007000
002000
ENDCHAR
STARTCHAR F166
ENCODING 61798
SWIDTH 874 0
DWIDTH 17 0
BBX 16 16 0 -1
BITMAP
7FFF
FDFF
FA5F
FADF
FADF
FA4F
FFFF
E003
DC83
CBAB
CBF7
CBBF
CBB7
C04B
E007
7FFE
ENDCHAR
STARTCHAR F167
ENCODING 61799
SWIDTH 874 0
DWIDTH 17 0
BBX 16 19 0 -3
BITMAP
1600
1498
0D58
0958
0958
0958
09D8
0000
7FFE
FFFF
87BF
CFBB
CAB5
CAB5
CAB7
CAB5
C891
FFFF
7FFE
ENDCHAR
STARTCHAR F168
ENCODING 61800
SWIDTH 771 0
DWIDTH 15 0
BBX 15 18 0 -2
BITMAP
000E
001E
003C
003C
7878
3870
3CF0
1CE0
3DE0
39C0
7BC0
7380
F3C0
01E0
01E0
00F0
0070
0078
ENDCHAR
STARTCHAR F169
ENCODING 61801
SWIDTH 874 0
DWIDTH 17 0
BBX 16 16 0 -1
BITMAP
7FFE
FFE3
FFE7
FFC7
E38F
F18F
F11F
F11F
E23F
E23F
C63F
FF1F
FF1F
FF8F
FF8F
7FFE
ENDCHAR
STARTCHAR F16A
ENCODING 61802
SWIDTH 977 0
DWIDTH 19 0
BBX 19 14 0 0
BITMAP
3FFF80
7FFFC0
FFFFE0
FE7FE0
FE3FE0
FE0FE0
FE07E0
FE07E0
FE0FE0
FE3FE0
FE7FE0
FFFFE0
7FFFC0
3FFF80
ENDCHAR
STARTCHAR F16B
ENCODING 61803
SWIDTH 977 0
DWIDTH 19 0
BBX 18 16 1 -1
BITMAP
0C0C00
3F3F00
7FFF80
FF3FC0
3C0F00
100200
100200
3C0F00
7F3F80
FFFFC0
3FFF00
0DEC00
03F000
0FFC00
03F000
00C000
ENDCHAR
STARTCHAR F16C
ENCODING 61804
SWIDTH 874 0
DWIDTH 17 0
BBX 15 19 0 -2
BITMAP
0030
0030
0118
018C
00CC
0076
063A
079C
01E8
0078
0F10
0FF0
8076
8006
9FF6
8006
8006
FFFE
FFFE
ENDCHAR
STARTCHAR F16D
ENCODING 61805
SWIDTH 874 0
DWIDTH 17 0
BBX 16 16 0 -1
BITMAP
FFFF
FFFF
FFF1
FFF1
FFF1
FC3F
F81F
9009
9009
9819
8C31
8FF1
87E1
8001
FFFF
FFFF
ENDCHAR
STARTCHAR F16E
ENCODING 61806
SWIDTH 874 0
DWIDTH 17 0
BBX 17 16 0 -1
BITMAP
7FFF00
FFFF80
FFFF80
FFFF80
FFFF80
FFFF80
F1C780
E08380
E08380
F1C780
FFFF80
FFFF80
FFFF80
FFFF80
FFFF80
7FFF00
ENDCHAR
STARTCHAR F170
ENCODING 61808
SWIDTH 874 0
DWIDTH 17 0
BBX 17 16 0 -1
BITMAP
07F000
1FFC00
3FFE00
7F7F00
7F7F00
FEBF80
FC9F80
FDDF80
F80F80
F7F780
F7F780
7FFF00
7FFF00
3FFE00
1FFC00
07F000
ENDCHAR
STARTCHAR F171
ENCODING 61809
SWIDTH 771 0
DWIDTH 15 0
BBX 15 18 1 -3
BITMAP
0FC0
7FFC
C00E
F87E
FFFE
FFFE
FEFC
F87C
7B3C
7B3C
7C7C
3FF8
0FE0
2030
3FF0
3FF0
3FF0
0FC0
ENDCHAR
STARTCHAR F172
ENCODING 61810
SWIDTH 874 0
DWIDTH 17 0
BBX 17 16 0 -1
BITMAP
7FFF00
FFFF80
F00780
E7F380
E00380
E00380
E0C780
E14780
F14780
F08780
FC1F80
F3EF80
F80F80
F80F80
FFFF80
7FFF00
ENDCHAR
STARTCHAR F173
ENCODING 61811
SWIDTH 565 0
DWIDTH 11 0
BBX 10 18 1 -2
BITMAP
0C00
1C00
1C00
3C00
3C00
FFC0
FFC0
FFC0
3C00
3C00
3C00
3C00
3C00
3C00
3E00
3FC0
1FC0
0FC0
ENDCHAR
STARTCHAR F174
ENCODING 61812
SWIDTH 874 0
DWIDTH 17 0
BBX 17 16 0 -1
BITMAP
7FFF00
FE7F80
FE7F80
FC7F80
F87F80
F00F80
F00F80
FC7F80
FC7F80
FC7F80
FC7F80
FC7F80
FC0F80
FE0F80
FF0F80
7FFF00
ENDCHAR
STARTCHAR F175
ENCODING 61813
SWIDTH 411 0
DWIDTH 8 0
BBX 9 19 0 -3
BITMAP
1C00
1C00
1C00
1C00
1C00
1C00
1C00
1C00
1C00
1C00
1C00
1C00
1C00
1C00
FF80
7F00
3E00
1C00
0800
ENDCHAR
STARTCHAR F176
ENCODING 61814
SWIDTH 411 0
DWIDTH 8 0
BBX 9 19 0 -3
BITMAP
0800
1C00
3E00
7F00
FF80
1C00
1C00
1C00
1C00
1C00
1C00
1C00
1C00
1C00
1C00
1C00
1C00
1C00
1C00
ENDCHAR
STARTCHAR F177
ENCODING 61815
SWIDTH 977 0
DWIDTH 19 0
BBX 19 8 1 3
BITMAP
080000
180000
380000
FFFFE0
FFFFE0
780000
180000
080000
ENDCHAR
STARTCHAR F178
ENCODING 61816
SWIDTH 977 0
DWIDTH 19 0
BBX 19 8 0 3
BITMAP
000200
000300
000380
FFFFE0
FFFFE0
0003C0
000300
000200
ENDCHAR
STARTCHAR F179
ENCODING 61817
SWIDTH 771 0
DWIDTH 15 0
BBX 15 18 0 -2
BITMAP
0020
0060
00E0
00C0
01B0
3FFC
7FFC
FFF8
FFF8
FFF8
FFF8
FFF8
FFFC
7FFE
7FFE
3FFC
3FF8
1FF8
ENDCHAR
STARTCHAR F17A
ENCODING 61818
SWIDTH 925 0
DWIDTH 18 0
BBX 18 18 0 -2
BITMAP
000FC0
06FFC0
FEFFC0
FEFFC0
FEFFC0
FEFFC0
FEFFC0
FEFFC0
000000
FEFFC0
FEFFC0
FEFFC0
FEFFC0
FEFFC0
FEFFC0
7EFFC0
007FC0
0000C0
ENDCHAR
STARTCHAR F17B
ENCODING 61819
SWIDTH 771 0
DWIDTH 15 0
BBX 15 17 0 -1
BITMAP
07C0
0FE0
1BB0
1FF0
0000
DFF6
DFF6
DFF6
DFF6
DFF6
DFF6
1FF0
1FF0
06C0
06C0
06C0
06C0
ENDCHAR
STARTCHAR F17C
ENCODING 61820
SWIDTH 874 0
DWIDTH 17 0
BBX 16 20 0 -3
BITMAP
0180
07C0
07E0
0520
07A0
0660
0770
0530
0838
1818
101C
100C
300C
300C
083C
8C20
0422
0263
85E4
7A18
ENDCHAR
STARTCHAR F17D
ENCODING 61821
SWIDTH 874 0
DWIDTH 17 0
BBX 17 16 0 -1
BITMAP
07F000
1E0C00
330600
618F00
419900
80F180
FFC080
F07880
80FF80
83A080
C63180
4C1100
781300
301E00
1C1C00
07F000
ENDCHAR
STARTCHAR F17E
ENCODING 61822
SWIDTH 874 0
DWIDTH 17 0
BBX 17 16 0 -1
BITMAP
3F8000
7FF000
FFFC00
FC1C00
F00E00
F1CF00
71FF00
701F00
7C0700
7FC700
71C780
300780
3C1F80
1FFF80
0FFF00
01FE00
ENDCHAR
STARTCHAR F180
ENCODING 61824
SWIDTH 720 0
DWIDTH 14 0
BBX 12 18 1 -2
BITMAP
7FE0
FFF0
8030
8030
8030
8060
8FE0
87E0
8060
8060
80C0
8FC0
9FC0
B800
F000
E000
E000
C000
ENDCHAR
STARTCHAR F181
ENCODING 61825
SWIDTH 874 0
DWIDTH 17 0
BBX 16 16 0 -1
BITMAP
FFFF
8081
8081
8081
8081
8081
8081
8081
8081
80FF
80FF
80FF
80FF
FFFF
FFFF
FFFF
ENDCHAR
STARTCHAR F182
ENCODING 61826
SWIDTH 720 0
DWIDTH 14 0
BBX 14 19 0 -2
BITMAP
0780
0780
0780
0780
0000
1FE0
1FE0
3FF0
77B8
6798
EFDC
DFEC
1FE0
3FF0
3FF0
0780
0780
0780
0780
ENDCHAR
STARTCHAR F183
ENCODING 61827
SWIDTH 565 0
DWIDTH 11 0
BBX 11 19 0 -2
BITMAP
0E00
1F00
1F00
0E00
0400
7FC0
FFE0
FFE0
DF60
DF60
DF60
DF60
1F00
1B00
1B00
1B00
1B00
1B00
1B00
ENDCHAR
STARTCHAR F184
ENCODING 61828
SWIDTH 874 0
DWIDTH 17 0
BBX 17 16 0 -1
BITMAP
07F000
1FFC00
3FFE00
7FFF00
7FFF00
F88780
F00780
F80F80
FC0F80
FC1F80
FE3F80
7F7F00
7FFF00
3FFE00
1FFC00
07F000
ENDCHAR
STARTCHAR F185
ENCODING 61829
SWIDTH 977 0
DWIDTH 19 0
BBX 19 20 0 -3
BITMAP
004000
00E000
18E300
1FFF00
1E0F00
180300
7001C0
F001E0
6000C0
200080
200080
6000C0
F001E0
7001C0
180300
1C0700
1FFF00
18E300
00E000
004000
ENDCHAR
STARTCHAR F186
ENCODING 61830
SWIDTH 874 0
DWIDTH 17 0
BBX 15 16 0 -1
BITMAP
0700
1F00
3600
6400
4400
C400
8400
8600
8200
8300
C180
40FE
601E
300C
1838
0FF0
ENDCHAR
STARTCHAR F187
ENCODING 61831
SWIDTH 977 0
DWIDTH 19 0
BBX 18 16 1 -1
BITMAP
FFFFC0
FFFFC0
FFFFC0
FFFFC0
000000
7FFF80
7FFF80
7E1F80
7FFF80
7FFF80
7FFF80
7FFF80
7FFF80
7FFF80
7FFF80
7FFF80
ENDCHAR
STARTCHAR F188
ENCODING 61832
SWIDTH 925 0
DWIDTH 18 0
BBX 17 17 0 -2
BITMAP
01C000
03E000
07F000
600300
300600
1FFC00
1F7C00
1F7C00
1F7C00
FF7F80
1F7C00
1F7C00
1F7C00
0F7800
1F7C00
336600
600300
ENDCHAR
STARTCHAR F189
ENCODING 61833
SWIDTH 1080 0
DWIDTH 21 0
BBX 21 12 0 -1
BITMAP
01F000
F8F0F8
78F1F0
7CF1F0
3CF3E0
3EF7C0
1FFF80
1FFFC0
0FFFE0
07FBF0
03F1F8
00F0F8
ENDCHAR
STARTCHAR F18A
ENCODING 61834
SWIDTH 977 0
DWIDTH 19 0
BBX 19 16 0 0
BITMAP
000700
0007C0
0100C0
078360
0F81A0
1FFCA0
3FFCA0
7C1C00
F00700
E3C380
E76380
E9E380
E9E300
77CE00
1C3C00
07F000
ENDCHAR
STARTCHAR F18B
ENCODING 61835
SWIDTH 874 0
DWIDTH 17 0
BBX 17 16 0 -1
BITMAP
063000
1E3C00
3E3E00
7E3F00
7E3F00
FE3F80
FE3F80
FE3F80
FC1F80
FC1F80
F88F80
788F00
71C700
01C000
03E000
07F000
ENDCHAR
STARTCHAR F18C
ENCODING 61836
SWIDTH 771 0
DWIDTH 15 0
BBX 15 20 0 -3
BITMAP
0200
0380
0380
03C0
03C0
0180
3CBC
3EFC
1FFC
0FF0
0080
FD38
7F7E
7FFC
1FF8
0200
0400
0800
3000
C000
ENDCHAR
STARTCHAR F18D
ENCODING 61837
SWIDTH 720 0
DWIDTH 14 0
BBX 13 16 0 -3
BITMAP
7FF0
FFF8
FFF8
0000
FFF8
FFF8
FFF8
FFF8
FFF8
FFF8
0000
FFF8
FFF8
7FF0
00C0
0080
ENDCHAR
STARTCHAR F18E
ENCODING 61838
SWIDTH 874 0
DWIDTH 17 0
BBX 16 16 0 -1
BITMAP
07E0
1FF8
3C3C
700E
6086
E0C7
C0E3
CFF3
CFF3
C0E3
E0C7
6086
700E
3C3C
1FF8
0FF0
ENDCHAR
STARTCHAR F190
ENCODING 61840
SWIDTH 874 0
DWIDTH 17 0
BBX 16 16 0 -1
BITMAP
07E0
1FF8
3C3C
700E
6106
E307
C703
CFF3
CFF3
C703
E307
6106
700E
3C3C
1FF8
0FF0
ENDCHAR
STARTCHAR F191
ENCODING 61841
SWIDTH 874 0
DWIDTH 17 0
BBX 17 16 0 -1
BITMAP
7FFF00
FFFF80
E00380
E00380
E06380
E0E380
E1E380
E7E380
E7E380
E3E380
E0E380
E06380
E00380
E00380
FFFF80
7FFF00
ENDCHAR
STARTCHAR F192
ENCODING 61842
SWIDTH 874 0
DWIDTH 17 0
BBX 16 16 0 -1
BITMAP
07E0
1FF8
3C3C
700E
6006
E187
C3C3
C7E3
C7E3
C3C3
E187
6006
700E
3C3C
1FF8
0FF0
ENDCHAR
STARTCHAR F193
ENCODING 61843
SWIDTH 925 0
DWIDTH 18 0
BBX 17 19 0 -2
BITMAP
060000
0F0000
0E0000
040000
040000
040000
07E000
37E000
660000
47F000
C01800
800800
800C00
801480
C03780
403200
606000
3FC000
0F0000
ENDCHAR
STARTCHAR F194
ENCODING 61844
SWIDTH 874 0
DWIDTH 17 0
BBX 17 16 0 -1
BITMAP
7FFF00
FFFF80
FFFF80
F3C380
E18380
81C380
F1C380
F1C780
F08780
F80F80
F81F80
F83F80
FC7F80
FFFF80
FFFF80
7FFF00
ENDCHAR
STARTCHAR F195
ENCODING 61845
SWIDTH 668 0
DWIDTH 13 0
BBX 12 15 0 1
BITMAP
1800
19C0
1FC0
FE00
F9C0
9FC0
7F00
F830
9830
1830
1860
18E0
1FC0
1F80
1E00
ENDCHAR
STARTCHAR F196
ENCODING 61846
SWIDTH 771 0
DWIDTH 15 0
BBX 15 15 0 1
BITMAP
7FFC
C006
8102
8102
8102
8102
8102
9FF2
8102
8102
8102
8102
8002
C006
7FFC
ENDCHAR
STARTCHAR F197
ENCODING 61847
SWIDTH 1234 0
DWIDTH 24 0
BBX 23 15 1 -2
BITMAP
0C0000
1E0000
1F0000
1F8000
1FC000
77FE00
FFFFF8
FFFFEE
FFFFCC
7C0030
1FFF00
1FC000
1F8000
1F0000
1E0000
ENDCHAR
STARTCHAR F198
ENCODING 61848
SWIDTH 925 0
DWIDTH 18 0
BBX 18 18 0 -2
BITMAP
006000
00F000
007000
387F00
38FF00
1FFE00
3FF800
FFBC00
FE1C00
EE1FC0
0E1FC0
0FFF80
07FE00
1FFF00
3F8700
3F8700
038000
018000
ENDCHAR
STARTCHAR F199
ENCODING 61849
SWIDTH 874 0
DWIDTH 17 0
BBX 17 16 0 -1
BITMAP
7FFF00
FFFF80
FFFF80
FFFF80
E00380
E00380
F00780
EC1B80
E22380
E1C380
E00380
E00380
FFFF80
FFFF80
FFFF80
7FFF00
ENDCHAR
STARTCHAR F19A
ENCODING 61850
SWIDTH 977 0
DWIDTH 19 0
BBX 19 20 0 -3
BITMAP
00E000
071C00
1BFB00
27FC80
5FF840
420840
871C20
C79CA0
A79E60
638EE0
638EE0
F38DE0
B1CDE0
B965A0
596340
58E340
2CF480
10F100
0C0200
03FC00
ENDCHAR
STARTCHAR F19B
ENCODING 61851
SWIDTH 977 0
DWIDTH 19 0
BBX 20 17 0 -1
BITMAP
003000
007000
007000
007000
007000
077F00
1F7FE0
3C71E0
7073E0
E07030
E07000
E07000
E07000
707000
3C7000
1FF000
07E000
ENDCHAR
STARTCHAR F19C
ENCODING 61852
SWIDTH 1131 0
DWIDTH 22 0
BBX 21 20 0 -3
BITMAP
002000
00F800
07FF00
1FFFC0
FFFFF8
FFFFF8
3FFFE0
1DDDC0
1DDDC0
1DDDC0
1DDDC0
1DDDC0
1DDDC0
1DDDC0
1DDDC0
1DDDC0
3FFFE0
000000
FFFFF8
FFFFF8
ENDCHAR
STARTCHAR F19D
ENCODING 61853
SWIDTH 1285 0
DWIDTH 25 0
BBX 25 16 0 -1
BITMAP
003E0000
01FFC000
0FFFF800
FFFFFF80
7FFFFF00
0FFFF800
19FFC000
101C0000
1380E000
3BFFE000
3BFFE000
13FFE000
11FFC000
381C0000
38000000
38000000
ENDCHAR
STARTCHAR F19E
ENCODING 61854
SWIDTH 874 0
DWIDTH 17 0
BBX 14 18 1 -2
BITMAP
C00C
6018
7018
3030
1870
1860
0CE0
0EC0
0780
0780
0300
0300
0300
0300
0300
0300
0300
0300
ENDCHAR
STARTCHAR F1A0
ENCODING 61856
SWIDTH 874 0
DWIDTH 17 0
BBX 16 16 0 -1
BITMAP
07F0
1FF8
3FF8
7C10
7000
F000
E000
E0FF
E0FF
E0FF
F007
700F
781E
3FFC
1FFC
0FF0
ENDCHAR
STARTCHAR F1A1
ENCODING 61857
SWIDTH 977 0
DWIDTH 19 0
BBX 19 20 0 -3
BITMAP
00E000
07FC00
0FFE00
1FFF00
3FD380
7FF3C0
7FBFC0
7FBFC0
FA0BC0
F001E0
F113E0
F913E0
7803C0
7DB7C0
7E4FC0
3FFF80
1FFF00
0FFE00
07FC00
01F000
ENDCHAR
STARTCHAR F1A2
ENCODING 61858
SWIDTH 874 0
DWIDTH 17 0
BBX 16 16 0 -1
BITMAP
7FFE
FFFF
FFFF
FF0F
FF4F
FFFF
FC3F
E007
E247
F24F
F00F
F9DF
FFFF
FFFF
FFFF
7FFE
ENDCHAR
STARTCHAR F1A3
ENCODING 61859
SWIDTH 874 0
DWIDTH 17 0
BBX 17 16 0 -1
BITMAP
07F000
1FFC00
3FFE00
7FFF00
7F7F00
FC3F80
FCBF80
FCFF80
E4E780
E4A780
E08780
79CF00
7FFF00
3FFE00
1FFC00
07F000
ENDCHAR
STARTCHAR F1A4
ENCODING 61860
SWIDTH 1080 0
DWIDTH 21 0
BBX 21 16 0 -2
BITMAP
003000
00FC00
01FE00
03FF00
03CF00
03CF00
03CF00
03C000
03C000
F3CF78
F3CF78
F3CF78
F3CF78
FFCFF8
7F87F0
3F03E0
ENDCHAR
STARTCHAR F1A5
ENCODING 61861
SWIDTH 874 0
DWIDTH 17 0
BBX 17 17 0 -1
BITMAP
7FFF00
80FF80
80FF80
80FF80
80FF80
80FF80
80FF80
80FF80
FF8080
FF8080
FF8080
FF8080
FF8080
FF8080
FF8080
7F8100
007E00
ENDCHAR
STARTCHAR F1A6
ENCODING 61862
SWIDTH 1131 0
DWIDTH 22 0
BBX 22 14 0 0
BITMAP
0D8000
0D8000
0D8000
FDBE7C
FDBE7C
CDB66C
CDB66C
CDB66C
CDB66C
FDBE7C
FDBE7C
00060C
003E7C
003E7C
ENDCHAR
STARTCHAR F1A7
ENCODING 61863
SWIDTH 874 0
DWIDTH 17 0
BBX 17 16 0 -1
BITMAP
7FFF00
FCFF80
E07F80
E23F80
E33F80
E33F80
E04F80
E08780
E36380
E26380
E66380
FE0780
FE0F80
FE7F80
FE7F80
7FFF00
ENDCHAR
STARTCHAR F1A8
ENCODING 61864
SWIDTH 1131 0
DWIDTH 22 0
BBX 20 19 1 -2
BITMAP
000010
000020
000040
000080
001B00
007C00
007800
007800
017800
0F9C00
F49A00
037F00
01FD80
009DC0
0019C0
0019E0
001CF0
001CE0
001800
ENDCHAR
STARTCHAR F1A9
ENCODING 61865
SWIDTH 874 0
DWIDTH 17 0
BBX 17 19 0 -2
BITMAP
008000
01C000
03F000
0FF800
1FFE00
3FFE00
7FFF00
7FFF00
FFFF80
FFFF80
FCFF80
F83880
F01080
701100
707900
3FBE00
1FFC00
0F9800
01E000
ENDCHAR
STARTCHAR F1AA
ENCODING 61866
SWIDTH 874 0
DWIDTH 17 0
BBX 17 16 0 -1
BITMAP
700700
7C0F80
7F7F80
7EFF00
31C600
33A600
3F7E00
1E3C00
0E1C00
376C00
33E600
31C600
7FBF00
7F7F80
FE3F80
700700
ENDCHAR
STARTCHAR F1AB
ENCODING 61867
SWIDTH 874 0
DWIDTH 17 0
BBX 17 20 0 -3
BITMAP
200200
3C1E00
3FE200
3CE200
20FE00
C0FF80
08F780
14F380
3CEB80
08EB80
14C180
12D980
20FD80
00FF80
037F80
1C0F80
E00180
000C00
081000
07E000
ENDCHAR
STARTCHAR F1AC
ENCODING 61868
SWIDTH 977 0
DWIDTH 19 0
BBX 19 20 0 -3
BITMAP
03FE00
03FF00
020380
0203C0
220040
FA0040
FA0040
FBFFE0
FBFFE0
FBFFE0
FB24E0
FB24E0
FBFFE0
FB24E0
FB24E0
FBFFE0
FB24E0
FBFFE0
FBFFE0
71FFC0
ENDCHAR
STARTCHAR F1AD
ENCODING 61869
SWIDTH 874 0
DWIDTH 17 0
BBX 15 20 0 -3
BITMAP
FFFE
FFFE
FFFE
E92E
EDEE
FFFE
E92E
FFFE
FFFE
E92E
FFFE
E92E
E92E
FFFE
EFEE
EFEE
F83E
F83E
FFFE
FFFE
ENDCHAR
STARTCHAR F1AE
ENCODING 61870
SWIDTH 720 0
DWIDTH 14 0
BBX 12 18 1 -3
BITMAP
0E00
0F00
1F00
CF70
EEE0
7FC0
3F80
1F00
1F00
1F00
1F00
1F00
1B00
1B00
1B00
1B00
1B00
0900
ENDCHAR
STARTCHAR F1B0
ENCODING 61872
SWIDTH 925 0
DWIDTH 18 0
BBX 18 16 0 -1
BITMAP
0E1C00
0F3C00
0F3C00
0F3C00
0F3C00
673980
F003C0
F807C0
F8C7C0
7BF780
37FB00
0FFC00
1FFE00
1FFE00
1FFE00
1F3E00
ENDCHAR
STARTCHAR F1B1
ENCODING 61873
SWIDTH 411 0
DWIDTH 8 0
BBX 7 20 1 -3
BITMAP
10
7C
7C
FE
FE
FE
FE
FE
7C
7C
38
38
38
38
38
38
38
38
38
38
ENDCHAR
STARTCHAR F1B2
ENCODING 61874
SWIDTH 977 0
DWIDTH 19 0
BBX 18 18 0 -2
BITMAP
01E000
0F3C00
780780
C000C0
E001C0
FC0F40
FFFC40
FFE040
FFC040
FFC040
FFC040
FFC040
FFC0C0
7FC380
1FC600
0FD800
03F000
00C000
ENDCHAR
STARTCHAR F1B3
ENCODING 61875
SWIDTH 1285 0
DWIDTH 25 0
BBX 23 20 0 -3
BITMAP
001000
007E00
01C380
0300C0
0381C0
03EF40
03FC40
03F040
07F0E0
1DF7B8
707E0E
E03806
F8FF1E
FF9FF2
FE1FC2
FE1FC2
FE3FC6
3EEFDC
0F83F0
020040
ENDCHAR
STARTCHAR F1B4
ENCODING 61876
SWIDTH 1131 0
DWIDTH 22 0
BBX 22 14 0 0
BITMAP
FF8000
FFC3F0
E1E000
E0E000
E0E3F0
E1C7F8
FFC61C
FFEE1C
E07FFC
E07E00
E07E00
FFF71C
FFE7F8
FF81F0
ENDCHAR
STARTCHAR F1B5
ENCODING 61877
SWIDTH 874 0
DWIDTH 17 0
BBX 16 16 0 -1
BITMAP
7FFE
FFFF
FFFF
FFFF
81FF
9CFF
9DC3
8199
9881
9C81
9C9F
81C3
FFFF
FFFF
FFFF
7FFE
ENDCHAR
STARTCHAR F1B6
ENCODING 61878
SWIDTH 977 0
DWIDTH 19 0
BBX 19 16 0 -1
BITMAP
000F80
001DC0
003760
002FA0
002FA0
006FA0
00F760
00F8C0
C1FF80
FFFE00
FEF800
FF7000
FF6000
1F4000
168000
0F8000
ENDCHAR
STARTCHAR F1B7
ENCODING 61879
SWIDTH 874 0
DWIDTH 17 0
BBX 16 16 0 -1
BITMAP
7FFE
FFEF
FF83
FF39
FF45
FE45
FE45
FC3B
7803
001F
063F
02FF
83FF
DDFF
E7FF
7FFE
ENDCHAR
STARTCHAR F1B8
ENCODING 61880
SWIDTH 977 0
DWIDTH 19 0
BBX 19 18 0 -2
BITMAP
03F800
07FC00
0FBE00
0F9F00
1F1E00
0E1E00
822180
7807C0
7C07C0
FC03E0
F001E0
7001C0
601040
3F9F80
1FBF80
1F9F00
0F9F00
000800
ENDCHAR
STARTCHAR F1B9
ENCODING 61881
SWIDTH 1131 0
DWIDTH 22 0
BBX 22 17 0 -2
BITMAP
0FFFC0
0FFFC0
1E01E0
1C00E0
1C00E0
1C00E0
380070
FFFFFC
CFFFCC
87FF84
87FF84
CFFFCC
FFFFFC
FFFFFC
780078
780078
300030
ENDCHAR
STARTCHAR F1BA
ENCODING 61882
SWIDTH 1131 0
DWIDTH 22 0
BBX 22 20 0 -3
BITMAP
00FC00
00FC00
00FC00
07FF80
0FFFC0
1FFFE0
1C00E0
1C00E0
1C00E0
380070
7FFFF8
FFFFFC
CFFFCC
87FF84
8FFFC4
FFFFFC
FFFFFC
780078
780078
300030
ENDCHAR
STARTCHAR F1BB
ENCODING 61883
SWIDTH 874 0
DWIDTH 17 0
BBX 16 19 0 -2
BITMAP
0180
03C0
07E0
0FF0
1FF8
07E0
0FF0
1FF8
3FFC
7FFE
07E0
0FF0
1FF8
3FFC
7FFE
FFFF
03C0
03C0
03C0
ENDCHAR
STARTCHAR F1BC
ENCODING 61884
SWIDTH 874 0
DWIDTH 17 0
BBX 17 16 0 -1
BITMAP
07F000
1FFC00
3FFE00
7FFF00
701F00
E00380
FFF180
F01F80
F78780
FFF380
F01F80
7FE700
7FFF00
3FFE00
1FFC00
07F000
ENDCHAR
STARTCHAR F1BD
ENCODING 61885
SWIDTH 565 0
DWIDTH 11 0
BBX 11 18 0 -2
BITMAP
00E0
01E0
03E0
03E0
FFE0
FFC0
FFC0
FF80
1F00
1F00
3FE0
3FE0
7FE0
7FE0
FFE0
F800
F000
F000
ENDCHAR
STARTCHAR F1BE
ENCODING 61886
SWIDTH 1285 0
DWIDTH 25 0
BBX 25 10 0 2
BITMAP
000FC000
001FE000
03FFF000
07FFF800
07FFFE00
7FFFFF00
FFFFFF80
FFFFFF80
FFFFFF80
7FFFFF00
ENDCHAR
STARTCHAR F1C0
ENCODING 61888
SWIDTH 874 0
DWIDTH 17 0
BBX 17 20 0 -3
BITMAP
03E000
3FFE00
FFFF80
FFFF80
FFFF80
7FFF00
1FFC00
800080
FC1F80
FFFF80
3FFE00
800080
F00780
FFFF80
3FFE00
83E080
F00780
FFFF80
7FFF00
07F000
ENDCHAR
STARTCHAR F1C1
ENCODING 61889
SWIDTH 874 0
DWIDTH 17 0
BBX 16 20 0 -3
BITMAP
FFE0
FFF8
802C
8026
8023
8021
81BF
8181
8181
8081
8181
8141
8239
83DD
8C01
9801
9001
8001
FFFF
FFFF
ENDCHAR
STARTCHAR F1C2
ENCODING 61890
SWIDTH 874 0
DWIDTH 17 0
BBX 16 20 0 -3
BITMAP
FFF0
FFF8
802C
8026
8023
8021
803F
8001
8001
BC9D
99C9
8959
8959
8F51
8671
8631
8631
8001
FFFF
FFFF
ENDCHAR
STARTCHAR F1C3
ENCODING 61891
SWIDTH 874 0
DWIDTH 17 0
BBX 16 20 0 -3
BITMAP
FFE0
FFF8
802C
8026
8023
8021
803F
8001
8001
8771
8361
8141
81C1
81C1
8341
8221
8771
8001
FFFF
FFFF
ENDCHAR
STARTCHAR F1C4
ENCODING 61892
SWIDTH 874 0
DWIDTH 17 0
BBX 16 20 0 -3
BITMAP
FFE0
FFF8
802C
8026
8023
8021
803F
8001
8001
8FE1
8621
8621
8661
87C1
8601
8601
8F01
8001
FFFF
FFFF
ENDCHAR
STARTCHAR F1C5
ENCODING 61893
SWIDTH 874 0
DWIDTH 17 0
BBX 16 20 0 -3
BITMAP
FFE0
FFF8
802C
8026
8023
8021
803F
8C01
9E01
9E01
9E21
8071
80F9
89FD
9FFD
9FFD
9FFD
8001
FFFF
FFFF
ENDCHAR
STARTCHAR F1C6
ENCODING 61894
SWIDTH 874 0
DWIDTH 17 0
BBX 16 20 0 -3
BITMAP
FFC0
FFF0
82B8
848C
8286
8281
84FF
8201
8201
8401
8601
8601
8F01
8F01
8901
8D01
8601
8001
FFFF
FFFF
ENDCHAR
STARTCHAR F1C7
ENCODING 61895
SWIDTH 874 0
DWIDTH 17 0
BBX 16 20 0 -3
BITMAP
FFE0
FFF8
802C
8026
8023
8021
803F
8001
8001
8031
8691
9E59
9E59
9E59
86D1
8231
8031
8001
FFFF
FFFF
ENDCHAR
STARTCHAR F1C8
ENCODING 61896
SWIDTH 874 0
DWIDTH 17 0
BBX 16 20 0 -3
BITMAP
FFE0
FFF8
802C
8026
8022
8021
803F
8001
8001
9FC9
9FD9
9FF9
9FF9
9FD9
9FC9
9F81
8001
8001
FFFF
FFFF
ENDCHAR
STARTCHAR F1C9
ENCODING 61897
SWIDTH 874 0
DWIDTH 17 0
BBX 16 20 0 -3
BITMAP
FFE0
FFF8
802C
8026
8022
8021
803F
8041
80C1
8CF1
8899
988D
988D
8899
8D91
8591
8101
8001
FFFF
FFFF
ENDCHAR
STARTCHAR F1CA
ENCODING 61898
SWIDTH 874 0
DWIDTH 17 0
BBX 16 18 0 -2
BITMAP
0018
007E
007F
F0E7
70E7
70E7
70E7
70E7
7870
387F
383F
3C1F
1C38
1E38
0E70
07E0
07E0
03C0
ENDCHAR
STARTCHAR F1CB
ENCODING 61899
SWIDTH 977 0
DWIDTH 19 0
BBX 19 20 0 -3
BITMAP
004000
01E000
03F800
075C00
1C4700
304180
E040E0
E1E0E0
F3B9E0
BE1F20
9E0F20
F3B9E0
E1F0E0
E040E0
704180
1C4700
0E5E00
03F800
01F000
004000
ENDCHAR
STARTCHAR F1CC
ENCODING 61900
SWIDTH 1131 0
DWIDTH 22 0
BBX 22 15 0 1
BITMAP
003F00
00FF80
00FFC0
1FFFE0
3FFFE0
3FFFE0
3FFFE0
7C3078
799278
F9CF3C
F9A67C
FC107C
FFFFFC
7FFFF8
1FFFF0
ENDCHAR
STARTCHAR F1CD
ENCODING 61901
SWIDTH 977 0
DWIDTH 19 0
BBX 19 20 0 -3
BITMAP
00E000
07FC00
0C0700
3C0780
3E4F80
7FFFC0
7E0FC0
DC0720
880220
880220
880220
880220
DC0720
5E0FE0
7FFFC0
3EEFC0
3C0780
180300
07FC00
01F000
ENDCHAR
STARTCHAR F1CE
ENCODING 61902
SWIDTH 977 0
DWIDTH 19 0
BBX 19 18 0 -2
BITMAP
031800
0F1E00
1E0F00
380380
7001C0
6000C0
E000E0
C00060
C00060
C00060
C00060
E000E0
6000C0
7001C0
380380
1E0F00
0FFE00
07FC00
ENDCHAR
STARTCHAR F1D0
ENCODING 61904
SWIDTH 977 0
DWIDTH 19 0
BBX 19 20 0 -3
BITMAP
004000
00E000
00E000
10E100
237880
61F0C0
40E040
C0E060
E0E0E0
E0E0E0
F0E1E0
F9F3E0
FFFFE0
7FFFC0
7FFFC0
3FFFC0
3FFF80
1FFF00
07FE00
01F000
ENDCHAR
STARTCHAR F1D1
ENCODING 61905
SWIDTH 977 0
DWIDTH 19 0
BBX 19 20 0 -3
BITMAP
00E000
07BC00
1F1F00
2E0E80
580340
6040C0
C040A0
CCE660
C7FC60
C1F060
41F060
C7FC60
CEEE60
404060
6040C0
584340
3C0780
171D00
0DB600
03F800
ENDCHAR
STARTCHAR F1D2
ENCODING 61906
SWIDTH 874 0
DWIDTH 17 0
BBX 17 16 0 -1
BITMAP
7FFF00
FFFF80
FFBF80
FFBF80
FFF780
F2A380
E0A380
E9B780
E1B780
F3B780
E7B380
E0FF80
ECFF80
E0FF80
FFFF80
7FFF00
ENDCHAR
STARTCHAR F1D3
ENCODING 61907
SWIDTH 977 0
DWIDTH 19 0
BBX 17 20 1 -3
BITMAP
004000
006000
006000
000600
000600
3F6F80
FF6F80
C66600
C66600
C66600
FC6600
386600
606700
606780
3E6380
FF0000
C30000
C30000
FE0000
3C0000
ENDCHAR
STARTCHAR F1D4
ENCODING 61908
SWIDTH 874 0
DWIDTH 17 0
BBX 17 16 0 -1
BITMAP
7FFF00
FFFF80
FFFF80
FFFF80
F9CF80
FDDF80
FCBF80
FEBF80
FE7F80
FF7F80
FF7F80
FF7F80
FF7F80
FFFF80
FFFF80
7FFF00
ENDCHAR
STARTCHAR F1D5
ENCODING 61909
SWIDTH 720 0
DWIDTH 14 0
BBX 12 20 1 -3
BITMAP
0700
1DC0
6060
4020
8210
8710
8F10
8F10
9A10
5030
3060
20C0
6F00
6000
4000
C000
C000
C000
C000
4000
ENDCHAR
STARTCHAR F1D6
ENCODING 61910
SWIDTH 977 0
DWIDTH 19 0
BBX 19 20 0 -3
BITMAP
00F000
03FC00
07FE00
0FFF00
0FFF00
1FFF80
1FFF80
1FFF80
1FFF80
3FFFC0
7FFFC0
7FFFE0
FFFFE0
FFFFE0
BFFFE0
1FFF00
0FFF00
3FFF80
3FFF80
020000
ENDCHAR
STARTCHAR F1D7
ENCODING 61911
SWIDTH 1131 0
DWIDTH 22 0
BBX 22 18 0 -3
BITMAP
07E000
1FF800
3FFC00
7BDE00
F3CE00
FFFF00
FFEFC0
FFDFF0
FFBFF8
7FFBBC
7F7BBC
3F7FFC
1F7FFC
107FFC
003FF8
001FF0
000FE0
000010
ENDCHAR
STARTCHAR F1D8
ENCODING 61912
SWIDTH 977 0
DWIDTH 19 0
BBX 19 20 0 -3
BITMAP
000020
0000E0
0003E0
0007E0
001FC0
007DC0
00FBC0
03F7C0
0FEFC0
1FDFC0
7F1F80
FE3F80
7C7F80
08FF80
01FF80
01FF80
01DF00
01C700
018000
010000
ENDCHAR
STARTCHAR F1D9
ENCODING 61913
SWIDTH 977 0
DWIDTH 19 0
BBX 19 20 0 -3
BITMAP
000020
0000E0
0003E0
000760
001C40
007040
00C240
038440
0E18C0
1838C0
707080
E0F080
7BE080
0FC080
07C180
07F180
079F00
070700
070000
020000
ENDCHAR
STARTCHAR F1DA
ENCODING 61914
SWIDTH 874 0
DWIDTH 17 0
BBX 17 16 0 -1
BITMAP
87F000
DFF800
FFFE00
F81E00
F80700
FC8700
FC8380
008380
008380
078380
000700
100700
380E00
3E7E00
1FFC00
0FF000
ENDCHAR
STARTCHAR F1DB
ENCODING 61915
SWIDTH 874 0
DWIDTH 17 0
BBX 16 16 0 -1
BITMAP
07E0
1C38
300C
6006
4002
C001
8001
8001
8001
8001
C001
4002
6006
300C
1C18
0FF0
ENDCHAR
STARTCHAR F1DC
ENCODING 61916
SWIDTH 977 0
DWIDTH 19 0
BBX 18 16 1 -1
BITMAP
FE1FC0
380700
380700
380700
380700
380700
380700
3FFF00
3FFF00
380700
380700
380700
380700
380700
380700
FE1FC0
ENDCHAR
STARTCHAR F1DD
ENCODING 61917
SWIDTH 720 0
DWIDTH 14 0
BBX 13 16 1 -1
BITMAP
3FF8
7FF8
FFF0
FF70
FF70
FF70
FF70
FF70
7F70
3F70
0770
0770
0770
0770
0770
0770
ENDCHAR
STARTCHAR F1DE
ENCODING 61918
SWIDTH 874 0
DWIDTH 17 0
BBX 16 15 0 -2
BITMAP
1E00
FFFF
FFFF
3E00
0000
0000
007C
FFFF
007C
003C
0000
0F00
0F00
FFFF
0F00
ENDCHAR
STARTCHAR F1E0
ENCODING 61920
SWIDTH 874 0
DWIDTH 17 0
BBX 17 16 0 -1
BITMAP
001F00
003F80
003F80
003F80
00FF80
7FFF00
FF8E00
FE0000
FE0000
FF8400
7FFF00
10FF80
003F80
003F80
003F80
001F00
ENDCHAR
STARTCHAR F1E1
ENCODING 61921
SWIDTH 874 0
DWIDTH 17 0
BBX 17 16 0 -1
BITMAP
7FFF00
FFFF80
FFFF80
FFC380
FF8380
FF0380
E00780
E0FF80
E0FF80
E00780
FF0380
FF8380
FFC380
FFEF80
FFFF80
7FFF00
ENDCHAR
STARTCHAR F1E2
ENCODING 61922
SWIDTH 977 0
DWIDTH 19 0
BBX 18 20 0 -3
BITMAP
000040
000140
000040
0001C0
000140
0FFE00
33FE00
23FE00
4FFC00
9FFE00
9FFE00
FFFE00
FFFE00
FFFE00
FFFE00
7FFC00
7FFC00
3FF800
1FF000
07C000
ENDCHAR
STARTCHAR F1E3
ENCODING 61923
SWIDTH 977 0
DWIDTH 19 0
BBX 19 20 0 -3
BITMAP
00E000
07FC00
0DF700
13F980
20E080
7001C0
7801C0
F843E0
F9F3E0
F1F9E0
A1F0A0
81F020
C0F020
400060
5E0F40
3E0FC0
3F1F80
1F1F00
07FC00
01F000
ENDCHAR
STARTCHAR F1E4
ENCODING 61924
SWIDTH 977 0
DWIDTH 19 0
BBX 19 15 0 1
BITMAP
0FFE00
3FFF80
7FFFC0
FC07E0
000000
FC03E0
F803E0
000000
EEEEE0
EEEEE0
EEEEE0
000000
3BBB80
3BBB80
3BBB80
ENDCHAR
STARTCHAR F1E5
ENCODING 61925
SWIDTH 977 0
DWIDTH 19 0
BBX 19 20 0 -3
BITMAP
0E0E00
0F1E00
0F1E00
000000
3EEF80
3EEF80
3EEF80
3EEF80
7EEFC0
7EEFC0
7EEFC0
FE0FE0
FE0FE0
FC07E0
FC07E0
FC07E0
FC07E0
FC07E0
FC07E0
FC07E0
ENDCHAR
STARTCHAR F1E6
ENCODING 61926
SWIDTH 977 0
DWIDTH 19 0
BBX 19 20 0 -3
BITMAP
000400
000E00
001C00
003C00
067800
0FF0E0
0FE1E0
1FC3C0
1FE780
1FF700
1FFE00
1FFC00
1FFE00
0FFF00
1FFE00
3FFC00
79F000
F00000
E00000
C00000
ENDCHAR
STARTCHAR F1E7
ENCODING 61927
SWIDTH 977 0
DWIDTH 19 0
BBX 19 20 0 -5
BITMAP
3FFF80
6000C0
400040
400040
400040
400040
431C40
47BC40
47BE40
C7BC60
C30860
7FBFC0
1FFF00
0FFE00
0FBE00
0FBE00
0FBE00
0FBE00
07BC00
031800
ENDCHAR
STARTCHAR F1E8
ENCODING 61928
SWIDTH 977 0
DWIDTH 19 0
BBX 17 18 1 -2
BITMAP
7FFF80
7FFF80
E00080
E00080
E00080
E10880
E10880
E10880
E10880
E10880
E00080
E00180
E00300
F8FE00
F9FC00
FFF800
0F0000
0E0000
ENDCHAR
STARTCHAR F1E9
ENCODING 61929
SWIDTH 874 0
DWIDTH 17 0
BBX 15 20 1 -3
BITMAP
0600
3E00
3E00
3E00
1E00
0E00
0F08
071C
033E
427E
F078
FC00
FC00
E070
037E
073E
0F1C
1F18
1F00
0600
ENDCHAR
STARTCHAR F1EA
ENCODING 61930
SWIDTH 1131 0
DWIDTH 22 0
BBX 22 15 0 1
BITMAP
1FFFFC
F00004
93F3E4
93F3E4
921004
9213E4
9213E4
921004
93F3E4
900004
900004
93F3E4
900004
F0000C
7FFFF8
ENDCHAR
STARTCHAR F1EB
ENCODING 61931
SWIDTH 1131 0
DWIDTH 22 0
BBX 21 15 0 1
BITMAP
03FE00
1FFFC0
3FFFE0
7C01F0
F1FC78
67FF30
1FFFC0
1E03C0
08F880
03FE00
03FE00
010400
007000
007000
002000
ENDCHAR
STARTCHAR F1EC
ENCODING 61932
SWIDTH 977 0
DWIDTH 19 0
BBX 18 20 0 -3
BITMAP
7FFF80
FFFFC0
800040
800040
800040
800040
FFFFC0
DDCEC0
888440
88CC40
FFFFC0
DDFEC0
888440
888440
FFFC40
FFFC40
888440
888440
FFFFC0
FFFFC0
ENDCHAR
STARTCHAR F1ED
ENCODING 61933
SWIDTH 874 0
DWIDTH 17 0
BBX 16 20 0 -3
BITMAP
1FE0
3FF8
3FFC
3FFC
3FFC
3FFC
3FFD
7FFB
7FFB
7FF7
7FCF
787E
7FFE
77F8
F780
F780
F700
F700
0F00
0F00
ENDCHAR
STARTCHAR F1EE
ENCODING 61934
SWIDTH 977 0
DWIDTH 19 0
BBX 16 18 2 -2
BITMAP
0008
001C
001C
071E
079E
E7AE
FBAE
FBAF
7BAF
1BAF
1BAF
0BAF
0BAE
07BE
079E
071E
001C
001C
ENDCHAR
STARTCHAR F1F0
ENCODING 61936
SWIDTH 1285 0
DWIDTH 25 0
BBX 25 16 0 -1
BITMAP
FFFFFF80
FFFFFF80
FFFFFF80
FFFFFF80
FFFF7F80
E6483180
F649E180
FEC8E980
F0DC6980
F09E4180
F1904080
F9999C80
FFFFFF80
FFFFFF80
FFFFFF80
FFFFFF80
ENDCHAR
STARTCHAR F1F1
ENCODING 61937
SWIDTH 1285 0
DWIDTH 25 0
BBX 25 16 0 -1
BITMAP
FFFFFF80
FFFFFF80
FE1C3F80
F8080F80
F0140780
E0040380
E0000380
F7FBDF80
FFFEDB80
E0A90380
E0040380
F0140780
F8080F80
FC1C3F80
FFFFFF80
FFFFFF80
ENDCHAR
STARTCHAR F1F2
ENCODING 61938
SWIDTH 1285 0
DWIDTH 25 0
BBX 25 17 0 -1
BITMAP
FFFFFF80
FFFFFF80
FFFFFF80
FFFFFF80
FFFFFF80
9492C980
B562CB80
B7615980
95934A80
FFFFFF80
FFFFFC80
FFFFF080
FFFFC080
FFFE0080
FFF00080
FF000080
00FFFF00
ENDCHAR
STARTCHAR F1F3
ENCODING 61939
SWIDTH 1285 0
DWIDTH 25 0
BBX 25 16 0 -1
BITMAP
FFFFFF80
FFFFFF80
FFFFFF80
84048080
7BFEAA80
7DFF6E80
95F6DA80
60102480
FFFFFF80
FFBBEF80
FF5BEF80
FFB2EF80
F8490000
FFFFFF80
FFFFFF80
FFFFFF80
ENDCHAR
STARTCHAR F1F4
ENCODING 61940
SWIDTH 1285 0
DWIDTH 25 0
BBX 25 16 0 -1
BITMAP
FFFFFF80
FFFFFF80
FFFFFF80
FFFFFF80
FFFFFF80
C3FC3C80
D3FDBC80
C4544580
9D45D580
9C6DC580
FFDFFF80
FFFFFF80
FFFFFF80
FFFFFF80
FFFFFF80
FFFFFF80
ENDCHAR
STARTCHAR F1F5
ENCODING 61941
SWIDTH 1285 0
DWIDTH 25 0
BBX 25 16 0 -1
BITMAP
FFFFFF80
FFFFFF80
FFFFFF80
FFFFFF80
FDF3FF80
FDFFFF80
88921180
9D92A480
C592A080
B5929780
8C923080
FFFEFF80
FFFEFF80
FFFFFF80
FFFFFF80
FFFFFF80
ENDCHAR
STARTCHAR F1F6
ENCODING 61942
SWIDTH 1131 0
DWIDTH 22 0
BBX 22 20 0 -3
BITMAP
003008
00301C
00FC38
01FE70
03FFE0
07FFC0
07FF80
07FE00
07FC00
07F800
07F080
07E180
0FC7C0
0F0FC0
1E1FE0
3C3FF0
387FF0
70FC00
E0D800
003000
ENDCHAR
STARTCHAR F1F7
ENCODING 61943
SWIDTH 1131 0
DWIDTH 22 0
BBX 21 20 1 -3
BITMAP
006010
006038
01F870
030CE0
0607C0
040380
040700
041E00
043C00
047000
0CE100
09C100
0B8180
1F0080
3E00C0
7C0060
70FFE0
E1F800
C1B000
806000
ENDCHAR
STARTCHAR F1F8
ENCODING 61944
SWIDTH 771 0
DWIDTH 15 0
BBX 15 16 0 -1
BITMAP
07E0
0C60
F830
FFFE
7FFC
729C
729C
729C
729C
729C
729C
729C
729C
729C
7FFC
3FFC
ENDCHAR
STARTCHAR F1F9
ENCODING 61945
SWIDTH 874 0
DWIDTH 17 0
BBX 16 16 0 -1
BITMAP
07E0
1C38
300C
63E6
4E32
C811
9001
9001
9001
9001
C811
4E32
67E6
300C
1C18
0FF0
ENDCHAR
STARTCHAR F1FA
ENCODING 61946
SWIDTH 874 0
DWIDTH 17 0
BBX 16 16 0 -1
BITMAP
07F0
1C18
3004
63DA
4E73
C831
9831
9031
9031
9061
D863
4FBE
6F38
3008
1838
0FF0
ENDCHAR
STARTCHAR F1FB
ENCODING 61947
SWIDTH 977 0
DWIDTH 19 0
BBX 19 20 0 -2
BITMAP
000180
0007C0
000FE0
00DFE0
01FFE0
01FFE0
00FFC0
01FF80
03BF00
071F00
0E1F80
1C3F00
387200
70E000
61C000
638000
7F0000
FE0000
E00000
800000
ENDCHAR
STARTCHAR F1FC
ENCODING 61948
SWIDTH 977 0
DWIDTH 19 0
BBX 19 20 0 -3
BITMAP
0000C0
0001E0
0003E0
0007E0
000FC0
001FC0
003F80
007F00
00FF00
00FE00
00FE00
007C00
0F3800
1F8000
9FC000
FFC000
FFC000
7F8000
3F8000
1E0000
ENDCHAR
STARTCHAR F1FD
ENCODING 61949
SWIDTH 977 0
DWIDTH 19 0
BBX 20 20 0 -3
BITMAP
080100
0C6180
1CE380
1CE380
000000
1CE380
1CE380
1CE380
1CE380
1CE380
7FFFE0
FFFFF0
FFFFF0
C70C30
104180
7DF3E0
FFFFF0
FFFFF0
FFFFF0
FFFFF0
ENDCHAR
STARTCHAR F1FE
ENCODING 61950
SWIDTH 1131 0
DWIDTH 22 0
BBX 22 16 0 -1
BITMAP
800000
810000
838000
83C000
87E040
8FF0C0
9FF9E0
9FFFE0
9FFFE0
9FFFE0
9FFFF0
9FFFF0
9FFFF0
9FFFF8
800000
FFFFFC
ENDCHAR
STARTCHAR F200
ENCODING 61952
SWIDTH 977 0
DWIDTH 19 0
BBX 19 18 0 -2
BITMAP
002000
003C00
073F00
1F3F00
3F3F80
7F3FC0
7F3FC0
FF3FC0
FF3FC0
FF0000
FF9FE0
FFCFE0
FFE7E0
7FF3C0
7FF9C0
3FFC80
1FFC00
07F000
ENDCHAR
STARTCHAR F201
ENCODING 61953
SWIDTH 1131 0
DWIDTH 22 0
BBX 22 16 0 -1
BITMAP
800000
8001F8
8000F8
8000F8
8001F8
8003D8
80C780
81EF00
83FE00
87FC00
8F3800
9E1000
9C0000
880000
800000
FFFFFC
ENDCHAR
STARTCHAR F202
ENCODING 61954
SWIDTH 977 0
DWIDTH 19 0
BBX 19 12 0 1
BITMAP
1F07C0
3F8FC0
60C800
406800
806C00
803780
8030C0
803020
409820
60DC60
3F8FC0
1F0780
ENDCHAR
STARTCHAR F203
ENCODING 61955
SWIDTH 874 0
DWIDTH 17 0
BBX 17 16 0 -1
BITMAP
7FFF00
FFFF80
FFFF80
FFFF80
E0E180
CE4F80
9F4F80
BFA380
BFB980
9F9C80
CE4C80
E0E180
FFFF80
FFFF80
FFFF80
7FFF00
ENDCHAR
STARTCHAR F204
ENCODING 61956
SWIDTH 1131 0
DWIDTH 22 0
BBX 22 14 0 0
BITMAP
07FFC0
1FE0E0
303010
601808
C00C0C
800404
800404
800404
800404
C00C0C
400808
303010
1CE0E0
0FFFC0
ENDCHAR
STARTCHAR F205
ENCODING 61957
SWIDTH 1131 0
DWIDTH 22 0
BBX 22 14 0 0
BITMAP
07FFC0
1FFEE0
3FF030
7FE008
FFC00C
FFC004
FFC004
FFC004
FFC004
FFC00C
7FE008
3FF010
1FFCE0
0FFFC0
ENDCHAR
STARTCHAR F206
ENCODING 61958
SWIDTH 1285 0
DWIDTH 25 0
BBX 25 14 0 0
BITMAP
001E0000
03C30000
07C10000
00FF8000
1D83FC00
3F06FE00
4384E100
C68DB180
8FF91080
8FF11880
80810080
41808100
7700E700
1E003C00
ENDCHAR
STARTCHAR F207
ENCODING 61959
SWIDTH 874 0
DWIDTH 17 0
BBX 16 20 0 -3
BITMAP
03E0
1FFC
300E
7FFE
6006
4002
4003
C003
C003
C003
FFFF
FFFF
CFF9
8FF1
CFF9
FFFF
FFFF
700E
700E
2004
ENDCHAR
STARTCHAR F208
ENCODING 61960
SWIDTH 1131 0
DWIDTH 22 0
BBX 21 17 0 -1
BITMAP
01FE00
07CF00
0E0380
1800C0
100060
13FFF8
23FFF8
200020
23FF20
200020
FFFE20
FFFF60
100040
1800C0
0E0180
078F00
01FC00
ENDCHAR
STARTCHAR F209
ENCODING 61961
SWIDTH 720 0
DWIDTH 14 0
BBX 13 20 0 -3
BITMAP
0800
1C38
1428
1648
1A58
0AD0
0B90
0DB0
1FF0
3C18
2608
27E8
F388
8B08
AE08
F618
5E30
6160
3FC0
0F00
ENDCHAR
STARTCHAR F20A
ENCODING 61962
SWIDTH 1131 0
DWIDTH 22 0
BBX 22 16 0 -1
BITMAP
FFFFFC
FFFFFC
F0001C
E0001C
C7CF8C
CFEFCC
CC7CCC
CC180C
CC180C
CC78CC
CEFDCC
C7CF8C
E3871C
F0001C
FFFFFC
FFFFFC
ENDCHAR
STARTCHAR F20B
ENCODING 61963
SWIDTH 874 0
DWIDTH 17 0
BBX 15 15 0 1
BITMAP
FF06
FF86
C3C6
C0C6
CCC6
CCC6
CCC6
CCC6
CCC6
CCC6
CCC6
CC0E
CC3C
CFF8
CFF0
ENDCHAR
STARTCHAR F20C
ENCODING 61964
SWIDTH 874 0
DWIDTH 17 0
BBX 16 16 0 -1
BITMAP
7FFF
FFFF
FFFF
FFFF
FFFF
FFFF
8041
9B5D
9B5D
9B41
FFDF
FFDF
FFFF
FFFF
FFFF
7FFF
ENDCHAR
STARTCHAR F20D
ENCODING 61965
SWIDTH 874 0
DWIDTH 17 0
BBX 17 16 0 -1
BITMAP
7FFF00
FFFF80
FC1F80
FC1F80
F88F80
F88F80
F88F80
F08780
F1C780
F1C780
E00380
E06380
E1E380
E3E380
FFFF80
7FFF00
ENDCHAR
STARTCHAR F20E
ENCODING 61966
SWIDTH 1131 0
DWIDTH 22 0
BBX 22 20 0 -3
BITMAP
061080
07FF80
0D0F40
0CF420
134820
1C2810
2C1030
243068
4248A8
858524
858224
428548
2448C8
2C3050
143070
1FCFA0
0C84A0
0D0240
060180
07FF80
ENDCHAR
STARTCHAR F210
ENCODING 61968
SWIDTH 874 0
DWIDTH 17 0
BBX 14 19 0 -2
BITMAP
0004
000C
000C
3FFC
FFFC
FFFC
FFFC
F01C
E01C
E01C
E01C
E01C
E01C
E00C
F004
FFFC
FFFC
FFFC
3FF8
ENDCHAR
STARTCHAR F211
ENCODING 61969
SWIDTH 874 0
DWIDTH 17 0
BBX 17 16 0 -1
BITMAP
078000
1E0400
3C3E00
78F800
71E000
E3C380
C78780
8E1F00
8E3C00
1C7880
38E180
39C300
31C700
338F00
031F00
073380
ENDCHAR
STARTCHAR F212
ENCODING 61970
SWIDTH 1131 0
DWIDTH 22 0
BBX 22 15 0 -2
BITMAP
0F87C0
3FFFF0
2FB610
7FFE18
7FFE18
7FFE18
7FFE18
5FFE08
5FFE08
5FFE08
7FFE08
FFFE0C
F7B78C
FFFFFC
E0301C
ENDCHAR
STARTCHAR F213
ENCODING 61971
SWIDTH 1131 0
DWIDTH 22 0
BBX 22 16 0 -2
BITMAP
000C00
003F00
007FC0
00FFC0
0EFFE0
1FFCE0
3FFCE0
3FE4E0
7F24F8
F124F8
F124FC
F124FC
F124FC
F124FC
FFFFF8
7FFFF0
ENDCHAR
STARTCHAR F214
ENCODING 61972
SWIDTH 874 0
DWIDTH 17 0
BBX 17 19 0 -3
BITMAP
FFFF80
FFFF80
800080
800080
FFFF80
B56A80
800080
808080
83C080
842080
85E080
87A080
866080
83C080
800080
F00B80
3C2E00
0E3000
01C000
ENDCHAR
STARTCHAR F215
ENCODING 61973
SWIDTH 1131 0
DWIDTH 22 0
BBX 23 17 0 -1
BITMAP
FE00FE
FE00FE
FE00FE
FFFFFE
FFFFFE
FFFFFE
FFFFFE
F87C3E
F0381E
F0381E
F0381E
F87C3E
FFFFFE
FFFFFE
FFFFFE
FFFFFE
7FFFFC
ENDCHAR
STARTCHAR F216
ENCODING 61974
SWIDTH 1131 0
DWIDTH 22 0
BBX 21 13 0 1
BITMAP
007E00
008300
0C0180
3F8080
60C080
C060F0
803018
801808
800C08
C02608
606318
3F81F0
0C0060
ENDCHAR
STARTCHAR F217
ENCODING 61975
SWIDTH 925 0
DWIDTH 18 0
BBX 18 15 0 -2
BITMAP
F00000
102000
1FDFC0
1FDFC0
0F07C0
0F07C0
0FDFC0
0FDFC0
0FFF80
070000
040000
0FFF80
0FFF80
0E0380
0E0380
ENDCHAR
STARTCHAR F218
ENCODING 61976
SWIDTH 925 0
DWIDTH 18 0
BBX 18 15 0 -2
BITMAP
F00000
102000
1FDFC0
1FDFC0
0EDBC0
0E53C0
0F07C0
0F8FC0
0FFF80
070000
040000
0FFF80
0FFF80
0E0380
0E0380
ENDCHAR
STARTCHAR F219
ENCODING 61977
SWIDTH 1131 0
DWIDTH 22 0
BBX 22 18 0 -2
BITMAP
0FFFC0
188460
318630
210210
630318
FFFFFC
FFFFFC
630318
310230
198660
0D86C0
068580
03CF00
01CE00
00FC00
007800
003000
003000
ENDCHAR
STARTCHAR F21A
ENCODING 61978
SWIDTH 1131 0
DWIDTH 22 0
BBX 20 20 1 -3
BITMAP
007000
007000
03FC00
060600
040200
05FA00
0FFF00
3FFFC0
1FFF80
0FFF00
0FFF00
07FE00
07FE00
07FE00
A7FF20
FFFFF0
5A4AD0
B5B5A0
FFFFF0
4A4A40
ENDCHAR
STARTCHAR F21B
ENCODING 61979
SWIDTH 874 0
DWIDTH 17 0
BBX 15 18 0 -2
BITMAP
0240
07E0
0FE0
0FF0
3FFC
0FF0
0810
3D3C
3FFC
1FF8
3BFC
7DBE
7D3E
7DBE
FDBE
FDFE
FFFE
7FFE
ENDCHAR
STARTCHAR F21C
ENCODING 61980
SWIDTH 1285 0
DWIDTH 25 0
BBX 24 14 0 0
BITMAP
001E60
1003E0
3F01E0
03FF80
1FFFB8
3FFEFE
47FCE3
C7FDB1
8FFD11
8FF919
808101
418081
7300E6
1E003C
ENDCHAR
STARTCHAR F21D
ENCODING 61981
SWIDTH 874 0
DWIDTH 17 0
BBX 15 19 0 -2
BITMAP
0380
07C0
07C0
0780
0100
0FE0
0FE0
0FE0
0FE0
0FE0
0FE0
0780
0780
0780
7FBC
C786
C006
7FFC
0FE0
ENDCHAR
STARTCHAR F21E
ENCODING 61982
SWIDTH 977 0
DWIDTH 19 0
BBX 19 16 0 -1
BITMAP
3F1F80
7FBFC0
FFFFE0
FEFFE0
FC7FE0
FC77E0
FD67E0
7D63C0
012800
3FCF80
1F8F00
0F9E00
079C00
03D800
01F000
00E000
ENDCHAR
STARTCHAR F221
ENCODING 61985
SWIDTH 720 0
DWIDTH 14 0
BBX 12 20 0 -2
BITMAP
0700
1FC0
3060
6020
4010
C010
C010
C010
4010
6020
3060
1FC0
0700
0200
0200
0200
1FC0
0200
0200
0200
ENDCHAR
STARTCHAR F222
ENCODING 61986
SWIDTH 874 0
DWIDTH 17 0
BBX 16 16 0 -1
BITMAP
001F
0003
0007
000D
1F99
38F0
6060
4030
8010
8010
8010
8010
C030
6020
30C0
1F80
ENDCHAR
STARTCHAR F223
ENCODING 61987
SWIDTH 720 0
DWIDTH 14 0
BBX 12 20 0 -3
BITMAP
4020
6020
30C0
1F80
3DC0
6060
4030
C010
8010
8010
8010
C010
4020
3060
1FC0
0600
0200
0F00
0200
0200
ENDCHAR
STARTCHAR F224
ENCODING 61988
SWIDTH 874 0
DWIDTH 17 0
BBX 15 20 0 -3
BITMAP
001E
001E
000E
0F1A
1DF0
3060
6030
4010
C010
C010
C010
4010
6020
3060
1FC0
0200
0200
0F00
0200
0200
ENDCHAR
STARTCHAR F225
ENCODING 61989
SWIDTH 977 0
DWIDTH 19 0
BBX 18 20 0 -3
BITMAP
F003C0
F003C0
E801C0
B9E340
3F7E00
2C0C00
180400
100600
100200
100200
100200
100600
080400
0C1800
07F000
00C000
008000
01E000
008000
008000
ENDCHAR
STARTCHAR F226
ENCODING 61990
SWIDTH 977 0
DWIDTH 19 0
BBX 19 20 0 -3
BITMAP
071C00
1FFF00
30E180
60A0C0
419040
C11060
C11060
C11060
419040
60B0C0
30E180
1FFF00
071C00
020800
020800
020800
1FFF00
020800
020800
020800
ENDCHAR
STARTCHAR F227
ENCODING 61991
SWIDTH 1080 0
DWIDTH 21 0
BBX 21 20 0 -4
BITMAP
001E00
001E00
000E00
0F1A00
3FF270
606078
403038
C03868
80FEC8
819380
811080
C210C0
422040
326040
1FC040
060080
010080
018100
00FE00
003C00
ENDCHAR
STARTCHAR F228
ENCODING 61992
SWIDTH 1131 0
DWIDTH 22 0
BBX 22 20 0 -3
BITMAP
00003C
00003C
00001C
0F1E34
1DFFE0
20E0C0
40B060
419020
811020
811020
811020
41B060
40A040
30E080
1FFF00
020C00
020000
0F0000
020000
020000
ENDCHAR
STARTCHAR F229
ENCODING 61993
SWIDTH 874 0
DWIDTH 17 0
BBX 16 16 0 -1
BITMAP
001F
0003
0067
003D
1F99
38FC
6064
4030
8010
8010
8010
8010
C030
6020
30C0
1F80
ENDCHAR
STARTCHAR F22A
ENCODING 61994
SWIDTH 720 0
DWIDTH 14 0
BBX 12 20 0 -4
BITMAP
0200
0700
0F80
0A80
0E00
0F80
0200
0700
1FC0
3060
6020
4010
C010
C010
C010
4010
6020
3060
1FC0
0F00
ENDCHAR
STARTCHAR F22B
ENCODING 61995
SWIDTH 1131 0
DWIDTH 22 0
BBX 21 12 0 1
BITMAP
1FC000
306000
4032C0
C03260
801230
801FF8
801230
801260
C032C0
606000
39C000
0F8000
ENDCHAR
STARTCHAR F22C
ENCODING 61996
SWIDTH 720 0
DWIDTH 14 0
BBX 12 20 0 -3
BITMAP
0700
1FC0
3060
4020
C010
8010
8010
8010
C010
4020
6060
1FC0
0F00
0200
0200
0200
0200
0200
0200
0200
ENDCHAR
STARTCHAR F22D
ENCODING 61997
SWIDTH 720 0
DWIDTH 14 0
BBX 12 12 0 1
BITMAP
1F80
30E0
4020
C030
8010
8010
8010
8010
4030
6060
39C0
0F00
ENDCHAR
STARTCHAR F22E
ENCODING 61998
SWIDTH 977 0
DWIDTH 19 0
BBX 0 0 0 0
BITMAP
ENDCHAR
STARTCHAR F22F
ENCODING 61999
SWIDTH 977 0
DWIDTH 19 0
BBX 0 0 0 0
BITMAP
ENDCHAR
STARTCHAR F230
ENCODING 62000
SWIDTH 874 0
DWIDTH 17 0
BBX 17 16 0 -1
BITMAP
FFFF80
FFFF80
FFE380
FF8380
FF8380
FF8F80
FF8F80
FE0380
FE0380
FE0380
FF8F80
FF8F80
FF8F80
FF8F80
FF8F80
FF8F80
ENDCHAR
STARTCHAR F231
ENCODING 62001
SWIDTH 720 0
DWIDTH 14 0
BBX 14 18 0 -1
BITMAP
1FE0
3CF0
6038
401C
CE1C
9E1C
9E1C
9C1C
CC1C
5C38
1C70
1FF0
39C0
3800
3000
3000
2000
2000
ENDCHAR
STARTCHAR F232
ENCODING 62002
SWIDTH 874 0
DWIDTH 17 0
BBX 16 16 0 -1
BITMAP
07F0
1C18
300C
6006
4C02
CE01
8E01
8C01
8601
8331
C1F3
4072
4006
400C
FE38
E7E0
ENDCHAR
STARTCHAR F233
ENCODING 62003
SWIDTH 977 0
DWIDTH 19 0
BBX 19 15 0 1
BITMAP
FFFFE0
800F20
FFFF20
FFFFE0
000000
FFFFE0
FFFF20
800F20
FFFFE0
000000
000000
FFFFE0
800F20
800F20
FFFFE0
ENDCHAR
STARTCHAR F234
ENCODING 62004
SWIDTH 1131 0
DWIDTH 22 0
BBX 22 16 0 -1
BITMAP
07C000
0FE000
0FE000
1FF000
1FF000
0FE1C0
0FE1C0
17D1C0
7C69C0
7FDFFC
FFDFFC
FFDFFC
FFC1C0
FFFDC0
FFFDC0
7FFDC0
ENDCHAR
STARTCHAR F235
ENCODING 62005
SWIDTH 1131 0
DWIDTH 22 0
BBX 22 16 0 -1
BITMAP
07C000
0FE000
0FF000
1FF000
1FF000
0FE000
0FE000
13D618
7C773C
7FF7F8
FFFBF0
FFFDE0
FFFBF0
FFF7F8
FFF73C
7FF618
ENDCHAR
STARTCHAR F236
ENCODING 62006
SWIDTH 1131 0
DWIDTH 22 0
BBX 22 14 0 0
BITMAP
E00000
E00000
E70000
EFBFF0
EFBFF8
EFBFFC
EFBFFC
E63FFC
FFFFFC
FFFFFC
FFFFFC
E0001C
E0001C
E0001C
ENDCHAR
STARTCHAR F237
ENCODING 62007
SWIDTH 874 0
DWIDTH 17 0
BBX 17 20 0 -3
BITMAP
E00380
600300
700700
700700
380E00
F80F80
F80F80
1C1C00
0C1800
FFFF80
FFFF80
077000
077000
036000
03E000
01C000
01C000
008000
008000
008000
ENDCHAR
STARTCHAR F238
ENCODING 62008
SWIDTH 874 0
DWIDTH 17 0
BBX 17 20 0 -3
BITMAP
1FFC00
7FFF00
FFFF80
C00180
C00180
C00180
C00180
C00180
C00180
FFFF80
FFFF80
FE3F80
FC1F80
FC1F80
FE3F80
7FFF00
3FFE00
0FF800
1FFC00
3FFE00
ENDCHAR
STARTCHAR F239
ENCODING 62009
SWIDTH 874 0
DWIDTH 17 0
BBX 16 20 0 -3
BITMAP
1FF8
7FFE
FFFF
8081
8081
8081
8081
8081
8081
FFFF
FFFF
CFF3
87F1
87F1
DFFB
7FFE
3FFC
0FF0
1FF8
3FFC
ENDCHAR
STARTCHAR F23A
ENCODING 62010
SWIDTH 977 0
DWIDTH 19 0
BBX 19 16 0 -1
BITMAP
C00C00
F00F00
FC1FC0
FC3FE0
FC3FC0
FD7FA0
FDFFA0
FDBF60
FDDFE0
FDDEE0
FDEDE0
FC7DE0
FC13E0
FC07E0
3C01E0
0C0060
ENDCHAR
STARTCHAR F23B
ENCODING 62011
SWIDTH 874 0
DWIDTH 17 0
BBX 17 16 0 -1
BITMAP
FFFF80
FFFF80
FFFF80
FFFF80
F9CF80
FDDF80
FCBF80
FEBF80
FE7F80
FF7F80
FF7F80
FF7F80
FF7F80
FFFF80
FFFF80
FFFF80
ENDCHAR
STARTCHAR F23C
ENCODING 62012
SWIDTH 1285 0
DWIDTH 25 0
BBX 23 20 1 -2
BITMAP
001800
002600
00FC00
00C700
078180
2F99C8
3F0DF4
67FDDC
6FFBF4
1FFFE8
1712D8
3E92BC
3D7D7C
3A00B8
310110
70C61C
F9BA2A
BA01EE
97FFF4
780018
ENDCHAR
STARTCHAR F23D
ENCODING 62013
SWIDTH 1285 0
DWIDTH 25 0
BBX 24 17 1 -2
BITMAP
800000
400000
3C0000
0FFFFE
00FFFF
00000F
000006
00000C
000010
000020
000040
000000
000000
040000
0E0E00
0E0F00
0E0E00
ENDCHAR
STARTCHAR F23E
ENCODING 62014
SWIDTH 977 0
DWIDTH 19 0
BBX 20 20 0 -3
BITMAP
00E000
071E00
0BF900
1F1E80
3E0740
5EE7A0
7CF7A0
BDF7D0
FFFFD0
F401D0
F461D0
F4E1D0
B441D0
7441A0
7401A0
300140
3FFE80
1BF900
060600
01F800
ENDCHAR
STARTCHAR F240
ENCODING 62016
SWIDTH 1285 0
DWIDTH 25 0
BBX 24 14 0 0
BITMAP
7FFFFE
800002
800002
9FFFFA
9FFFFB
9FFFF9
9FFFF9
9FFFF9
9FFFF9
9FFFFB
9FFFFA
800002
800002
FFFFFE
ENDCHAR
STARTCHAR F241
ENCODING 62017
SWIDTH 1285 0
DWIDTH 25 0
BBX 24 14 0 0
BITMAP
7FFFFE
800002
800002
9FFF02
9FFF03
9FFF01
9FFF01
9FFF01
9FFF01
9FFF03
9FFF02
800002
800002
FFFFFE
ENDCHAR
STARTCHAR F242
ENCODING 62018
SWIDTH 1285 0
DWIDTH 25 0
BBX 24 14 0 0
BITMAP
7FFFFE
800002
800002
9FF002
9FF003
9FF001
9FF001
9FF001
9FF001
9FF003
9FF002
800002
800002
FFFFFE
ENDCHAR
STARTCHAR F243
ENCODING 62019
SWIDTH 1285 0
DWIDTH 25 0
BBX 24 14 0 0
BITMAP
7FFFFE
800002
800002
9F0002
9F0003
9F0001
9F0001
9F0001
9F0001
9F0003
9F0002
800002
800002
FFFFFE
ENDCHAR
STARTCHAR F244
ENCODING 62020
SWIDTH 1285 0
DWIDTH 25 0
BBX 24 14 0 0
BITMAP
7FFFFE
800002
800002
800002
800003
800001
800001
800001
800001
800003
800002
800002
800002
FFFFFE
ENDCHAR
STARTCHAR F245
ENCODING 62021
SWIDTH 720 0
DWIDTH 14 0
BBX 13 20 0 -3
BITMAP
8000
C000
E000
F000
F800
FC00
FE00
FF00
FF80
FFC0
FFF0
FFF8
FFF8
FF00
FF80
F780
E3C0
C3C0
01C0
0100
ENDCHAR
STARTCHAR F246
ENCODING 62022
SWIDTH 565 0
DWIDTH 11 0
BBX 9 20 0 -3
BITMAP
C180
F780
1C00
0800
0800
0800
0800
0800
0800
1E00
0800
0800
0800
0800
0800
0800
0800
1C00
F780
E180
ENDCHAR
STARTCHAR F247
ENCODING 62023
SWIDTH 1131 0
DWIDTH 22 0
BBX 21 20 0 -3
BITMAP
E00038
E00038
BFFFE8
E00038
5FFC10
5FFC10
500410
5007D0
5007D0
500450
500450
5FFC50
5FFC50
408050
40FFD0
40FFD0
E00038
BFFFE8
E00038
E00038
ENDCHAR
STARTCHAR F248
ENCODING 62024
SWIDTH 1285 0
DWIDTH 25 0
BBX 24 20 0 -3
BITMAP
E00380
E00380
BFFE80
E00380
400107
400107
4001FD
400107
400107
400102
400102
E00382
E00382
BFFE82
E08382
E08382
01C007
017FFD
01C007
01C007
ENDCHAR
STARTCHAR F249
ENCODING 62025
SWIDTH 874 0
DWIDTH 17 0
BBX 17 16 0 -1
BITMAP
FFFF80
FFFF80
FFFF80
FFFF80
FFFF80
FFFF80
FFFF80
FFFF80
FFFF80
FFFF80
FFFF80
FFE000
FFE780
FFE700
FFE600
FFE400
ENDCHAR
STARTCHAR F24A
ENCODING 62026
SWIDTH 874 0
DWIDTH 17 0
BBX 16 16 0 -1
BITMAP
FFFF
8001
8001
8001
8001
8001
8001
8001
8001
8001
8001
801F
8011
8013
8016
FFFC
ENDCHAR
STARTCHAR F24B
ENCODING 62027
SWIDTH 1285 0
DWIDTH 25 0
BBX 25 16 0 -1
BITMAP
FFFFFF80
FFFFFF80
FFFFFF80
FFFFFF80
FFFFFF80
F8E08180
F88F9980
F89F9980
F89F9980
F88F9880
81E08180
FFFFFF80
FFFFFF80
FFFFFF80
FFFFFF80
FFFFFF80
ENDCHAR
STARTCHAR F24C
ENCODING 62028
SWIDTH 1285 0
DWIDTH 25 0
BBX 25 16 0 -1
BITMAP
FFFFFF80
FF00FF80
FFFC3F80
FFFE1F80
FFF70F80
F6730780
FE718780
FC718780
FC718780
FC718780
F6730780
FF770F80
FFFE1F80
FFFC3F80
FF00FF80
FFFFFF80
ENDCHAR
STARTCHAR F24D
ENCODING 62029
SWIDTH 977 0
DWIDTH 19 0
BBX 19 20 0 -3
BITMAP
7FFC00
FFFE00
800200
800200
83FFC0
8FFFE0
880020
880020
880020
880020
880020
880020
880020
880020
E80020
680020
080020
080020
0FFFE0
07FFC0
ENDCHAR
STARTCHAR F24E
ENCODING 62030
SWIDTH 1285 0
DWIDTH 25 0
BBX 24 20 0 -3
BITMAP
001000
003C00
0FEFF0
003C00
001000
0C1030
141050
121048
211084
211084
409102
809202
805201
FFD3FF
7F91FE
3E10F8
001000
001000
0FFFE0
0FFFF0
ENDCHAR
STARTCHAR F250
ENCODING 62032
SWIDTH 874 0
DWIDTH 17 0
BBX 16 20 0 -3
BITMAP
FFFF
FFFF
4002
4002
6006
2004
2004
1008
1818
0E70
0E70
1818
1008
300C
2004
6006
4002
4002
FFFF
FFFF
ENDCHAR
STARTCHAR F251
ENCODING 62033
SWIDTH 874 0
DWIDTH 17 0
BBX 16 20 0 -3
BITMAP
FFFF
FFFF
4002
7FFE
7FFE
3FFC
3FFC
1FF8
1FF8
0FF0
0FF0
1818
1008
300C
2004
6006
4002
4002
FFFF
FFFF
ENDCHAR
STARTCHAR F252
ENCODING 62034
SWIDTH 874 0
DWIDTH 17 0
BBX 16 20 0 -3
BITMAP
FFFF
FFFF
4002
4002
6006
2004
3FFC
1FF8
1FF8
0FF0
0FF0
1818
1008
300C
2004
7FFE
7FFE
7FFE
FFFF
FFFF
ENDCHAR
STARTCHAR F253
ENCODING 62035
SWIDTH 874 0
DWIDTH 17 0
BBX 16 20 0 -3
BITMAP
FFFF
FFFF
4002
4002
6006
2004
2004
1008
1818
0E70
0E70
1818
1008
3FFC
3FFC
7FFE
7FFE
7FFE
FFFF
FFFF
ENDCHAR
STARTCHAR F254
ENCODING 62036
SWIDTH 874 0
DWIDTH 17 0
BBX 17 20 0 -3
BITMAP
FFFF80
FFFF80
000000
7FFF00
3FFE00
3FFE00
1FFC00
1FFC00
07F000
03E000
03E000
07F000
0FF800
1FFC00
3FFE00
3FFE00
7FFF00
000000
FFFF80
FFFF80
ENDCHAR
STARTCHAR F255
ENCODING 62037
SWIDTH 874 0
DWIDTH 17 0
BBX 16 15 0 -2
BITMAP
01D8
1FFE
1247
7001
D001
9001
9001
8001
8001
C003
6002
3002
1802
0802
0FFE
ENDCHAR
STARTCHAR F256
ENCODING 62038
SWIDTH 977 0
DWIDTH 19 0
BBX 17 20 0 -3
BITMAP
006000
01F000
071C00
0D1200
092200
092380
092480
092480
092480
780080
C80080
880080
C00080
400080
200080
300080
180080
080180
0FFF00
03FF00
ENDCHAR
STARTCHAR F257
ENCODING 62039
SWIDTH 977 0
DWIDTH 19 0
BBX 19 16 0 -1
BITMAP
1E0000
33C000
20F000
201FE0
1C0820
3F1020
FFE020
802020
802420
FFE420
3E1420
021A20
03E220
010420
011BC0
00FF00
ENDCHAR
STARTCHAR F258
ENCODING 62040
SWIDTH 1131 0
DWIDTH 22 0
BBX 22 20 0 -3
BITMAP
7FF800
FFFE00
800200
BFE300
400180
400080
3FF040
001060
003030
0FF010
180008
10000C
100004
1FF004
001C04
000604
000204
000204
0003FC
0001F8
ENDCHAR
STARTCHAR F259
ENCODING 62041
SWIDTH 1131 0
DWIDTH 22 0
BBX 21 20 0 -3
BITMAP
00C000
01E180
0323C0
073660
093678
091488
091488
0C9C98
049C90
040810
740010
DE0030
860030
820020
400020
300020
180060
0E0040
03FFC0
01FF80
ENDCHAR
STARTCHAR F25A
ENCODING 62042
SWIDTH 977 0
DWIDTH 19 0
BBX 18 20 0 -3
BITMAP
020000
0F8000
088000
088000
088000
088000
08FC00
089780
0802C0
780040
C80040
882440
C12440
412440
2124C0
302480
180080
080180
0FFF80
07FF00
ENDCHAR
STARTCHAR F25B
ENCODING 62043
SWIDTH 874 0
DWIDTH 17 0
BBX 16 20 0 -3
BITMAP
0080
03E0
7220
DA20
8E20
8620
C638
462E
4247
2249
2091
33D3
1C35
1025
11D5
100B
1002
1002
1FFE
07FC
ENDCHAR
STARTCHAR F25C
ENCODING 62044
SWIDTH 1080 0
DWIDTH 21 0
BBX 22 11 0 1
BITMAP
FFDC38
FFDC38
0C1C38
0C1E78
0C1E78
0C1BF8
0C1BD8
0C1BD8
0C199C
0C381C
0C380C
ENDCHAR
STARTCHAR F25D
ENCODING 62045
SWIDTH 977 0
DWIDTH 19 0
BBX 19 20 0 -3
BITMAP
00E000
07FC00
0E0E00
180380
338180
63F0C0
433840
C31860
831820
833820
83F020
833020
C33060
431840
6318C0
230C80
380380
1C0700
07FC00
01F000
ENDCHAR
STARTCHAR F25E
ENCODING 62046
SWIDTH 977 0
DWIDTH 19 0
BBX 19 20 0 -3
BITMAP
00E000
07FC00
0E0E00
380380
300180
6000C0
460C40
DF9F60
99B120
B07020
B07020
98B120
DFBF60
470E40
6000C0
200080
380380
1C0700
07FC00
01F000
ENDCHAR
STARTCHAR F260
ENCODING 62048
SWIDTH 1131 0
DWIDTH 22 0
BBX 21 14 1 0
BITMAP
010400
038E00
061B00
0C3180
1830C0
301860
610C30
E18438
70C070
3860E0
1C61C0
0EC380
078F00
030600
ENDCHAR
STARTCHAR F261
ENCODING 62049
SWIDTH 977 0
DWIDTH 19 0
BBX 19 20 0 -3
BITMAP
00E000
07FC00
0FFE00
3FFF80
3FFF80
7EEFC0
7C47C0
F993E0
F399E0
E6CCE0
E66CE0
F339E0
F933E0
7C47C0
7EEFC0
3FFF80
3FFF80
1FFF00
07FC00
01F000
ENDCHAR
STARTCHAR F262
ENCODING 62050
SWIDTH 1285 0
DWIDTH 25 0
BBX 25 14 0 0
BITMAP
01FFC000
06003000
FF80FF80
70C38700
60660300
47343900
89984C80
9698B480
9698B480
9898C480
CF3C7980
403E0100
305B0200
1F88FC00
ENDCHAR
STARTCHAR F263
ENCODING 62051
SWIDTH 720 0
DWIDTH 14 0
BBX 12 20 1 -3
BITMAP
0600
1F80
3FC0
79E0
70E0
70E0
70E0
39C0
3FC0
1F80
4020
F9F0
7FE0
1F80
0600
0F00
1F80
39C0
70E0
2040
ENDCHAR
STARTCHAR F264
ENCODING 62052
SWIDTH 874 0
DWIDTH 17 0
BBX 17 16 0 -1
BITMAP
7FFF00
FE3F80
FC1F80
F9CF80
F9CF80
F9CF80
FC1F80
FE3F80
F3E780
F80F80
FC1F80
FE3F80
FC1F80
F88F80
F9CF80
7FFF00
ENDCHAR
STARTCHAR F265
ENCODING 62053
SWIDTH 977 0
DWIDTH 19 0
BBX 19 16 0 -1
BITMAP
FFFFE0
FFFFE0
FFFFE0
FFFFE0
FFFFE0
F1F1E0
F0E1E0
F843E0
FC07E0
FE0FE0
7F1FC0
7FFFC0
3FFF80
1FFF00
0FFE00
07FC00
ENDCHAR
STARTCHAR F266
ENCODING 62054
SWIDTH 1285 0
DWIDTH 25 0
BBX 25 16 0 -2
BITMAP
FDFBEF80
38308200
18310600
18190400
1C1A0400
0C0E0800
0E0C0800
060E1000
060E1000
031F3000
03132000
01B3A000
01A1C000
01C1C000
00C08000
00808000
ENDCHAR
STARTCHAR F267
ENCODING 62055
SWIDTH 977 0
DWIDTH 19 0
BBX 19 20 0 -3
BITMAP
004000
07FC00
0C6200
13F980
27FE80
4FFF40
5FF740
DFEFA0
BFCF20
BF9FA0
BF5FA0
BF3FA0
BE7FA0
5EFF60
5DFF40
2BFEC0
37FD80
19F300
060E00
01F000
ENDCHAR
STARTCHAR F268
ENCODING 62056
SWIDTH 977 0
DWIDTH 19 0
BBX 19 20 0 -3
BITMAP
00E000
07FC00
0FFE00
3FFF80
3FFF80
5F01C0
4C0000
ECF7E0
E1F3E0
F3FBE0
F3FBE0
F9F3E0
F9F3E0
7C07C0
7F0FC0
3FCF80
3FDF80
1FBF00
07BC00
017000
ENDCHAR
STARTCHAR F269
ENCODING 62057
SWIDTH 977 0
DWIDTH 19 0
BBX 20 19 0 -2
BITMAP
100000
318200
330180
7F01C0
7FC0C0
7FC0E0
7F83E0
FF01E0
FF01E0
FE31F0
FFF1E0
7FE3E0
7F87E0
7FDFC0
3FFFC0
1FFF80
0FFF00
07FE00
00F000
ENDCHAR
STARTCHAR F26A
ENCODING 62058
SWIDTH 977 0
DWIDTH 19 0
BBX 19 19 0 -2
BITMAP
07FC00
0F8600
1F1F00
3E0780
7C07C0
7803C0
F803E0
F803E0
F801E0
F801E0
F801E0
F803E0
7803C0
7C03C0
7C0780
3E0F80
1F1F00
0FC200
01FC00
ENDCHAR
STARTCHAR F26B
ENCODING 62059
SWIDTH 977 0
DWIDTH 19 0
BBX 19 19 0 -2
BITMAP
000FE0
01FC20
07FF20
0FFFA0
1BFFE0
1707E0
2E03E0
1E01E0
1FFFE0
3FFFE0
3FFFE0
7E0000
7E03E0
DF03E0
9FFFC0
8FFF80
87FF00
C5FC00
380000
ENDCHAR
STARTCHAR F26C
ENCODING 62060
SWIDTH 1131 0
DWIDTH 22 0
BBX 21 16 0 -1
BITMAP
FFFFF8
800008
800008
800008
800008
800008
800008
800008
800008
800008
800008
800008
FFFFF8
7FFFF0
002000
07FE00
ENDCHAR
STARTCHAR F26D
ENCODING 62061
SWIDTH 977 0
DWIDTH 19 0
BBX 19 17 0 -1
BITMAP
E001E0
C000E0
80C0E0
81E7E0
83FFE0
83FFE0
83FFE0
81FFE0
81FFE0
C1FFE0
C1FFA0
C1F820
C0F820
E0F020
E00060
F00060
000080
ENDCHAR
STARTCHAR F26E
ENCODING 62062
SWIDTH 874 0
DWIDTH 17 0
BBX 15 20 0 -3
BITMAP
1FF8
1FF8
10C0
13F8
1006
13F2
1C18
18C4
1336
061A
04CA
04CA
841A
D436
4CE4
6C08
33F2
1806
0E18
01E0
ENDCHAR
STARTCHAR F270
ENCODING 62064
SWIDTH 977 0
DWIDTH 19 0
BBX 18 20 1 -4
BITMAP
01E000
07F800
0FFC00
1F3C00
1E3C00
003C00
01FC00
07FC00
0F3C00
1E3C00
1E3C00
1E3C00
1FFE00
0FDC00
078800
8003C0
400140
380780
0FFC00
03E000
ENDCHAR
STARTCHAR F271
ENCODING 62065
SWIDTH 977 0
DWIDTH 19 0
BBX 18 20 0 -3
BITMAP
0C0C00
1E1E00
121200
F3F3C0
F3F3C0
F3F3C0
FFFFC0
800040
800040
808040
808040
808040
83F040
83F040
808040
808040
800040
800040
FFFFC0
FFFFC0
ENDCHAR
STARTCHAR F272
ENCODING 62066
SWIDTH 977 0
DWIDTH 19 0
BBX 18 20 0 -3
BITMAP
0C0C00
1E1E00
121200
F3F3C0
F3F3C0
F3F3C0
FFFFC0
800040
800040
800040
800040
800040
83F040
83F040
800040
800040
800040
800040
FFFFC0
FFFFC0
ENDCHAR
STARTCHAR F273
ENCODING 62067
SWIDTH 977 0
DWIDTH 19 0
BBX 18 20 0 -3
BITMAP
0C0C00
1E1E00
121200
F3F3C0
F3F3C0
F3F3C0
FFFFC0
800040
800040
800040
833040
81E040
80C040
81E040
833040
821040
800040
800040
FFFFC0
FFFFC0
ENDCHAR
STARTCHAR F274
ENCODING 62068
SWIDTH 977 0
DWIDTH 19 0
BBX 18 20 0 -3
BITMAP
0C0C00
1E1E00
121200
F3F3C0
F3F3C0
F3F3C0
FFFFC0
800040
800040
800040
800C40
801840
843040
866040
83C040
818040
800040
800040
FFFFC0
FFFFC0
ENDCHAR
STARTCHAR F275
ENCODING 62069
SWIDTH 977 0
DWIDTH 19 0
BBX 19 20 0 -3
BITMAP
F80000
F80000
F80000
F80000
F80000
F80000
F81060
F870E0
F8F1E0
F9F3E0
FBFFE0
FFFFE0
FFFFE0
FFFFE0
FFFFE0
FFFFE0
FFFFE0
FFFFE0
FFFFE0
FFFFE0
ENDCHAR
STARTCHAR F276
ENCODING 62070
SWIDTH 565 0
DWIDTH 11 0
BBX 11 20 0 -3
BITMAP
0E00
3F80
73C0
5FE0
BFE0
BFE0
FFE0
FFE0
7FE0
7FC0
3F80
0000
0E00
0E00
0E00
0E00
0E00
0E00
0E00
0E00
ENDCHAR
STARTCHAR F277
ENCODING 62071
SWIDTH 977 0
DWIDTH 19 0
BBX 19 20 0 -3
BITMAP
00E000
00E000
7FFFC0
7FFFE0
7FFFC0
7FFF80
000000
00E000
00E000
7FFFC0
FFFFC0
7FFFC0
3FFFC0
000000
00E000
00E000
00E000
00E000
00E000
00E000
ENDCHAR
STARTCHAR F278
ENCODING 62072
SWIDTH 1131 0
DWIDTH 22 0
BBX 22 20 0 -3
BITMAP
010004
07E03C
3D78F4
E10F84
810204
810204
810204
810204
810204
810204
810204
810204
810204
810204
810204
810204
87C21C
9C7270
F01FC0
800200
ENDCHAR
STARTCHAR F279
ENCODING 62073
SWIDTH 977 0
DWIDTH 19 0
BBX 19 20 0 -3
BITMAP
040020
1F80E0
7FE1E0
FFFFE0
FFFFE0
FFFFE0
FFFFE0
FFFFE0
FFFFE0
FFFFE0
FFFFE0
FFFFE0
FFFFE0
FFFFE0
FFFFE0
FFFFE0
FFFFE0
F8FFC0
E03F00
800C00
ENDCHAR
STARTCHAR F27A
ENCODING 62074
SWIDTH 977 0
DWIDTH 19 0
BBX 19 16 0 -3
BITMAP
03F800
0FFE00
3FFF80
7FFFC0
7FFFC0
FFFFE0
F111E0
F111E0
FFFFE0
7FFFC0
7FFFC0
3FFF80
1FFE00
1FF800
1E0000
380000
ENDCHAR
STARTCHAR F27B
ENCODING 62075
SWIDTH 977 0
DWIDTH 19 0
BBX 19 17 0 -3
BITMAP
03F800
0FBE00
380380
6000C0
400040
C00020
8EEE20
8EEE20
800020
400060
6000C0
380180
081E00
1BF800
160000
3C0000
600000
ENDCHAR
STARTCHAR F27C
ENCODING 62076
SWIDTH 565 0
DWIDTH 11 0
BBX 11 20 0 -3
BITMAP
0400
0C00
3C00
FC00
FC20
FCE0
FFE0
F1E0
E0E0
8020
8020
C060
F1E0
FFE0
E7E0
C7E0
07E0
0780
0700
0400
ENDCHAR
STARTCHAR F27D
ENCODING 62077
SWIDTH 977 0
DWIDTH 19 0
BBX 18 16 1 -1
BITMAP
000100
0E0F80
3F1FC0
7F1FC0
FF2FC0
1F07C0
0F0780
0F8F80
0F8F00
079F00
07FE00
07FC00
07F800
03F000
03E000
018000
ENDCHAR
STARTCHAR F27E
ENCODING 62078
SWIDTH 874 0
DWIDTH 17 0
BBX 17 16 0 -1
BITMAP
FFFF80
FFFF80
FC1F80
FC1F80
FE3F80
FE3F80
FE3F80
FE3F80
FC1F80
FC1F80
F80F80
F80F80
FC1F80
FE3F80
FF7F80
FFFF80
ENDCHAR
STARTCHAR F280
ENCODING 62080
SWIDTH 874 0
DWIDTH 17 0
BBX 17 16 0 -1
BITMAP
FFFF80
FFFF80
FFEF80
FF8380
F04780
F25780
F3FF80
E08780
F3C780
F3C780
F3C780
F3C780
F3C780
E08380
FFFF80
FFFF80
ENDCHAR
STARTCHAR F281
ENCODING 62081
SWIDTH 977 0
DWIDTH 19 0
BBX 19 19 0 -2
BITMAP
002180
003FC0
0021C0
004080
004000
004000
01F000
67FEC0
FFFFE0
FFFFE0
F9F3E0
70E1C0
79F3C0
7FFFC0
3FFFC0
3DF780
1F1F00
07FE00
01F000
ENDCHAR
STARTCHAR F282
ENCODING 62082
SWIDTH 977 0
DWIDTH 19 0
BBX 18 20 1 -4
BITMAP
01E000
07FC00
1FFE00
3FFF00
3C1F80
720F80
440FC0
8807C0
1FFFC0
1FFFC0
3FFFC0
3FFFC0
380000
380000
3C0000
1F8700
1FFF00
0FFF00
07FF00
00F800
ENDCHAR
STARTCHAR F283
ENCODING 62083
SWIDTH 1285 0
DWIDTH 25 0
BBX 25 16 0 -1
BITMAP
FFFFFF80
FFFFFF80
FFFFFF80
FFFFFF80
00000000
00000000
00000000
00000000
FFFFFF80
FFFFFF80
FFFFFF80
FFFFFF80
E21FFF80
E21FFF80
FFFFFF80
FFFFFF80
ENDCHAR
STARTCHAR F284
ENCODING 62084
SWIDTH 977 0
DWIDTH 19 0
BBX 18 20 0 -3
BITMAP
00E000
071C00
180300
200080
41F040
83FC40
87FE80
8FFF00
0FF9C0
0FE1C0
0FE200
0FF800
8FFE00
87FF80
83FC40
41F040
200080
100100
080200
079C00
ENDCHAR
STARTCHAR F285
ENCODING 62085
SWIDTH 977 0
DWIDTH 19 0
BBX 19 19 0 -3
BITMAP
300000
383FE0
3E7FC0
3F7FC0
3FDF80
3FFF00
3FFB00
3FFE00
3FE000
1E3D80
03FF80
0FFB80
1FF780
3FFF80
3FEF80
7FDF80
FFC780
000380
000080
ENDCHAR
STARTCHAR F286
ENCODING 62086
SWIDTH 977 0
DWIDTH 19 0
BBX 18 20 0 -3
BITMAP
004000
004000
007000
007000
007000
004000
125200
1FFE00
1FFE00
1DEE00
1DEE00
9FFE40
9FFE40
FFFFC0
FF3FC0
FE1FC0
FE1FC0
FE1FC0
FE1FC0
FE1FC0
ENDCHAR
STARTCHAR F287
ENCODING 62087
SWIDTH 1285 0
DWIDTH 25 0
BBX 25 15 0 1
BITMAP
00070000
003F8000
00678000
00470000
00C00000
78800400
F9800700
FFFFFF80
F8300600
78100400
00180000
0009E000
000FE000
0003E000
0001E000
ENDCHAR
STARTCHAR F288
ENCODING 62088
SWIDTH 977 0
DWIDTH 19 0
BBX 19 20 0 -3
BITMAP
00E000
07FC00
0FFE00
3FFF80
3FFF80
7C0FC0
7C07C0
FCF3E0
FCF3E0
FCF3E0
FC03E0
FC07E0
FCFFE0
7CFFC0
7CFFC0
3FFF80
3FFF80
1FFF00
07FC00
01F000
ENDCHAR
STARTCHAR F289
ENCODING 62089
SWIDTH 1285 0
DWIDTH 25 0
BBX 24 14 0 0
BITMAP
01F800
079C00
060600
0C0300
1C0102
7E010B
C201CD
80016D
800125
800025
C00065
7FFFCD
3FFF8B
000002
ENDCHAR
STARTCHAR F28A
ENCODING 62090
SWIDTH 874 0
DWIDTH 17 0
BBX 16 20 0 -3
BITMAP
0780
1FF0
3FF8
7FF8
7878
7878
7830
7C00
7F80
3FE0
0FF0
03F8
00F8
7078
F830
F86E
FFFF
7FFF
3FEF
0F80
ENDCHAR
STARTCHAR F28B
ENCODING 62091
SWIDTH 874 0
DWIDTH 17 0
BBX 17 16 0 -1
BITMAP
07F000
1FF800
3FFE00
3FFE00
7FFF00
708F00
F08F00
F08F80
F08F80
F08F80
708F00
788F00
7FFE00
3FFE00
1FFC00
07F000
ENDCHAR
STARTCHAR F28C
ENCODING 62092
SWIDTH 874 0
DWIDTH 17 0
BBX 16 16 0 -1
BITMAP
07F0
1FF8
3C3C
700E
6006
E777
C773
C773
C773
C773
E773
6776
700E
3C1C
1FF8
07F0
ENDCHAR
STARTCHAR F28D
ENCODING 62093
SWIDTH 874 0
DWIDTH 17 0
BBX 17 16 0 -1
BITMAP
07F000
1FFC00
3FFE00
7FFF00
7FFF00
F80F80
F80F80
F80F80
F80F80
F80F80
F80F80
780F00
7FFF00
3FFE00
1FFC00
07F000
ENDCHAR
STARTCHAR F28E
ENCODING 62094
SWIDTH 874 0
DWIDTH 17 0
BBX 16 16 0 -1
BITMAP
07E0
1FF8
3C3C
700E
6006
E7F7
C7F3
C7F3
C7F3
C7F3
E7F7
67E6
700E
3C3C
1FF8
0FF0
ENDCHAR
STARTCHAR F290
ENCODING 62096
SWIDTH 977 0
DWIDTH 19 0
BBX 19 20 0 -3
BITMAP
006000
01F800
030800
020400
020400
020400
3AF5C0
3AF5C0
7DFBC0
7FFFC0
7FFFE0
7FFFE0
7FFFE0
7FFFE0
7FFFE0
000000
7FFFE0
FFFFE0
FFFFE0
FFFFE0
ENDCHAR
STARTCHAR F291
ENCODING 62097
SWIDTH 1131 0
DWIDTH 22 0
BBX 22 20 0 -3
BITMAP
00FC00
07FFC0
0CFCC0
080060
180020
180020
100030
100030
000000
FFFFFC
FFFFFC
3FFBB8
333BB8
333BB8
333BB0
333BB0
333BB0
1FFFF0
1FFFF0
1FFFE0
ENDCHAR
STARTCHAR F292
ENCODING 62098
SWIDTH 977 0
DWIDTH 19 0
BBX 19 16 0 -1
BITMAP
01C700
01C700
03CE00
038E00
3FFFE0
3FFFE0
3FFFC0
071C00
071C00
7FFF80
FFFF80
FFFF80
FFFF80
0E3800
1C7000
1C7000
ENDCHAR
STARTCHAR F293
ENCODING 62099
SWIDTH 874 0
DWIDTH 17 0
BBX 14 20 1 -3
BITMAP
0780
1FE0
3DF0
7CF8
7C78
FC3C
E49C
F49C
F83C
FC7C
FCFC
F87C
F4BC
E49C
FC3C
7C78
7CF8
3DF0
1FE0
0780
ENDCHAR
STARTCHAR F294
ENCODING 62100
SWIDTH 565 0
DWIDTH 11 0
BBX 9 18 1 -2
BITMAP
0800
0C00
0E00
0F00
8B80
C980
6B00
3E00
1C00
1C00
3E00
6F00
CB80
8B80
0F00
0E00
0C00
0800
ENDCHAR
STARTCHAR F295
ENCODING 62101
SWIDTH 874 0
DWIDTH 17 0
BBX 17 16 0 -1
BITMAP
3C0F00
7E0E00
FF1C00
E73C00
E77800
FF7000
7EE000
3DE000
03DE00
03FF00
077F80
0FE380
1EE380
1CF780
387F00
783E00
ENDCHAR
STARTCHAR F296
ENCODING 62102
SWIDTH 977 0
DWIDTH 19 0
BBX 0 0 0 0
BITMAP
ENDCHAR
STARTCHAR F297
ENCODING 62103
SWIDTH 977 0
DWIDTH 19 0
BBX 0 0 0 0
BITMAP
ENDCHAR
STARTCHAR F298
ENCODING 62104
SWIDTH 977 0
DWIDTH 19 0
BBX 0 0 0 0
BITMAP
ENDCHAR
STARTCHAR F299
ENCODING 62105
SWIDTH 977 0
DWIDTH 19 0
BBX 0 0 0 0
BITMAP
ENDCHAR
STARTCHAR F29A
ENCODING 62106
SWIDTH 977 0
DWIDTH 19 0
BBX 0 0 0 0
BITMAP
ENDCHAR
STARTCHAR F29B
ENCODING 62107
SWIDTH 977 0
DWIDTH 19 0
BBX 0 0 0 0
BITMAP
ENDCHAR
STARTCHAR F29C
ENCODING 62108
SWIDTH 977 0
DWIDTH 19 0
BBX 0 0 0 0
BITMAP
ENDCHAR
STARTCHAR F29D
ENCODING 62109
SWIDTH 977 0
DWIDTH 19 0
BBX 0 0 0 0
BITMAP
ENDCHAR
STARTCHAR F29E
ENCODING 62110
SWIDTH 977 0
DWIDTH 19 0
BBX 0 0 0 0
BITMAP
ENDCHAR
STARTCHAR F500
ENCODING 62720
SWIDTH 977 0
DWIDTH 19 0
BBX 0 0 0 0
BITMAP
ENDCHAR
ENDFONT
